<svg width="181" height="180" viewBox="0 0 181 180" fill="none" xmlns="http://www.w3.org/2000/svg">
<g id="Frame 35057">
<rect width="180" height="180" transform="translate(0.5)" fill="white"/>
<g id="Union" filter="url(#filter0_d_3607_3319)">
<mask id="path-1-outside-1_3607_3319" maskUnits="userSpaceOnUse" x="7.53467" y="52.7559" width="165" height="106" fill="black">
<rect fill="white" x="7.53467" y="52.7559" width="165" height="106"/>
<path fill-rule="evenodd" clip-rule="evenodd" d="M146.519 71.6511C146.45 71.5883 146.412 71.4998 146.412 71.4069V71.2121C146.412 71.1753 146.437 71.1431 146.472 71.134C146.553 71.1133 146.553 70.9984 146.472 70.9777L90.9698 56.787C90.8073 56.7455 90.637 56.7455 90.4744 56.787L34.8833 71.0004C34.8103 71.0191 34.7352 71.0285 34.6599 71.0285H33.9642C33.8503 71.0285 33.7579 71.1209 33.7579 71.2348C33.7579 71.2925 33.7337 71.3476 33.6912 71.3867L12.8589 90.5198C12.2741 91.0569 12.5183 92.0285 13.2876 92.2252L33.0057 97.2666C33.4483 97.3798 33.7579 97.7786 33.7579 98.2355V138.872C33.7579 139.425 34.2057 139.872 34.7579 139.872H34.9636C35.0471 139.872 35.1304 139.883 35.2113 139.904L90.0602 153.927C90.0747 153.931 90.0847 153.944 90.0847 153.959C90.0847 153.98 90.1045 153.995 90.125 153.99L145.999 140.398C146.241 140.339 146.412 140.122 146.412 139.872L146.412 98.4626C146.412 98.0058 146.721 97.607 147.164 97.4938L166.882 92.4523C167.651 92.2557 167.895 91.2841 167.311 90.747L146.519 71.6511Z"/>
</mask>
<path fill-rule="evenodd" clip-rule="evenodd" d="M146.519 71.6511C146.45 71.5883 146.412 71.4998 146.412 71.4069V71.2121C146.412 71.1753 146.437 71.1431 146.472 71.134C146.553 71.1133 146.553 70.9984 146.472 70.9777L90.9698 56.787C90.8073 56.7455 90.637 56.7455 90.4744 56.787L34.8833 71.0004C34.8103 71.0191 34.7352 71.0285 34.6599 71.0285H33.9642C33.8503 71.0285 33.7579 71.1209 33.7579 71.2348C33.7579 71.2925 33.7337 71.3476 33.6912 71.3867L12.8589 90.5198C12.2741 91.0569 12.5183 92.0285 13.2876 92.2252L33.0057 97.2666C33.4483 97.3798 33.7579 97.7786 33.7579 98.2355V138.872C33.7579 139.425 34.2057 139.872 34.7579 139.872H34.9636C35.0471 139.872 35.1304 139.883 35.2113 139.904L90.0602 153.927C90.0747 153.931 90.0847 153.944 90.0847 153.959C90.0847 153.98 90.1045 153.995 90.125 153.99L145.999 140.398C146.241 140.339 146.412 140.122 146.412 139.872L146.412 98.4626C146.412 98.0058 146.721 97.607 147.164 97.4938L166.882 92.4523C167.651 92.2557 167.895 91.2841 167.311 90.747L146.519 71.6511Z" fill="#D9D9DA"/>
<path d="M166.882 92.4523L167.873 96.3277L166.882 92.4523ZM167.311 90.747L164.605 93.693L167.311 90.747ZM146.412 98.4626H150.412H146.412ZM147.164 97.4938L146.173 93.6185L147.164 97.4938ZM145.999 140.398L146.944 144.285L145.999 140.398ZM90.125 153.99L89.1795 150.104L90.125 153.99ZM90.0602 153.927L89.0694 157.802L90.0602 153.927ZM35.2113 139.904L34.2205 143.779L35.2113 139.904ZM33.0057 97.2666L32.0148 101.142L33.0057 97.2666ZM12.8589 90.5198L15.5646 93.4659L12.8589 90.5198ZM13.2876 92.2252L12.2967 96.1005L13.2876 92.2252ZM33.6912 71.3867L36.3969 74.3327L33.6912 71.3867ZM34.8833 71.0004L33.8925 67.1251L34.8833 71.0004ZM90.9698 56.787L91.9607 52.9117L90.9698 56.787ZM90.4744 56.787L91.4653 60.6624L90.4744 56.787ZM146.472 70.9777L147.463 67.1024L146.472 70.9777ZM146.519 71.6511L143.813 74.5972L146.519 71.6511ZM142.412 71.2121V71.4069H150.412V71.2121H142.412ZM89.979 60.6624L145.481 74.853L147.463 67.1024L91.9607 52.9117L89.979 60.6624ZM35.8741 74.8757L91.4653 60.6624L89.4836 52.9117L33.8925 67.1251L35.8741 74.8757ZM33.9642 75.0285H34.6599V67.0285H33.9642V75.0285ZM15.5646 93.4659L36.3969 74.3327L30.9855 68.4407L10.1531 87.5738L15.5646 93.4659ZM33.9965 93.3913L14.2784 88.3498L12.2967 96.1005L32.0148 101.142L33.9965 93.3913ZM37.7579 138.872V98.2355H29.7579V138.872H37.7579ZM34.9636 135.872H34.7579V143.872H34.9636V135.872ZM91.0511 150.052L36.2021 136.028L34.2205 143.779L89.0694 157.802L91.0511 150.052ZM145.053 136.511L89.1795 150.104L91.0705 157.877L146.944 144.285L145.053 136.511ZM142.412 98.4626L142.412 139.872H150.412L150.412 98.4626L142.412 98.4626ZM148.155 101.369L167.873 96.3277L165.891 88.577L146.173 93.6185L148.155 101.369ZM170.016 87.801L149.225 68.7051L143.813 74.5972L164.605 93.693L170.016 87.801ZM167.873 96.3277C171.719 95.3443 172.94 90.4863 170.016 87.801L164.605 93.693C162.851 92.0818 163.583 89.167 165.891 88.577L167.873 96.3277ZM150.412 98.4626C150.412 99.8333 149.483 101.03 148.155 101.369L146.173 93.6185C143.96 94.1843 142.412 96.1782 142.412 98.4626L150.412 98.4626ZM146.944 144.285C148.979 143.789 150.411 141.967 150.412 139.873L142.412 139.872C142.412 138.277 143.503 136.888 145.053 136.511L146.944 144.285ZM86.0847 153.958C86.0841 156.571 88.5315 158.495 91.0705 157.877L89.1795 150.104C91.6775 149.496 94.0853 151.388 94.0847 153.96L86.0847 153.958ZM89.0694 157.802C87.3129 157.353 86.0843 155.771 86.0847 153.958L94.0847 153.96C94.0852 152.117 92.8364 150.508 91.0511 150.052L89.0694 157.802ZM34.9636 143.872C34.713 143.872 34.4633 143.841 34.2205 143.779L36.2021 136.028C35.7974 135.925 35.3813 135.872 34.9636 135.872V143.872ZM29.7579 138.872C29.7579 141.634 31.9965 143.872 34.7579 143.872V135.872C36.4148 135.872 37.7579 137.216 37.7579 138.872H29.7579ZM32.0148 101.142C30.6869 100.802 29.7579 99.6061 29.7579 98.2355H37.7579C37.7579 95.9511 36.2097 93.9572 33.9965 93.3913L32.0148 101.142ZM10.1531 87.5738C7.22928 90.2592 8.45057 95.1171 12.2967 96.1005L14.2784 88.3498C16.5861 88.9399 17.3189 91.8546 15.5646 93.4659L10.1531 87.5738ZM29.7579 71.2348C29.7579 70.1727 30.2032 69.1592 30.9855 68.4407L36.3969 74.3327C37.2643 73.5361 37.7579 72.4124 37.7579 71.2348H29.7579ZM33.9642 67.0285C31.6412 67.0285 29.7579 68.9117 29.7579 71.2348H37.7579C37.7579 73.33 36.0594 75.0285 33.9642 75.0285V67.0285ZM33.8925 67.1251C34.1432 67.0609 34.4011 67.0285 34.6599 67.0285V75.0285C35.0694 75.0285 35.4774 74.9772 35.8741 74.8757L33.8925 67.1251ZM91.9607 52.9117C91.1481 52.7039 90.2962 52.7039 89.4836 52.9117L91.4653 60.6624C90.9777 60.787 90.4666 60.787 89.979 60.6624L91.9607 52.9117ZM147.463 75.0093C151.557 73.9627 151.556 68.1488 147.463 67.1024L145.481 74.853C141.55 73.848 141.55 68.2639 145.481 67.2587L147.463 75.0093ZM142.412 71.4069C142.412 72.6197 142.92 73.7768 143.813 74.5972L149.225 68.7051C149.981 69.3998 150.412 70.3799 150.412 71.4069H142.412ZM150.412 71.2121C150.412 73.0028 149.198 74.5658 147.463 75.0093L145.481 67.2587C143.675 67.7205 142.412 69.3478 142.412 71.2121H150.412Z" fill="white" mask="url(#path-1-outside-1_3607_3319)"/>
</g>
<path id="Union_2" fill-rule="evenodd" clip-rule="evenodd" d="M146.412 71.0283H33.7583V139.872H35.0898L90.0851 153.933L145.08 139.872H146.412V71.0283Z" fill="#F1F1F1"/>
<path id="Rectangle 18360" d="M34.6665 71.0557L90.7222 56.7235L146.778 71.0557L90.7222 85.3878L34.6665 71.0557Z" fill="url(#paint0_linear_3607_3319)"/>
<path id="Rectangle 18361" d="M11.5 91.7676L34.0292 71.076L90.0849 85.4081L67.5557 106.1L11.5 91.7676Z" fill="#E9E9EA"/>
<path id="Vector 154" d="M90.085 154V86.3996L146.412 73.1436V140.297L90.085 154Z" fill="#E9E9EA"/>
<path id="Rectangle 18362" d="M168.67 91.9951L146.141 71.3035L90.085 85.6357L112.614 106.327L168.67 91.9951Z" fill="#D9D9DA"/>
<g id="Group 6609">
<g id="Group 6606">
<g id="Rectangle 18363" filter="url(#filter1_d_3607_3319)">
<rect x="86.5" y="21" width="9" height="24" rx="4.5" fill="#B2B2B5"/>
<rect x="85" y="19.5" width="12" height="27" rx="6" stroke="white" stroke-width="3"/>
</g>
</g>
<g id="Group 6607">
<g id="Rectangle 18363_2" filter="url(#filter2_d_3607_3319)">
<rect x="118.5" y="25" width="9" height="24" rx="4.5" transform="rotate(30 118.5 25)" fill="#B2B2B5"/>
<rect x="117.951" y="22.951" width="12" height="27" rx="6" transform="rotate(30 117.951 22.951)" stroke="white" stroke-width="3"/>
</g>
</g>
<g id="Group 6608">
<g id="Rectangle 18363_3" filter="url(#filter3_d_3607_3319)">
<rect width="9" height="24" rx="4.5" transform="matrix(-0.866025 0.5 0.5 0.866025 63.2944 25)" fill="#B2B2B5"/>
<rect x="0.549038" y="-2.04904" width="12" height="27" rx="6" transform="matrix(-0.866025 0.5 0.5 0.866025 65.3435 24.451)" stroke="white" stroke-width="3"/>
</g>
</g>
</g>
</g>
<defs>
<filter id="filter0_d_3607_3319" x="4.53223" y="48.7559" width="171.105" height="113.237" filterUnits="userSpaceOnUse" color-interpolation-filters="sRGB">
<feFlood flood-opacity="0" result="BackgroundImageFix"/>
<feColorMatrix in="SourceAlpha" type="matrix" values="0 0 0 0 0 0 0 0 0 0 0 0 0 0 0 0 0 0 127 0" result="hardAlpha"/>
<feOffset/>
<feGaussianBlur stdDeviation="2"/>
<feComposite in2="hardAlpha" operator="out"/>
<feColorMatrix type="matrix" values="0 0 0 0 0 0 0 0 0 0 0 0 0 0 0 0 0 0 0.08 0"/>
<feBlend mode="normal" in2="BackgroundImageFix" result="effect1_dropShadow_3607_3319"/>
<feBlend mode="normal" in="SourceGraphic" in2="effect1_dropShadow_3607_3319" result="shape"/>
</filter>
<filter id="filter1_d_3607_3319" x="79.5" y="14" width="23" height="38" filterUnits="userSpaceOnUse" color-interpolation-filters="sRGB">
<feFlood flood-opacity="0" result="BackgroundImageFix"/>
<feColorMatrix in="SourceAlpha" type="matrix" values="0 0 0 0 0 0 0 0 0 0 0 0 0 0 0 0 0 0 127 0" result="hardAlpha"/>
<feOffset/>
<feGaussianBlur stdDeviation="2"/>
<feComposite in2="hardAlpha" operator="out"/>
<feColorMatrix type="matrix" values="0 0 0 0 0 0 0 0 0 0 0 0 0 0 0 0 0 0 0.08 0"/>
<feBlend mode="normal" in2="BackgroundImageFix" result="effect1_dropShadow_3607_3319"/>
<feBlend mode="normal" in="SourceGraphic" in2="effect1_dropShadow_3607_3319" result="shape"/>
</filter>
<filter id="filter2_d_3607_3319" x="101.146" y="19.6455" width="30.5024" height="35.9932" filterUnits="userSpaceOnUse" color-interpolation-filters="sRGB">
<feFlood flood-opacity="0" result="BackgroundImageFix"/>
<feColorMatrix in="SourceAlpha" type="matrix" values="0 0 0 0 0 0 0 0 0 0 0 0 0 0 0 0 0 0 127 0" result="hardAlpha"/>
<feOffset/>
<feGaussianBlur stdDeviation="2"/>
<feComposite in2="hardAlpha" operator="out"/>
<feColorMatrix type="matrix" values="0 0 0 0 0 0 0 0 0 0 0 0 0 0 0 0 0 0 0.08 0"/>
<feBlend mode="normal" in2="BackgroundImageFix" result="effect1_dropShadow_3607_3319"/>
<feBlend mode="normal" in="SourceGraphic" in2="effect1_dropShadow_3607_3319" result="shape"/>
</filter>
<filter id="filter3_d_3607_3319" x="50.146" y="19.6455" width="30.5024" height="35.9932" filterUnits="userSpaceOnUse" color-interpolation-filters="sRGB">
<feFlood flood-opacity="0" result="BackgroundImageFix"/>
<feColorMatrix in="SourceAlpha" type="matrix" values="0 0 0 0 0 0 0 0 0 0 0 0 0 0 0 0 0 0 127 0" result="hardAlpha"/>
<feOffset/>
<feGaussianBlur stdDeviation="2"/>
<feComposite in2="hardAlpha" operator="out"/>
<feColorMatrix type="matrix" values="0 0 0 0 0 0 0 0 0 0 0 0 0 0 0 0 0 0 0.08 0"/>
<feBlend mode="normal" in2="BackgroundImageFix" result="effect1_dropShadow_3607_3319"/>
<feBlend mode="normal" in="SourceGraphic" in2="effect1_dropShadow_3607_3319" result="shape"/>
</filter>
<linearGradient id="paint0_linear_3607_3319" x1="85.5423" y1="59.0621" x2="85.5423" y2="77.232" gradientUnits="userSpaceOnUse">
<stop stop-color="#E9E9EA"/>
<stop offset="1" stop-color="#F3F3F3"/>
</linearGradient>
</defs>
</svg>
