<svg width="121" height="120" viewBox="0 0 121 120" fill="none" xmlns="http://www.w3.org/2000/svg">
<rect width="120" height="120" transform="translate(0.5)" fill="#F1F1F1"/>
<path d="M16.2626 47.6693V26.4099H28.8725V28.5327H18.7656V35.6614H26.5597V37.7842H18.7656V45.5465H28.9676V47.6693H16.2626ZM33.6505 47.6693V26.4099H37.3891L43.5356 44.3743H43.599L49.7139 26.4099H53.4208V47.6693H50.8861V29.7049H50.7911L44.5812 47.6693H42.2366L36.0901 29.7049H35.995V47.6693H33.6505ZM58.8671 47.6693V26.4099H65.4255C67.7912 26.4099 69.5654 26.9485 70.7483 28.0257C71.9311 29.103 72.5225 30.6554 72.5225 32.6832C72.5225 34.732 71.91 36.3267 70.6849 37.4673C69.4598 38.5868 67.8123 39.1465 65.7423 39.1465H61.4017V47.6693H58.8671ZM61.4017 37.0554H65.2354C66.8618 37.0554 68.0341 36.7175 68.7522 36.0416C69.4704 35.3657 69.8295 34.299 69.8295 32.8416C69.8295 31.3208 69.4809 30.2224 68.7839 29.5465C68.0869 28.8706 66.8829 28.5327 65.172 28.5327H61.4017V37.0554ZM81.0369 47.6693V28.5327H74.5418V26.4099H90.0032V28.5327H83.5082V47.6693H81.0369ZM98.4609 47.6693V39.3049L91.4589 26.4099H94.1203L99.7916 36.9604H99.8549L105.495 26.4099H107.902L100.932 39.3049V47.6693H98.4609ZM43.8641 99.2178H41.4562V71.5267H43.8641V99.2178ZM22.0027 83.3762C22.0027 80.4191 22.6258 78.0535 23.872 76.2792C25.1394 74.5049 26.8925 73.6178 29.1314 73.6178C31.3915 73.6178 33.1446 74.5049 34.3908 76.2792C35.6582 78.0535 36.2918 80.4297 36.2918 83.4079C36.2918 86.3861 35.6582 88.7624 34.3908 90.5366C33.1446 92.3109 31.3915 93.198 29.1314 93.198C26.8925 93.198 25.1394 92.3109 23.872 90.5366C22.6258 88.7624 22.0027 86.3756 22.0027 83.3762ZM32.6483 88.9842C33.5565 87.5479 34.0106 85.6891 34.0106 83.4079C34.0106 81.1267 33.5565 79.2785 32.6483 77.8634C31.7611 76.4271 30.5889 75.7089 29.1314 75.7089C27.674 75.7089 26.5017 76.4271 25.6146 77.8634C24.7275 79.2785 24.2839 81.1267 24.2839 83.4079C24.2839 85.6891 24.7275 87.5479 25.6146 88.9842C26.5017 90.3993 27.674 91.1069 29.1314 91.1069C30.5889 91.1069 31.7611 90.3993 32.6483 88.9842ZM71.0557 99.2178H68.6478V71.5267H71.0557V99.2178ZM63.1032 92.0891H50.0181V74.3782H63.1032V92.0891ZM60.6953 90.0931V76.3743H52.4577V90.0931H60.6953ZM93.0196 90.8218L91.5304 92.6277C90.073 91.6772 88.6367 90.4205 87.2215 88.8574C85.8275 87.2733 84.9087 85.7208 84.4651 84.2C84.0215 85.8686 83.1344 87.5267 81.8037 89.1743C80.473 90.8218 78.9734 92.1842 77.3047 93.2614L75.8156 91.4871C77.9489 90.2409 79.7126 88.5089 81.1067 86.2911C82.5007 84.0521 83.1978 81.6759 83.1978 79.1624V76.3109H76.7344V74.3148H92.1641V76.3109H85.7007V79.1307C85.7007 81.5809 86.4083 83.8726 87.8235 86.0059C89.2598 88.1182 90.9918 89.7234 93.0196 90.8218ZM96.2196 71.5267H98.6275V99.2178H96.2196V71.5267Z" fill="#C7C7CA"/>
</svg>
