<svg width="20" height="20" viewBox="0 0 20 20" fill="none" xmlns="http://www.w3.org/2000/svg">
<g id="Apple Logo">
<rect width="20" height="20" fill="black"/>
<path id="path4" d="M17.7338 15.3536C17.444 16.0233 17.1009 16.6397 16.7034 17.2064C16.1615 17.9789 15.7178 18.5137 15.3759 18.8106C14.8459 19.2981 14.278 19.5477 13.6699 19.5619C13.2334 19.5619 12.7069 19.4377 12.094 19.1857C11.4792 18.9348 10.9141 18.8106 10.3975 18.8106C9.85563 18.8106 9.2745 18.9348 8.6529 19.1857C8.03036 19.4377 7.52884 19.569 7.1454 19.582C6.56226 19.6068 5.98101 19.3501 5.40082 18.8106C5.03051 18.4876 4.56733 17.934 4.01246 17.1496C3.41713 16.3119 2.92768 15.3406 2.54424 14.2332C2.13359 13.0371 1.92773 11.8789 1.92773 10.7576C1.92773 9.47308 2.20529 8.36524 2.76122 7.43686C3.19814 6.69116 3.77939 6.10293 4.50687 5.6711C5.23436 5.23927 6.0204 5.01922 6.86691 5.00514C7.33009 5.00514 7.93749 5.14841 8.6923 5.42999C9.44498 5.71251 9.92827 5.85578 10.1402 5.85578C10.2986 5.85578 10.8355 5.68826 11.7456 5.35427C12.6063 5.04454 13.3327 4.91629 13.9278 4.96681C15.5404 5.09695 16.7519 5.73262 17.5576 6.87785C16.1154 7.75168 15.402 8.97559 15.4162 10.5457C15.4292 11.7686 15.8728 12.7863 16.7448 13.5944C17.1399 13.9694 17.5812 14.2593 18.0722 14.4651C17.9657 14.7739 17.8533 15.0697 17.7338 15.3536ZM14.0355 0.800434C14.0355 1.75899 13.6853 2.65398 12.9873 3.48238C12.1449 4.46719 11.126 5.03625 10.0211 4.94646C10.0071 4.83146 9.9989 4.71043 9.9989 4.58325C9.9989 3.66304 10.3995 2.67824 11.1109 1.87302C11.4661 1.46533 11.9178 1.12634 12.4655 0.855921C13.0121 0.589536 13.5291 0.44222 14.0154 0.416992C14.0296 0.545136 14.0355 0.673287 14.0355 0.800422V0.800434Z" fill="white"/>
</g>
</svg>
