<svg width="16" height="16" viewBox="0 0 16 16" fill="none" xmlns="http://www.w3.org/2000/svg">
    <g id="Frame 35447">
        <path id="Vector 88" d="M0 14.98V1.02C0 1.00895 0.00895429 1 0.02 1H5.48948C5.49607 1 5.50223 1.00324 5.50596 1.00867L10.9198 8.88328C10.9329 8.90237 10.9625 8.8876 10.9552 8.86562L10.501 7.50308C10.5003 7.50104 10.5 7.4989 10.5 7.49675V1.02C10.5 1.00895 10.509 1 10.52 1H15.98C15.991 1 16 1.00895 16 1.02V14.98C16 14.991 15.991 15 15.98 15H10.5101C10.5038 15 10.4978 14.997 10.494 14.9918L5.06024 7.58214C5.04726 7.56445 5.01938 7.57753 5.0247 7.59882L5.4994 9.49761C5.4998 9.4992 5.5 9.50083 5.5 9.50246V14.98C5.5 14.991 5.49105 15 5.48 15H0.02C0.00895431 15 0 14.991 0 14.98Z" fill="white"/>
    </g>
</svg>