<svg width="25" height="24" viewBox="0 0 25 24" fill="none" xmlns="http://www.w3.org/2000/svg">
<path d="M10.2217 17.5352V21.7642C10.2217 21.7642 10.2217 23.8787 12.3362 23.8787C14.4507 23.8787 14.4507 21.7642 14.4507 21.7642V17.5352H10.2217Z" fill="#D13F1D"/>
<path d="M10.2217 21.7642L10.2224 21.7902C10.9561 21.7656 11.6433 21.5971 12.0775 20.8838C12.198 20.6858 12.4743 20.6858 12.5956 20.8838C13.0297 21.5964 13.717 21.7656 14.4507 21.7902V17.5352H10.2217V21.7642Z" fill="#A52B0F"/>
<path d="M22.1709 13.7424C22.1709 18.166 18.6467 18.166 18.6467 18.166H5.95972C5.95972 18.166 2.43555 18.166 2.43555 13.7424C2.43555 9.00314 5.95972 0.619141 12.3032 0.619141C18.6467 0.619141 22.1709 9.70797 22.1709 13.7424Z" fill="#D9A782"/>
<path d="M12.3354 12.6016C7.40161 12.6016 5.28711 15.0875 5.28711 17.109C5.28711 19.2496 7.02241 20.9856 9.16369 20.9856C10.295 20.9856 11.3078 20.5175 12.0176 19.0353C12.148 18.7632 12.5222 18.7632 12.6526 19.0353C13.3624 20.5175 14.3759 20.9856 15.5065 20.9856C17.6478 20.9856 19.3831 19.2496 19.3831 17.109C19.3838 15.0875 17.2693 12.6016 12.3354 12.6016Z" fill="#F4D3B5"/>
<path d="M10.2217 14.6423C9.51684 15.3471 11.6313 17.4616 12.3362 17.4616C13.041 17.4616 15.1555 15.3471 14.4507 14.6423C13.7458 13.9375 10.9265 13.9375 10.2217 14.6423ZM8.81201 11.897C8.03669 11.897 7.40234 11.2626 7.40234 10.4873V9.07764C7.40234 8.30232 8.03669 7.66797 8.81201 7.66797C9.58733 7.66797 10.2217 8.30232 10.2217 9.07764V10.4873C10.2217 11.2626 9.58733 11.897 8.81201 11.897ZM15.8603 11.897C15.085 11.897 14.4507 11.2626 14.4507 10.4873V9.07764C14.4507 8.30232 15.085 7.66797 15.8603 7.66797C16.6357 7.66797 17.27 8.30232 17.27 9.07764V10.4873C17.27 11.2626 16.6357 11.897 15.8603 11.897Z" fill="#2F3033"/>
<path d="M10.2214 1.04823C9.47502 0.0551232 7.8821 -0.873848 1.64221 1.4655C-1.27862 2.56081 0.147961 11.0541 2.42246 11.6045C3.202 11.6045 5.54205 11.6045 5.54205 5.36534C5.54205 5.21028 5.54064 5.0672 5.53853 4.92482C6.94397 2.94424 8.45936 1.92857 10.2214 1.04823ZM23.0297 1.4655C16.7898 -0.873848 15.1969 0.0551232 14.4504 1.04823C16.2125 1.92928 17.7279 2.94494 19.1334 4.92552C19.1312 5.0672 19.1298 5.21028 19.1298 5.36605C19.1298 11.6052 21.4692 11.6052 22.2494 11.6052C24.5239 11.0541 25.9505 2.56081 23.0297 1.4655Z" fill="#523928"/>
<path d="M16.2128 16.8308C16.4074 16.8308 16.5652 16.673 16.5652 16.4784C16.5652 16.2838 16.4074 16.126 16.2128 16.126C16.0181 16.126 15.8604 16.2838 15.8604 16.4784C15.8604 16.673 16.0181 16.8308 16.2128 16.8308Z" fill="#D9A782"/>
<path d="M7.75476 16.8308C7.9494 16.8308 8.10718 16.673 8.10718 16.4784C8.10718 16.2838 7.9494 16.126 7.75476 16.126C7.56013 16.126 7.40234 16.2838 7.40234 16.4784C7.40234 16.673 7.56013 16.8308 7.75476 16.8308Z" fill="#D9A782"/>
<path d="M17.6219 18.24C17.8166 18.24 17.9744 18.0822 17.9744 17.8876C17.9744 17.6929 17.8166 17.5352 17.6219 17.5352C17.4273 17.5352 17.2695 17.6929 17.2695 17.8876C17.2695 18.0822 17.4273 18.24 17.6219 18.24Z" fill="#D9A782"/>
<path d="M7.04968 18.24C7.24432 18.24 7.4021 18.0822 7.4021 17.8876C7.4021 17.6929 7.24432 17.5352 7.04968 17.5352C6.85505 17.5352 6.69727 17.6929 6.69727 17.8876C6.69727 18.0822 6.85505 18.24 7.04968 18.24Z" fill="#D9A782"/>
<path d="M15.8601 18.9448C16.2494 18.9448 16.5649 18.6293 16.5649 18.24C16.5649 17.8507 16.2494 17.5352 15.8601 17.5352C15.4708 17.5352 15.1553 17.8507 15.1553 18.24C15.1553 18.6293 15.4708 18.9448 15.8601 18.9448Z" fill="#D9A782"/>
<path d="M8.81128 18.9448C9.20055 18.9448 9.51611 18.6293 9.51611 18.24C9.51611 17.8507 9.20055 17.5352 8.81128 17.5352C8.42201 17.5352 8.10645 17.8507 8.10645 18.24C8.10645 18.6293 8.42201 18.9448 8.81128 18.9448Z" fill="#D9A782"/>
<path d="M6.61522 3.60266C6.43267 3.12831 6.16835 2.61801 5.78633 2.23599C5.51074 1.9604 5.06529 1.9604 4.7897 2.23599C4.51411 2.51158 4.51411 2.95703 4.7897 3.23262C5.19146 3.63438 5.54105 4.59577 5.54246 4.88616C5.64466 4.60141 6.13382 4.07561 6.61522 3.60266ZM18.0455 3.60266C18.2281 3.12901 18.4924 2.61801 18.8744 2.23599C19.15 1.9604 19.5954 1.9604 19.871 2.23599C20.1466 2.51158 20.1466 2.95703 19.871 3.23262C19.4693 3.63438 19.1197 4.59577 19.1183 4.88616C19.0161 4.60141 18.5269 4.07561 18.0455 3.60266Z" fill="#3E200B"/>
</svg>
