<svg width="22" height="23" viewBox="0 0 22 23" fill="none" xmlns="http://www.w3.org/2000/svg">
<path d="M10.1397 0C3.987 0 0.898526 3.99483 0.176776 6.94907C-0.35159 9.11196 0.449455 11.6374 0.693814 14.3998C0.909854 16.8516 2.33879 18.9101 3.80333 19.3268C5.90951 21.9841 8.14839 21.87 11.9084 21.87C19.2497 21.87 22 16.3823 22 10.0732C21.9992 5.25065 18.5992 0 10.1397 0Z" fill="#2F3033"/>
<path d="M19.1544 10.5878C18.4439 9.6039 17.5345 8.81254 15.5408 8.53176C16.2884 8.87403 17.0045 10.0578 17.0983 10.7124C17.1922 11.3671 17.2853 11.8962 16.6938 11.2424C14.3222 8.62157 11.7402 9.65325 9.18175 8.05273C7.39437 6.93447 6.84982 5.69727 6.84982 5.69727C6.84982 5.69727 6.63216 7.34795 3.92156 9.03101C3.13588 9.51893 2.1989 10.6048 1.67863 12.2086C1.304 13.3608 1.34607 14.0753 1.43832 14.8869C2.39472 20.0574 5.90718 22.9761 10.8534 22.9761C15.7948 22.9761 19.3024 20.64 20.2621 15.23C20.2799 14.997 20.2985 14.7639 20.2985 14.5268C20.2985 12.5031 19.9643 11.7093 19.1544 10.5878Z" fill="#F6DFD3"/>
<path d="M14.6611 16.7407C14.348 16.4276 13.9086 16.5854 13.5251 16.7326C13.1416 16.8807 12.2685 17.3128 10.8525 17.3128C9.43654 17.3128 8.56348 16.8807 8.17995 16.7326C7.79642 16.5846 7.35706 16.4276 7.04392 16.7407C6.72755 17.0571 6.72755 17.5685 7.04392 17.8849C7.15073 17.9925 8.61041 18.9311 10.8525 18.9311C13.0946 18.9311 14.5543 17.9925 14.6611 17.8849C14.9775 17.5685 14.9775 17.0571 14.6611 16.7407ZM11.6617 15.6945H10.0434C9.59675 15.6945 9.23425 15.3328 9.23425 14.8853C9.23425 14.4379 9.59675 14.0762 10.0434 14.0762H11.6617C12.1091 14.0762 12.4708 14.4379 12.4708 14.8853C12.4708 15.3328 12.1091 15.6945 11.6617 15.6945Z" fill="#ECAA9B"/>
<path d="M7.61578 14.0759C7.16913 14.0759 6.80664 13.7142 6.80664 13.2668V12.4576C6.80664 12.0109 7.16913 11.6484 7.61578 11.6484C8.06242 11.6484 8.42491 12.0109 8.42491 12.4576V13.2668C8.42491 13.7142 8.06242 14.0759 7.61578 14.0759ZM14.0889 14.0759C13.6414 14.0759 13.2797 13.7142 13.2797 13.2668V12.4576C13.2797 12.0109 13.6414 11.6484 14.0889 11.6484C14.5363 11.6484 14.898 12.0109 14.898 12.4576V13.2668C14.898 13.7142 14.5363 14.0759 14.0889 14.0759Z" fill="#2F3033"/>
</svg>
