<svg width="26" height="26" viewBox="0 0 26 26" fill="none" xmlns="http://www.w3.org/2000/svg">
<path d="M8.32867 17.6686L18.1392 18.5294C18.3796 18.5505 18.5937 18.3715 18.6148 18.131L18.6174 18.1047C18.6385 17.8643 18.4586 17.6502 18.2181 17.6291L8.40765 16.7683C8.16721 16.7472 7.9531 16.9262 7.93204 17.1675L7.92941 17.1939C7.90835 17.4334 8.08824 17.6475 8.32867 17.6686Z" fill="#D9D9DA"/>
<path d="M18.139 18.5296L18.1126 18.5269C17.8722 18.5059 17.6932 18.2918 17.7134 18.0513L18.11 13.5225C18.1311 13.2821 18.3452 13.1031 18.5856 13.1233L18.6119 13.1259C18.8524 13.147 19.0314 13.3611 19.0112 13.6015L18.6146 18.1303C18.5935 18.3707 18.3794 18.5506 18.139 18.5296ZM8.43202 11.6772L8.40569 11.6745C8.16526 11.6535 7.95115 11.8334 7.93009 12.0729L7.01047 22.5827C6.98941 22.8232 7.16929 23.0373 7.40973 23.0583L7.43605 23.061C7.67649 23.082 7.8906 22.9021 7.91166 22.6626L8.83128 12.1528C8.85147 11.9123 8.67246 11.6982 8.43202 11.6772Z" fill="#D9D9DA"/>
<path d="M17.433 11.7945C18.7273 11.6085 19.9945 11.6612 19.5531 12.2859C19.1108 12.9116 18.1289 14.0085 16.4634 13.8295C14.797 13.6505 16.631 11.9095 17.433 11.7945Z" fill="#797A81"/>
<path d="M16.4627 13.8285L7.4578 13.0405C6.55748 12.9615 6.55749 12.9615 6.63646 12.0612C6.67946 11.5663 7.12084 11.196 7.61575 11.2399L16.6207 12.0279C17.1156 12.0709 17.4859 12.5122 17.442 13.0071C17.3639 13.9066 17.3639 13.9066 16.4627 13.8285Z" fill="#797A81"/>
<path d="M16.9398 14.0957L7.00824 13.227C6.7678 13.2059 6.58879 12.9918 6.60897 12.7514L6.61161 12.725C6.63267 12.4846 6.84678 12.3056 7.08721 12.3258L17.0188 13.1945C17.2592 13.2156 17.4382 13.4297 17.4181 13.6701L17.4154 13.6964C17.3944 13.9369 17.1802 14.1167 16.9398 14.0957Z" fill="#D9D9DA"/>
<path d="M20.8265 1.72598L20.0385 10.7309C19.9596 11.6312 19.9596 11.6312 19.0592 11.5522C18.5643 11.5092 18.194 11.0679 18.2379 10.5729L19.0259 1.56803C19.0689 1.07312 19.5103 0.702819 20.0052 0.746694C20.9055 0.825669 20.9055 0.825669 20.8265 1.72598Z" fill="#797A81"/>
<path d="M21.2217 1.29815L20.3529 11.2297C20.3319 11.4701 20.1178 11.6491 19.8773 11.629L19.851 11.6263C19.6106 11.6053 19.4316 11.3912 19.4517 11.1507L20.3205 1.21917C20.3415 0.978739 20.5556 0.799729 20.7961 0.819911L20.8224 0.822544C21.0628 0.844481 21.2427 1.05771 21.2217 1.29815Z" fill="#D9D9DA"/>
<path d="M18.4247 9.91983L11.5978 9.32225C10.9151 9.26258 10.9151 9.26258 10.9738 8.58866C11.0063 8.21747 11.3398 7.94106 11.7153 7.97441L18.5423 8.57198C18.9179 8.60445 19.1987 8.93527 19.1662 9.30557C19.1074 9.9795 19.1074 9.9795 18.4247 9.91983Z" fill="#797A81"/>
<path d="M16.5564 13.153C17.4646 13.2329 19.2582 13.3891 19.4943 10.6882C19.7303 7.9872 20.6315 8.0653 20.3946 10.7671C20.1577 13.469 18.6694 14.2455 16.4774 14.0542C14.6768 13.8963 14.7549 12.996 16.5564 13.153ZM7.11097 12.3273C8.91248 12.4774 9.48618 13.6623 7.68555 13.5C6.8879 13.428 6.84195 13.6329 6.68601 14.2271C6.5149 14.8791 5.0503 20.6311 4.68614 22C4.41938 23.0056 4.54165 17.8705 4.76278 16.9939C5.13396 15.5205 5.48409 14.2368 5.71311 13.4207C5.94741 12.5871 6.16678 12.2483 7.11097 12.3273Z" fill="#D9D9DA"/>
<path d="M18.3167 19.3951C19.0654 19.3951 19.6724 18.7881 19.6724 18.0393C19.6724 17.2906 19.0654 16.6836 18.3167 16.6836C17.5679 16.6836 16.9609 17.2906 16.9609 18.0393C16.9609 18.7881 17.5679 19.3951 18.3167 19.3951Z" fill="#B2B2B5"/>
<path d="M24.4144 21.0386L18.9344 17.8743L22.0987 12.3943L21.3159 11.9424L18.1516 17.4224L12.6716 14.259L12.2197 15.0417L17.6997 18.2051L14.5363 23.6851L15.3191 24.137L18.4825 18.657L23.9625 21.8213L24.4144 21.0386Z" fill="#B2B2B5"/>
<path d="M20.508 24.4707L18.8706 18.3589L24.9824 16.7215L24.7481 15.8484L18.6363 17.4858L16.9989 11.374L16.1258 11.6074L17.7632 17.7201L11.6514 19.3575L11.8848 20.2306L17.9975 18.5932L19.6349 24.705L20.508 24.4707Z" fill="#B2B2B5"/>
<path d="M18.3162 10.3555C14.0726 10.3555 10.6328 13.7953 10.6328 18.0389C10.6328 22.2825 14.0726 25.7223 18.3162 25.7223C22.5598 25.7223 25.9996 22.2825 25.9996 18.0389C25.9996 13.7953 22.5598 10.3555 18.3162 10.3555ZM18.3162 23.9146C15.0712 23.9146 12.4405 21.2839 12.4405 18.0389C12.4405 14.7939 15.0712 12.1631 18.3162 12.1631C21.5612 12.1631 24.192 14.7939 24.192 18.0389C24.192 21.2839 21.5612 23.9146 18.3162 23.9146Z" fill="#797A81"/>
<path d="M18.3158 11.2598C14.5715 11.2598 11.5363 14.295 11.5363 18.0393C11.5363 21.7836 14.5715 24.8189 18.3158 24.8189C22.0601 24.8189 25.0954 21.7836 25.0954 18.0393C25.0954 14.295 22.0601 11.2598 18.3158 11.2598ZM18.3158 23.9151C15.0708 23.9151 12.4401 21.2843 12.4401 18.0393C12.4401 14.7943 15.0708 12.1636 18.3158 12.1636C21.5608 12.1636 24.1916 14.7943 24.1916 18.0393C24.1916 21.2843 21.5608 23.9151 18.3158 23.9151ZM10.0427 23.5237L8.08591 22.3935L9.21526 20.4367L8.43252 19.9848L7.30318 21.9416L5.34547 20.8114L4.89355 21.5941L6.85126 22.7243L5.72104 24.6811L6.50377 25.133L7.634 23.1762L9.59083 24.3064L10.0427 23.5237Z" fill="#B2B2B5"/>
<path d="M7.46906 19.3945C5.72195 19.3945 4.30566 20.8108 4.30566 22.5579C4.30566 24.305 5.72195 25.7222 7.46906 25.7222C9.21617 25.7222 10.6325 24.3059 10.6325 22.5588C10.6325 20.8117 9.21617 19.3945 7.46906 19.3945ZM7.46906 24.8184C6.22125 24.8184 5.20949 23.8066 5.20949 22.5588C5.20949 21.311 6.22125 20.2992 7.46906 20.2992C8.71687 20.2992 9.72863 21.311 9.72863 22.5588C9.72951 23.8066 8.71775 24.8184 7.46906 24.8184Z" fill="#797A81"/>
<path d="M5.48249 16.1098L5.45704 16.1027C5.22363 16.0404 4.98232 16.18 4.92001 16.4134L3.50899 21.6775C3.44669 21.9109 3.58621 22.1522 3.81962 22.2145L3.84507 22.2216C4.07849 22.2839 4.3198 22.1443 4.3821 21.9109L5.79313 16.6468C5.85455 16.4143 5.71503 16.1729 5.48249 16.1098Z" fill="#D9D9DA"/>
<path d="M3.84339 22.223L0.325484 21.2805C0.0920682 21.2182 -0.0474546 20.976 0.0148481 20.7435L0.0218681 20.7181C0.0841708 20.4846 0.326361 20.3451 0.5589 20.4074L4.07681 21.3499C4.31022 21.4122 4.44975 21.6544 4.38744 21.8869L4.38042 21.9123C4.319 22.1458 4.07681 22.2853 3.84339 22.223Z" fill="#B2B2B5"/>
<path d="M23.3943 2.19405L20.6977 1.71844C20.4599 1.67632 20.3002 1.44817 20.3414 1.21037L20.3458 1.18404C20.388 0.94624 20.6161 0.786534 20.8539 0.827777L23.5505 1.30338C23.7883 1.3455 23.948 1.57365 23.9067 1.81146L23.9024 1.83778C23.8602 2.07646 23.6312 2.23617 23.3943 2.19405Z" fill="#D9D9DA"/>
<path d="M24.2714 2.34887L21.9074 1.92592C21.6626 1.88292 21.6722 1.67758 21.7152 1.43276C21.7582 1.18794 21.8196 0.992255 22.0644 1.03525L24.4284 1.45821C24.6733 1.50121 24.8382 1.73725 24.7952 1.98208C24.7522 2.2269 24.5162 2.39187 24.2714 2.34887Z" fill="#797A81"/>
</svg>
