<svg width="24" height="26" viewBox="0 0 24 26" fill="none" xmlns="http://www.w3.org/2000/svg">
<path d="M13.8443 16.312C11.8158 16.0639 10.9245 14.9237 9.14182 12.6471C11.42 10.8659 12.5594 9.97461 14.5887 10.222C16.6202 10.4709 18.5242 11.7333 19.2911 13.8869C18.0295 15.7933 15.875 16.5579 13.8443 16.312ZM9.37721 22.9193C7.4664 22.7791 6.57883 21.7551 4.80595 19.7048C6.85619 17.9327 7.88094 17.0459 9.79251 17.1831C11.7048 17.3218 13.5474 18.4155 14.3638 20.3968C13.2701 22.2394 11.2903 23.0565 9.37721 22.9193ZM4.71449 11.1448C5.7175 12.3674 5.60731 13.4814 5.38766 15.7086C3.16125 15.4882 2.0473 15.3787 1.04354 14.1561C0.0397831 12.9312 -0.351525 11.2063 0.370371 9.5923C2.09528 9.19949 3.71073 9.92139 4.71449 11.1448ZM20.5437 7.06079C18.7184 7.82542 17.4253 7.29618 14.8368 6.23844C15.8945 3.64996 16.4245 2.35535 18.2469 1.58847C20.0715 0.823097 22.2784 0.969275 23.9531 2.41007C23.8076 4.61699 22.3661 6.29392 20.5437 7.06079ZM10.9852 4.39735C11.6404 6.54804 10.8922 7.9521 9.3967 10.7602C6.58933 9.26396 5.18451 8.51583 4.52858 6.36438C3.87191 4.21144 4.29245 1.73165 6.11631 0C8.59609 0.420544 10.3285 2.24365 10.9852 4.39735Z" fill="#B2B2B5"/>
<path d="M4.52816 6.36446C5.17435 8.48443 6.55367 9.2453 9.27934 10.6981V10.6943C9.22686 8.80452 7.23059 2.54134 6.08065 0.0390625C4.28978 1.76922 3.87598 4.22726 4.52816 6.36446ZM0.336216 9.68459C-0.330957 11.2723 0.0581022 12.9545 1.04312 14.1561C2.04763 15.3795 3.16158 15.4882 5.38724 15.7086C4.63986 14.2566 1.7058 10.92 0.336216 9.68459Z" fill="#D9D9DA"/>
<path d="M14.5891 10.2218C12.6678 9.98793 11.5329 10.784 9.48564 12.38C10.7945 12.4587 16.0719 12.9385 19.2758 13.907C19.2803 13.8995 19.2871 13.8943 19.2916 13.8868C18.5247 11.7331 16.6206 10.4707 14.5891 10.2218ZM14.3613 20.3906C13.5434 18.4138 11.7038 17.3216 9.79299 17.1829C7.91891 17.0487 6.89191 17.9033 4.92188 19.6057C6.99611 19.3771 10.8477 18.9535 14.3613 20.3906Z" fill="#9B9C9F"/>
<path d="M14.9717 6.29347C17.4657 7.31222 18.7521 7.81073 20.543 7.0611C22.3563 6.29797 23.7904 4.63304 23.9478 2.44336C21.0077 3.01383 16.1583 5.55434 14.9717 6.29347Z" fill="#D9D9DA"/>
<path d="M1.72526 25.7271C1.28748 25.6589 0.703515 25.1042 0.770982 24.6656C1.18028 21.9954 2.91343 15.5441 14.4878 6.10848C14.8311 5.82737 15.2194 5.61447 15.5103 5.94956C15.8034 6.28464 15.4713 6.66171 15.1369 6.95331C5.17582 15.6266 3.50714 22.4962 3.12558 24.9932C3.05736 25.4318 2.1638 25.7931 1.72526 25.7271Z" fill="#C7C7CA"/>
</svg>
