<svg width="24" height="24" viewBox="0 0 24 24" fill="none" xmlns="http://www.w3.org/2000/svg">
<path d="M22.3991 6.79994C22.3991 9.67217 17.7431 12.0002 11.9994 12.0002C6.25561 12.0002 1.59961 9.67217 1.59961 6.79994C1.59961 3.9277 2.39937 0.706055 11.9994 0.706055C21.5994 0.706055 22.3991 3.9277 22.3991 6.79994Z" fill="#C7C7CA"/>
<path d="M22.0002 8.79953C21.7758 8.79953 21.5633 8.87224 21.3621 8.98165C20.4021 3.60565 16.5784 0 12 0C7.42094 0 3.59788 3.60565 2.63788 8.98165C2.43671 8.87294 2.22424 8.80024 1.99976 8.80024C0.895765 8.79953 0 10.2332 0 12C0 13.7675 0.895765 15.1998 1.99976 15.1998C2.26871 15.1998 2.52424 15.1122 2.75859 14.9584C3.88447 20.1699 7.59035 24 12 24C16.4096 24 20.1155 20.1699 21.2407 14.9576C21.4751 15.1122 21.7313 15.1998 22.0002 15.1998C23.1042 15.1998 24 13.7675 24 12C24 10.2332 23.1042 8.79953 22.0002 8.79953Z" fill="#E9E9EA"/>
<path d="M7.20049 12.706C6.94143 12.706 6.69226 12.5627 6.56873 12.3157C6.39437 11.967 6.53626 11.5427 6.88426 11.3684L8.48449 10.5686C8.8339 10.3942 9.25743 10.5368 9.43179 10.8841C9.60614 11.2328 9.46426 11.6571 9.11626 11.8314L7.51602 12.6312C7.41437 12.682 7.30637 12.706 7.20049 12.706ZM16.7991 12.706C16.6932 12.706 16.5852 12.682 16.4843 12.6319L14.884 11.8321C14.5353 11.6578 14.3941 11.2335 14.5685 10.8848C14.7421 10.5368 15.1678 10.3942 15.5158 10.5693L17.116 11.3691C17.4647 11.5434 17.6059 11.9677 17.4316 12.3164C17.308 12.5627 17.0581 12.706 16.7991 12.706Z" fill="#797A81"/>
<path d="M17.6475 9.17641H15.5298C15.1395 9.17641 14.8239 8.86018 14.8239 8.47053C14.8239 8.08088 15.1395 7.76465 15.5298 7.76465H17.6475C18.0378 7.76465 18.3533 8.08088 18.3533 8.47053C18.3533 8.86018 18.0378 9.17641 17.6475 9.17641ZM8.47099 9.17641H6.35334C5.9637 9.17641 5.64746 8.86018 5.64746 8.47053C5.64746 8.08088 5.9637 7.76465 6.35334 7.76465H8.47099C8.86064 7.76465 9.17687 8.08088 9.17687 8.47053C9.17687 8.86018 8.86064 9.17641 8.47099 9.17641Z" fill="#C7C7CA"/>
<path d="M11.9996 20.7055C10.2532 20.7055 8.55556 19.8669 8.48356 19.8316C8.13556 19.6573 7.99438 19.2345 8.16803 18.8858C8.34167 18.5364 8.76662 18.3973 9.11391 18.5681C9.12873 18.5759 10.592 19.2938 11.9989 19.2938C13.4163 19.2938 14.8683 18.5759 14.8831 18.5688C15.2311 18.3966 15.6567 18.5356 15.8304 18.8844C16.0047 19.2331 15.8636 19.6573 15.5149 19.8316C15.4436 19.8676 13.7466 20.7055 11.9996 20.7055ZM12.7054 16.9411H11.2937C10.904 16.9411 10.5878 16.6255 10.5878 16.2352C10.5878 15.8448 10.904 15.5293 11.2937 15.5293H12.7054C13.0958 15.5293 13.4113 15.8448 13.4113 16.2352C13.4113 16.6255 13.0958 16.9411 12.7054 16.9411Z" fill="#B2B2B5"/>
</svg>
