<svg width="24" height="24" viewBox="0 0 24 24" fill="none" xmlns="http://www.w3.org/2000/svg">
<path d="M12 24C18.6274 24 24 18.6274 24 12C24 5.37258 18.6274 0 12 0C5.37258 0 0 5.37258 0 12C0 18.6274 5.37258 24 12 24Z" fill="#1D7FC8"/>
<path d="M1.87467 16.9173C1.83333 16.2506 1.83333 16.1259 1.83333 15.3339C1.83333 14.5419 2.208 14.6673 2.58333 14.2926C2.95867 13.9179 2.87533 13.8759 3.5 13.4653C4.12467 13.0546 3.792 12.5846 3.75 12.3346C3.708 12.0846 3.33333 12.2926 2.708 12.3753C2.08267 12.4579 2.292 12.1673 1.91667 12.0006C1.54133 11.8339 1.37533 11.5839 1.12467 10.8339C0.874 10.0839 0.832667 9.87527 0.916667 9.2506C1.00067 8.62593 1.292 9.2086 1.33333 9.87527C1.37467 10.5419 1.95867 10.2919 1.95867 10.7086C1.95867 11.1253 2.792 11.5833 3 11.7086C3.208 11.8339 3.792 11.0833 4 10.8753C4.208 10.6673 4.45867 10.3753 4.54133 10.2086C4.624 10.0419 5.66667 9.9166 5.87467 9.9166C6.08267 9.9166 6.58267 10.5419 6.58267 10.8333C6.58267 11.1246 6.83267 11.9166 7.04133 12.3746C7.25 12.8326 7.708 12.9159 8.12467 13.2493C8.54133 13.5826 8.75 13.2906 8.75 13.2906C8.75 13.2906 8.58333 12.5826 8.58333 11.9986C8.58333 11.4146 9.08333 10.9153 9.08333 10.9153C9.08333 10.9153 9.87533 11.4986 9.91667 11.6653C9.958 11.8319 10.5833 12.4153 10.6247 12.7066C10.666 12.9979 10.9993 13.3733 11.6133 13.4566C12.2273 13.5399 11.7913 12.7486 11.9993 12.2066C12.2073 11.6646 12.4993 11.5813 12.874 11.4986C13.2487 11.4159 13.5407 11.0819 13.7907 10.7486C14.0407 10.4153 14.4987 9.9566 14.4573 9.58193C14.416 9.20727 14.2907 8.9566 14.124 8.4986C13.9573 8.0406 14.624 7.87327 14.916 7.33193C15.208 6.7906 14.916 7.33193 15.5827 7.16527C16.2493 6.9986 15.9573 6.9986 16.0827 6.7486C16.208 6.4986 16.2907 6.2486 16.166 5.78993C16.0413 5.33127 15.5827 5.78993 15.1247 5.78993C14.6667 5.78993 15.292 5.16727 15.3333 4.66727C15.3747 4.16727 15.9587 4.2926 16.3747 4.2506C16.7907 4.2086 16.916 4.79193 17.0413 4.91727C17.1667 5.0426 18.458 4.08393 18.7913 3.62527C19.1247 3.1666 18.5 3.2926 18.6667 3.09927C18.8333 2.90593 17.6667 2.8666 17.208 2.7926C16.7493 2.7186 15.5833 2.66727 15.1253 2.3846C14.6673 2.10193 12.9173 2.31527 12.4587 2.5426C12 2.76993 11.7087 2.52327 11.5 2.20927C11.2913 1.89527 10.4167 2.0526 10.1667 1.87593C9.91667 1.69927 9.66667 2.16727 9.33333 2.2926C9 2.41793 8.87467 2.45927 8.45867 2.20927C8.04267 1.95927 8.58333 1.66727 8 1.45927C7.60933 1.31993 7.14133 1.40127 6.41333 1.38527C2.60133 3.39527 0 7.39193 0 12.0006C0 14.2806 0.647333 16.4039 1.75133 18.2186C1.95667 17.8733 1.90533 17.4073 1.87467 16.9173ZM11.5413 16.1259C11.8333 16.1673 12.6667 16.1259 12 15.5846C11.3333 15.0433 10.9587 15.4593 11.0413 14.8346C11.124 14.2099 10.6247 14.2093 10.6247 14.2093C10.6247 14.6679 10.2913 15.1679 10.6247 15.6259C10.958 16.0839 11.25 16.0839 11.5413 16.1259Z" fill="#9BD279"/>
<path d="M15.7914 9.16635C15.1248 8.62502 15.6248 8.79168 15.7081 8.16635C15.7914 7.54102 15.2914 7.54102 15.2914 7.54102C15.2914 7.99968 14.9581 8.49968 15.2914 8.95768C15.6248 9.41568 14.6248 9.79102 14.9168 9.83235C15.2088 9.87368 16.4581 9.70768 15.7914 9.16635ZM13.2048 15.6663C13.6181 16.125 13.4581 15.6663 13.9994 15.4583C14.5408 15.2503 13.5408 14.7917 13.2074 14.5417C12.8741 14.2917 12.5428 14.2823 12.2514 14.8337C11.9208 15.4583 12.7914 15.2077 13.2048 15.6663ZM18.0828 16.4997C17.8748 16.2497 17.4161 16.125 16.9161 16.1363C16.4161 16.1483 16.4574 15.583 15.9574 15.6243C15.4574 15.6657 15.1001 15.2883 14.8741 15.1717C14.3828 14.9183 14.7074 15.499 14.8741 16.1357C15.0408 16.7723 15.6661 16.2903 16.2488 16.6237C16.8314 16.957 16.8741 16.4983 17.4154 16.665C17.9568 16.8317 18.1654 17.2063 18.6848 17.165C19.2041 17.1237 18.2914 16.7497 18.0828 16.4997ZM16.9994 18.333C16.7914 17.9163 16.1821 17.541 15.9321 17.3297C15.6821 17.1183 15.2908 17.047 14.9574 17.1697C14.6241 17.2923 14.4161 17.1697 14.2494 16.8397C14.0828 16.5097 13.7908 16.625 13.5414 16.6663C13.2921 16.7077 12.2914 17.125 11.7081 17.4163C11.1248 17.7077 10.8594 17.961 10.4768 18.333C9.87811 18.9157 10.2081 18.541 10.4768 18.9163C10.7454 19.291 10.1821 20.4577 10.1408 21.1243C10.0994 21.791 11.2088 20.9163 11.6254 20.8323C12.0421 20.7483 11.9194 20.499 12.2528 20.249C12.5861 19.999 12.8028 19.9403 13.1688 20.2737C13.5348 20.607 14.0141 20.9157 14.0141 21.2903C14.0141 21.665 15.3334 22.2903 15.8334 22.0403C16.3334 21.7903 16.6254 21.2903 17.0834 20.8737C17.5414 20.457 17.3754 19.6657 17.5001 19.1657C17.6248 18.6657 17.2074 18.7497 16.9994 18.333Z" fill="#9BD279"/>
</svg>
