<svg width="24" height="25" viewBox="0 0 24 25" fill="none" xmlns="http://www.w3.org/2000/svg">
<path d="M19.7648 14.1819V12.7962C20.4707 12.0692 21.8218 10.7562 22.1585 9.07412C22.2587 9.12988 22.1973 9.16588 22.3088 9.16588C22.8439 9.16588 23.1954 8.472 23.1954 7.61506C23.1954 6.77223 22.7323 6.08965 22.2079 6.06847C22.3088 5.70424 22.3575 5.21718 22.3575 4.59176C22.3575 2.50518 20.5582 0 16.5319 0C12.9545 0 10.7126 2.50518 10.7126 4.59176C10.7126 5.19741 10.7486 5.69435 10.8128 6.07906C10.3208 6.15318 9.93259 6.80824 9.93259 7.61435C9.93259 8.47129 10.366 9.16518 10.9018 9.16518C11.0126 9.16518 10.8531 9.12918 10.9526 9.07341C11.2893 10.7562 12.706 12.0685 13.4119 12.7962V14.1C10.5884 14.4473 8.4707 15.9551 8.4707 17.4635V18.0353C8.4707 18.6085 9.05164 18.6085 9.62411 18.6085H22.8453C23.4192 18.6085 24.0001 18.6085 24.0001 18.0353V17.4635C24.0001 16.0511 21.8825 14.6421 19.7648 14.1819Z" fill="#AFC7DA"/>
<path d="M11.2941 19.8293V18.4437C12 17.7166 13.3511 16.4037 13.6878 14.7216C13.788 14.7773 13.7266 14.8133 13.8381 14.8133C14.3732 14.8133 14.7247 14.1195 14.7247 13.2625C14.7247 12.4197 14.2616 11.7371 13.7372 11.7159C13.8381 11.3517 13.8868 10.8646 13.8868 10.2392C13.8868 8.15264 12.0875 5.64746 8.06118 5.64746C4.48306 5.64746 2.24188 8.15264 2.24188 10.2392C2.24188 10.8449 2.27788 11.3418 2.34212 11.7265C1.85012 11.8006 1.46188 12.4557 1.46188 13.2618C1.46188 14.1188 1.89529 14.8126 2.43106 14.8126C2.54188 14.8126 2.38235 14.7766 2.48188 14.7209C2.81859 16.4037 4.23529 17.7159 4.94118 18.4437V19.7475C2.11765 20.0948 0 21.6025 0 23.111V23.6835C0 24.2559 0.580941 24.2559 1.15341 24.2559H14.3746C14.9485 24.2559 15.5294 24.2559 15.5294 23.6828V23.1103C15.5294 21.6985 13.4118 20.2896 11.2941 19.8293Z" fill="#5A7C95"/>
</svg>
