<svg width="24" height="22" viewBox="0 0 24 22" fill="none" xmlns="http://www.w3.org/2000/svg">
<path d="M0.918926 14.6852C0.64132 14.6852 0.416016 14.9105 0.416016 15.1881C0.416016 15.4664 0.64132 15.6911 0.918926 15.6911H12.9888V14.6852H0.918926ZM23.4969 9.35059H15.1151V10.3565H23.4969C23.7745 10.3565 23.9998 10.1312 23.9998 9.85353C23.9998 9.57524 23.7752 9.35059 23.4969 9.35059Z" fill="#523D2F"/>
<path d="M15.4551 4.39939L19.3054 0.548828L23.1563 4.39939V9.3504H15.4551V4.39939Z" fill="#EABE53"/>
<path d="M23.1557 4.95034C23.0149 4.95034 22.8741 4.89669 22.7668 4.78939L19.3054 1.32778L15.844 4.78939C15.6295 5.00399 15.2808 5.00399 15.0662 4.78939C14.8516 4.5748 14.8516 4.22609 15.0662 4.0115L18.9165 0.160943C19.1311 -0.0536477 19.4797 -0.0536477 19.6943 0.160943L23.5446 4.0115C23.7592 4.22609 23.7592 4.5748 23.5446 4.78939C23.4366 4.89602 23.2958 4.95034 23.1557 4.95034Z" fill="#523D2F"/>
<path d="M18.2051 5.5H20.4051V9.35056H18.2051V5.5Z" fill="#662113"/>
<path d="M16.5566 5.5H17.657V6.60045H16.5566V5.5ZM20.9568 5.5H22.0571V6.60045H20.9568V5.5ZM20.9568 7.15034H22.0571V8.25078H20.9568V7.15034Z" fill="#3B88C3"/>
<path d="M6.95349 1.47363L1.39062 7.0369V14.6864H12.5163V7.0369L6.95349 1.47363Z" fill="#EABE53"/>
<path d="M13.2116 8.42666C13.0339 8.42666 12.8556 8.35893 12.7201 8.2228L6.95341 2.45568L1.1867 8.2228C0.91513 8.49439 0.47525 8.49439 0.203679 8.2228C-0.0678929 7.95121 -0.0678929 7.5113 0.203679 7.23971L6.4619 0.981037C6.73347 0.709446 7.17335 0.709446 7.44492 0.981037L13.7031 7.23971C13.9747 7.5113 13.9747 7.95121 13.7031 8.2228C13.5677 8.35826 13.39 8.42666 13.2116 8.42666Z" fill="#523D2F"/>
<path d="M5.56348 8.42676H8.34491V14.6854H5.56348V8.42676Z" fill="#662113"/>
<path d="M2.78027 8.42676H4.86635V10.513H2.78027V8.42676ZM2.78027 11.2084H4.86635V13.2946H2.78027V11.2084Z" fill="#3B88C3"/>
<path d="M14.2896 3.60449L7.2334 10.684V20.4204H21.3457V10.684L14.2896 3.60449Z" fill="#F7E8C8"/>
<path d="M22.016 20.0801H6.5934C6.22326 20.0801 5.92285 20.3812 5.92285 20.7527C5.92285 21.1242 6.22326 21.4253 6.5934 21.4253H22.016C22.3861 21.4253 22.6865 21.1242 22.6865 20.7527C22.6865 20.3812 22.3861 20.0801 22.016 20.0801Z" fill="#816652"/>
<path d="M13.9688 10.6865H14.6393V20.0749H13.9688V10.6865Z" fill="#EABE53"/>
<path d="M9.27441 16.0518H11.9566V20.0753H9.27441V16.0518Z" fill="#C1694F"/>
<path d="M9.27441 11.3574H11.9566V14.0398H9.27441V11.3574ZM16.6504 11.3574H19.3326V14.0398H16.6504V11.3574ZM16.6504 16.0516H19.3326V18.734H16.6504V16.0516Z" fill="#4C80A7"/>
<path d="M13.9686 11.0915C13.7969 11.0915 13.6252 11.0258 13.4945 10.895C13.2323 10.6328 13.2323 10.209 13.4945 9.94676L17.853 5.58789L18.8012 6.53611L14.4426 10.895C14.3119 11.0264 14.1402 11.0915 13.9686 11.0915Z" fill="#816652"/>
<path d="M21.9384 11.0909C21.7607 11.0909 21.5823 11.0232 21.4469 10.8871L14.2894 3.72911L7.13201 10.8871C6.86044 11.1586 6.42056 11.1586 6.14899 10.8871C5.87742 10.6155 5.87742 10.1756 6.14899 9.90396L13.7979 2.25447C14.0695 1.98288 14.5094 1.98288 14.7809 2.25447L22.4299 9.90396C22.7015 10.1756 22.7015 10.6155 22.4299 10.8871C22.2944 11.0232 22.1167 11.0909 21.9384 11.0909Z" fill="#816652"/>
</svg>
