<svg width="24" height="25" viewBox="0 0 24 25" fill="none" xmlns="http://www.w3.org/2000/svg">
<path d="M20.8994 16.4334C23.9053 19.3449 23.9373 24.5688 23.1769 24.5688C22.4165 24.5688 20.1152 23.1909 18.662 21.6395C17.2089 20.0889 17.3599 16.5964 17.3599 16.5964L18.54 13.3828C18.54 13.3821 17.8934 13.522 20.8994 16.4334Z" fill="#797A81"/>
<path d="M18.6627 16.4334C21.6686 19.3449 21.7006 24.5688 20.9402 24.5688C20.1798 24.5688 17.8784 23.1909 16.4253 21.6395C14.9722 20.0889 15.1232 16.5964 15.1232 16.5964L16.3033 13.3828C16.3033 13.3821 15.6567 13.522 18.6627 16.4334ZM0.835236 24.5532C0.0911865 24.5532 0.0911865 19.3449 3.06738 16.3687C6.04358 13.3925 5.29953 13.3925 5.29953 13.3925L6.78763 16.3687C6.78763 16.3687 6.78763 20.0889 5.29953 21.577C3.81143 23.0651 1.57928 24.5532 0.835236 24.5532Z" fill="#797A81"/>
<path d="M3.07352 24.5553C2.32947 24.5553 2.32947 19.3469 5.30566 16.3707C8.28186 13.3945 7.53781 13.3945 7.53781 13.3945L9.02591 16.3707C9.02591 16.3707 9.02591 20.091 7.53781 21.5791C6.04971 23.0672 3.81757 24.5553 3.07352 24.5553Z" fill="#797A81"/>
<path d="M3.75153 12.9111C3.32668 11.3233 2.17712 10.2512 1.18456 10.5175C0.192001 10.7839 -0.266334 12.2869 0.158518 13.8739C0.58337 15.4625 1.73293 16.5332 2.72549 16.2676C3.71805 16.0012 4.17713 14.4982 3.75153 12.9111ZM23.8416 13.8739C24.2665 12.2861 23.8074 10.7832 22.8148 10.5168C21.823 10.2519 20.6734 11.3226 20.2486 12.9111C19.823 14.499 20.2821 16.0012 21.2746 16.2676C22.2672 16.5339 23.4167 15.4617 23.8416 13.8739Z" fill="#E9E9EA"/>
<path d="M21.6773 13.3931C21.6773 6.40719 17.3469 1.48828 12.0047 1.48828C6.6624 1.48828 2.33203 6.40719 2.33203 13.3931C2.33203 20.3789 6.6624 24.5538 12.0047 24.5538C17.3469 24.5538 21.6773 20.3789 21.6773 13.3931Z" fill="#E9E9EA"/>
<path d="M12.0058 19.8326C10.2052 19.8326 8.82572 19.3214 8.76769 19.3006C8.38301 19.1562 8.18807 18.7269 8.33316 18.3423C8.47751 17.9576 8.90534 17.7626 9.29001 17.907C9.30191 17.9114 10.4879 18.3445 12.0058 18.3445C13.5244 18.3445 14.7104 17.9114 14.7216 17.907C15.1055 17.7626 15.5356 17.9598 15.6777 18.3437C15.8213 18.7284 15.6278 19.1562 15.2431 19.3006C15.1859 19.3222 13.8071 19.8326 12.0058 19.8326Z" fill="#B2B2B5"/>
<path d="M12.7439 16.3709H11.2558C10.8451 16.3709 10.5117 16.0383 10.5117 15.6269C10.5117 15.2154 10.8451 14.8828 11.2558 14.8828H12.7439C13.1553 14.8828 13.4879 15.2154 13.4879 15.6269C13.4879 16.0383 13.1553 16.3709 12.7439 16.3709Z" fill="#B2B2B5"/>
<path d="M7.54092 14.1324C7.13021 14.1324 6.79688 13.7999 6.79688 13.3884V11.9003C6.79688 11.4896 7.13021 11.1562 7.54092 11.1562C7.95164 11.1562 8.28497 11.4896 8.28497 11.9003V13.3884C8.28497 13.7999 7.95164 14.1324 7.54092 14.1324ZM16.4695 14.1324C16.0581 14.1324 15.7255 13.7999 15.7255 13.3884V11.9003C15.7255 11.4896 16.0581 11.1562 16.4695 11.1562C16.881 11.1562 17.2136 11.4896 17.2136 11.9003V13.3884C17.2136 13.7999 16.881 14.1324 16.4695 14.1324Z" fill="#797A81"/>
<path d="M22.419 6.69644C20.9309 1.4881 17.2106 0 14.9785 0C13.4904 0 12.0023 1.4881 12.0023 1.4881C12.0023 1.4881 10.5142 0 9.02607 0C6.79392 0 3.07367 1.4881 1.58558 6.69644C0.359382 10.9889 2.32962 14.881 2.32962 14.881C2.32962 12.6481 3.81772 8.18454 7.53797 8.18454C11.2582 8.18454 12.0023 5.20834 12.0023 5.20834C12.0023 5.20834 12.5871 8.18454 16.3073 8.18454C20.0276 8.18454 21.6749 12.6488 21.6749 14.881C21.6749 14.881 23.6451 10.9889 22.419 6.69644Z" fill="#797A81"/>
</svg>
