<svg width="24" height="25" viewBox="0 0 24 25" fill="none" xmlns="http://www.w3.org/2000/svg">
<path d="M3.52941 13.8685C3.52941 15.4277 2.73953 16.692 1.76471 16.692C0.789882 16.692 0 15.4277 0 13.8685C0 12.3092 0.789882 11.0449 1.76471 11.0449C2.73953 11.0449 3.52941 12.3092 3.52941 13.8685ZM24 13.8685C24 15.4277 23.2101 16.692 22.2353 16.692C21.2605 16.692 20.4706 15.4277 20.4706 13.8685C20.4706 12.3092 21.2605 11.0449 22.2353 11.0449C23.2101 11.0449 24 12.3092 24 13.8685Z" fill="#F7DFD3"/>
<path d="M2.11719 14.2646C2.11719 8.24625 6.54166 3.36719 11.9995 3.36719C17.4574 3.36719 21.8819 8.24625 21.8819 14.2646C21.8819 20.283 17.4574 24.4561 11.9995 24.4561C6.54166 24.4561 2.11719 20.283 2.11719 14.2646Z" fill="#F7DFD3"/>
<path d="M7.76448 15.2796C7.37483 15.2796 7.05859 14.9641 7.05859 14.5737V13.1619C7.05859 12.7723 7.37483 12.4561 7.76448 12.4561C8.15412 12.4561 8.47036 12.7723 8.47036 13.1619V14.5737C8.47036 14.9641 8.15412 15.2796 7.76448 15.2796ZM16.2351 15.2796C15.8447 15.2796 15.5292 14.9641 15.5292 14.5737V13.1619C15.5292 12.7723 15.8447 12.4561 16.2351 12.4561C16.6254 12.4561 16.9409 12.7723 16.9409 13.1619V14.5737C16.9409 14.9641 16.6254 15.2796 16.2351 15.2796Z" fill="#2F3033"/>
<path d="M11.9997 20.9265C9.04343 20.9265 7.51237 20.1783 7.44884 20.1465C7.10013 19.9722 6.95895 19.5479 7.13331 19.1992C7.30766 18.8519 7.72837 18.7108 8.07707 18.8823C8.11307 18.8992 9.4359 19.5148 11.9997 19.5148C14.5867 19.5148 15.9102 18.8879 15.9237 18.8816C16.2738 18.7115 16.6959 18.8576 16.8667 19.2042C17.0382 19.5522 16.8985 19.9729 16.5512 20.1465C16.4862 20.1783 14.9559 20.9265 11.9997 20.9265ZM12.7055 17.3971H11.2938C10.9041 17.3971 10.5879 17.0816 10.5879 16.6912C10.5879 16.3009 10.9041 15.9854 11.2938 15.9854H12.7055C13.0959 15.9854 13.4114 16.3009 13.4114 16.6912C13.4114 17.0816 13.0959 17.3971 12.7055 17.3971Z" fill="#ECAA9B"/>
<path d="M12.0003 0C5.48505 0 1.41211 4.56141 1.41211 8.36188C1.41211 12.1631 2.2267 13.6835 3.04129 12.1631L4.67046 9.12212C4.67046 9.12212 7.34646 9.03459 8.97564 7.51412C8.97564 7.51412 8.21964 10.3376 13.6302 7.60165C13.6302 7.60165 13.5131 10.3376 17.2945 7.51412C17.2945 7.51412 20.1455 8.36188 20.9587 12.1631C21.1846 13.2176 22.5886 12.1631 22.5886 8.36188C22.5886 4.56141 19.3309 0 12.0003 0Z" fill="#2F3033"/>
</svg>
