<svg width="20" height="21" viewBox="0 0 20 21" fill="none" xmlns="http://www.w3.org/2000/svg">
<path d="M5.41683 2.16602H16.6668V18.8327H5.41683C4.8643 18.8327 4.33439 18.6132 3.94369 18.2225C3.55299 17.8318 3.3335 17.3019 3.3335 16.7493V4.24935C3.3335 3.69681 3.55299 3.16691 3.94369 2.77621C4.33439 2.38551 4.8643 2.16602 5.41683 2.16602Z" fill="#2F3033" stroke="#2F3033" stroke-width="1.6" stroke-linecap="round" stroke-linejoin="round"/>
<path d="M3.3335 16.7493C3.3335 16.1968 3.55299 15.6669 3.94369 15.2762C4.33439 14.8855 4.8643 14.666 5.41683 14.666H18" stroke="white" stroke-width="1.6" stroke-linecap="round" stroke-linejoin="round"/>
<path d="M3.3335 16.7497C3.3335 17.3022 3.55299 17.8321 3.94369 18.2228C4.33439 18.6135 4.8643 18.833 5.41683 18.833H18" stroke="white" stroke-width="1.6" stroke-linecap="round" stroke-linejoin="round"/>
<path d="M12.9468 6.03728C12.7765 5.86694 12.5744 5.73182 12.3519 5.63964C12.1294 5.54745 11.891 5.5 11.6501 5.5C11.4093 5.5 11.1708 5.54745 10.9483 5.63964C10.7258 5.73182 10.5237 5.86694 10.3535 6.03728L10.0001 6.39061L9.64679 6.03728C9.30289 5.69338 8.83647 5.50018 8.35012 5.50018C7.86378 5.50018 7.39735 5.69338 7.05345 6.03728C6.70956 6.38117 6.51636 6.8476 6.51636 7.33394C6.51636 7.82029 6.70956 8.28671 7.05345 8.63061L7.40679 8.98394L10.0001 11.5773L12.5935 8.98394L12.9468 8.63061C13.1171 8.46036 13.2522 8.25821 13.3444 8.03573C13.4366 7.81324 13.4841 7.57477 13.4841 7.33394C13.4841 7.09311 13.4366 6.85464 13.3444 6.63216C13.2522 6.40967 13.1171 6.20753 12.9468 6.03728Z" fill="white"/>
</svg>
