<svg width="20" height="21" viewBox="0 0 20 21" fill="none" xmlns="http://www.w3.org/2000/svg">
<g id="home 1" clip-path="url(#clip0_1802_6186)">
<path id="Vector" d="M2.5 8.00033L10 2.16699L17.5 8.00033V17.167C17.5 17.609 17.3244 18.0329 17.0118 18.3455C16.6993 18.6581 16.2754 18.8337 15.8333 18.8337H4.16667C3.72464 18.8337 3.30072 18.6581 2.98816 18.3455C2.67559 18.0329 2.5 17.609 2.5 17.167V8.00033Z" fill="#2F3033" stroke="#2F3033" stroke-width="1.6" stroke-linecap="round" stroke-linejoin="round"/>
<path id="Vector_2" d="M8.5 20.8333C7.94772 20.8333 7.5 20.3856 7.5 19.8333V11.5C7.5 10.9477 7.94772 10.5 8.5 10.5H11.5C12.0523 10.5 12.5 10.9477 12.5 11.5V19.8333" fill="white"/>
</g>
<defs>
<clipPath id="clip0_1802_6186">
<rect width="20" height="20" fill="white" transform="translate(0 0.5)"/>
</clipPath>
</defs>
</svg>
