<svg width="18" height="19" viewBox="0 0 18 19" fill="none" xmlns="http://www.w3.org/2000/svg">
<path id="Vector" d="M13.1988 12.1083H12.3648L12.0691 11.8234C12.7289 11.0574 13.2112 10.155 13.4813 9.1809C13.7514 8.20681 13.8028 7.1851 13.6317 6.18886C13.1355 3.2555 10.6861 0.913033 7.72986 0.554277C6.69056 0.422873 5.63496 0.530823 4.64383 0.869866C3.6527 1.20891 2.75231 1.77006 2.01155 2.51038C1.2708 3.25069 0.709324 4.15056 0.370083 5.14111C0.0308408 6.13166 -0.0771721 7.18664 0.0543092 8.22533C0.413276 11.1798 2.75712 13.6278 5.6922 14.1237C6.68902 14.2947 7.71134 14.2434 8.68599 13.9734C9.66065 13.7034 10.5635 13.2215 11.3301 12.5621L11.6151 12.8575V13.6911L16.1022 18.1755C16.5351 18.6082 17.2425 18.6082 17.6753 18.1755C18.1082 17.7429 18.1082 17.036 17.6753 16.6033L13.1988 12.1083ZM6.86412 12.1083C4.23521 12.1083 2.11309 9.98745 2.11309 7.36009C2.11309 4.73273 4.23521 2.61185 6.86412 2.61185C9.49302 2.61185 11.6151 4.73273 11.6151 7.36009C11.6151 9.98745 9.49302 12.1083 6.86412 12.1083Z" fill="#2F3033"/>
</svg>
