<svg width="264" height="150" viewBox="0 0 264 150" fill="none" xmlns="http://www.w3.org/2000/svg">
<rect x="1.2" y="0.7" width="261.6" height="148.6" rx="9.3" fill="white"/>
<path d="M132.5 71C140.784 71 147.5 64.2843 147.5 56C147.5 47.7157 140.784 41 132.5 41C124.216 41 117.5 47.7157 117.5 56C117.5 64.2843 124.216 71 132.5 71Z" fill="#F1F1F1"/>
<path d="M132.5 50V62" stroke="#797A81" stroke-width="2" stroke-linecap="round" stroke-linejoin="round"/>
<path d="M126.5 56H138.5" stroke="#797A81" stroke-width="2" stroke-linecap="round" stroke-linejoin="round"/>
<path d="M111.79 93.17C111.79 97.67 109.84 100.88 105.85 102.95L104.77 101.705C106.63 100.85 108.16 99.47 109.075 97.715L105.37 98.12C105.295 97.61 105.22 97.115 105.13 96.605L109.66 96.275C109.795 95.75 109.9 95.195 109.945 94.625H105.79V93.17H111.79ZM115.39 91.82V96.95H117.265V98.405H115.39V105.185H113.65V91.82H115.39ZM129.854 102.035V103.43H117.779V102.035H129.854ZM128.459 99.215H119.324V92.945H128.339V94.355H121.064V97.82H128.459V99.215ZM146.472 97.925V99.32H134.397V97.925H146.472ZM145.062 96.86H136.002V92.21H144.957V93.62H137.757V95.465H145.062V96.86ZM145.092 102.65C145.092 104.18 143.397 105.125 140.442 105.125C137.487 105.125 135.792 104.18 135.792 102.65C135.792 101.105 137.487 100.145 140.427 100.145C143.397 100.145 145.092 101.105 145.092 102.65ZM143.292 102.665C143.292 101.96 142.167 101.54 140.427 101.54C138.702 101.54 137.592 101.96 137.592 102.665C137.592 103.34 138.702 103.745 140.427 103.745C142.167 103.745 143.292 103.34 143.292 102.665ZM158.056 97.835H154.111V98.855H159.301V100.265H147.226V98.855H152.356V97.835H148.816V94.4H155.926V93.575H148.771V92.255H157.681V95.645H150.571V96.515H158.056V97.835ZM148.651 101.03H157.741V105.2H156.001V102.44H148.651V101.03Z" fill="#2F3033"/>
<rect x="1.2" y="0.7" width="261.6" height="148.6" rx="9.3" stroke="#E9E9EA" stroke-width="1.4" stroke-dasharray="6 3"/>
</svg>
