<svg width="15" height="14" viewBox="0 0 15 14" fill="none" xmlns="http://www.w3.org/2000/svg">
<path d="M10.416 1.75083C10.5692 1.59762 10.7511 1.47609 10.9513 1.39317C11.1515 1.31025 11.366 1.26758 11.5827 1.26758C11.7994 1.26758 12.0139 1.31025 12.2141 1.39317C12.4143 1.47609 12.5961 1.59762 12.7494 1.75083C12.9026 1.90404 13.0241 2.08592 13.107 2.2861C13.1899 2.48628 13.2326 2.70082 13.2326 2.91749C13.2326 3.13416 13.1899 3.34871 13.107 3.54889C13.0241 3.74907 12.9026 3.93095 12.7494 4.08416L4.87435 11.9592L1.66602 12.8342L2.54102 9.62583L10.416 1.75083Z" fill="#C7C7CA" stroke="#C7C7CA" stroke-width="1.16667" stroke-linecap="round" stroke-linejoin="round"/>
</svg>
