<svg width="351" height="461" viewBox="0 0 351 461" fill="none" xmlns="http://www.w3.org/2000/svg">
<g filter="url(#filter0_d_3728_786)">
<path fill-rule="evenodd" clip-rule="evenodd" d="M201.99 15.8963C201.955 30.7788 189.88 42.8329 174.99 42.8329C160.108 42.8329 148.038 30.7927 147.99 15.922L37.3897 15.9746C29.549 15.9784 25.6286 15.9802 22.6346 17.5076C20.0009 18.851 17.8602 20.9938 16.5192 23.6287C14.9948 26.6242 14.9966 30.5446 15.0004 38.3853L15.1916 440.114L24.4662 440.11L24.4662 440.109C24.4641 435.605 28.1998 431.951 32.8102 431.949C37.4206 431.947 41.1597 435.597 41.1619 440.101L48.5834 440.098V440.098C48.5813 435.593 52.317 431.94 56.9274 431.937C61.5377 431.935 65.2769 435.585 65.2791 440.09V440.09L72.6989 440.087C72.697 435.582 76.4326 431.929 81.0428 431.927C85.6531 431.925 89.3922 435.574 89.3945 440.079L96.8139 440.075C96.8117 435.571 100.547 431.917 105.158 431.915C109.768 431.913 113.507 435.563 113.51 440.067L120.931 440.064V440.063C120.929 435.559 124.665 431.905 129.275 431.903C133.885 431.901 137.625 435.551 137.627 440.056L145.047 440.052V440.052C145.044 435.547 148.78 431.893 153.39 431.891C158.001 431.889 161.74 435.539 161.742 440.044V440.044L169.163 440.041C169.161 435.536 172.897 431.883 177.507 431.881C182.118 431.879 185.857 435.528 185.859 440.033L193.279 440.029C193.277 435.525 197.012 431.871 201.623 431.869C206.233 431.867 209.972 435.517 209.974 440.021L217.394 440.018V440.018C217.392 435.513 221.128 431.859 225.738 431.857C230.348 431.855 234.087 435.505 234.09 440.01L241.511 440.006V440.006C241.509 435.501 245.245 431.848 249.855 431.846C254.465 431.843 258.205 435.493 258.207 439.998V439.998L265.626 439.995C265.624 435.49 269.36 431.837 273.97 431.835C278.581 431.833 282.32 435.482 282.322 439.987L289.742 439.983C289.739 435.479 293.475 431.825 298.086 431.823C302.696 431.821 306.435 435.471 306.437 439.975L313.859 439.972C313.857 435.467 317.592 431.814 322.203 431.811C326.813 431.809 330.552 435.459 330.554 439.964L335.192 439.962L335 38.233C334.997 30.3922 334.995 26.4718 333.467 23.4778C332.124 20.8442 329.981 18.7035 327.346 17.3625C324.351 15.838 320.43 15.8399 312.59 15.8436L201.99 15.8963Z" fill="white"/>
</g>
<path fill-rule="evenodd" clip-rule="evenodd" d="M190.823 15.8333C190.823 24.5778 183.734 31.6667 174.99 31.6667C166.245 31.6667 159.156 24.5778 159.156 15.8333C159.156 7.08882 166.245 0 174.99 0C183.734 0 190.823 7.08882 190.823 15.8333ZM184.122 11.168C184.631 10.6587 184.631 9.83281 184.122 9.32344C183.612 8.81406 182.787 8.81406 182.277 9.32344L171.243 20.3576L166.731 15.8451C166.221 15.3358 165.395 15.3358 164.886 15.8451C164.377 16.3545 164.377 17.1804 164.886 17.6897L170.321 23.1245C170.565 23.3691 170.897 23.5065 171.243 23.5065C171.589 23.5065 171.921 23.3691 172.165 23.1245L184.122 11.168Z" fill="#2F3033"/>
<defs>
<filter id="filter0_d_3728_786" x="0" y="5.84326" width="350.191" height="454.271" filterUnits="userSpaceOnUse" color-interpolation-filters="sRGB">
<feFlood flood-opacity="0" result="BackgroundImageFix"/>
<feColorMatrix in="SourceAlpha" type="matrix" values="0 0 0 0 0 0 0 0 0 0 0 0 0 0 0 0 0 0 127 0" result="hardAlpha"/>
<feOffset dy="5"/>
<feGaussianBlur stdDeviation="7.5"/>
<feComposite in2="hardAlpha" operator="out"/>
<feColorMatrix type="matrix" values="0 0 0 0 0 0 0 0 0 0 0 0 0 0 0 0 0 0 0.05 0"/>
<feBlend mode="normal" in2="BackgroundImageFix" result="effect1_dropShadow_3728_786"/>
<feBlend mode="normal" in="SourceGraphic" in2="effect1_dropShadow_3728_786" result="shape"/>
</filter>
</defs>
</svg>
