<svg width="351" height="456" viewBox="0 0 351 456" fill="none" xmlns="http://www.w3.org/2000/svg">
<g filter="url(#filter0_d_3018_6230)">
<path fill-rule="evenodd" clip-rule="evenodd" d="M201.99 10.8963C201.955 25.7788 189.88 37.8329 174.99 37.8329C160.108 37.8329 148.038 25.7927 147.99 10.922L37.3897 10.9746C29.549 10.9784 25.6286 10.9802 22.6346 12.5076C20.0009 13.851 17.8602 15.9938 16.5192 18.6287C14.9948 21.6242 14.9966 25.5446 15.0004 33.3853L15.1916 435.114L24.4662 435.11L24.4662 435.109C24.4641 430.605 28.1998 426.951 32.8102 426.949C37.4206 426.947 41.1597 430.597 41.1619 435.101L48.5834 435.098V435.098C48.5813 430.593 52.317 426.94 56.9274 426.937C61.5377 426.935 65.2769 430.585 65.2791 435.09V435.09L72.6989 435.087C72.697 430.582 76.4326 426.929 81.0428 426.927C85.6531 426.925 89.3922 430.574 89.3945 435.079L96.8139 435.075C96.8117 430.571 100.547 426.917 105.158 426.915C109.768 426.913 113.507 430.563 113.51 435.067L120.931 435.064V435.063C120.929 430.559 124.665 426.905 129.275 426.903C133.885 426.901 137.625 430.551 137.627 435.056L145.047 435.052V435.052C145.044 430.547 148.78 426.893 153.39 426.891C158.001 426.889 161.74 430.539 161.742 435.044V435.044L169.163 435.041C169.161 430.536 172.897 426.883 177.507 426.881C182.118 426.879 185.857 430.528 185.859 435.033L193.279 435.029C193.277 430.525 197.012 426.871 201.623 426.869C206.233 426.867 209.972 430.517 209.974 435.021L217.394 435.018V435.018C217.392 430.513 221.128 426.859 225.738 426.857C230.348 426.855 234.087 430.505 234.09 435.01L241.511 435.006V435.006C241.509 430.501 245.245 426.848 249.855 426.846C254.465 426.843 258.205 430.493 258.207 434.998V434.998L265.626 434.995C265.624 430.49 269.36 426.837 273.97 426.835C278.581 426.833 282.32 430.482 282.322 434.987L289.742 434.983C289.739 430.479 293.475 426.825 298.086 426.823C302.696 426.821 306.435 430.471 306.437 434.975L313.859 434.972C313.857 430.467 317.592 426.814 322.203 426.811C326.813 426.809 330.552 430.459 330.554 434.964L335.192 434.962L335 33.233C334.997 25.3922 334.995 21.4718 333.467 18.4778C332.124 15.8442 329.981 13.7035 327.346 12.3625C324.351 10.838 320.43 10.8399 312.59 10.8436L201.99 10.8963Z" fill="white"/>
</g>
<defs>
<filter id="filter0_d_3018_6230" x="0" y="0.843262" width="350.191" height="454.271" filterUnits="userSpaceOnUse" color-interpolation-filters="sRGB">
<feFlood flood-opacity="0" result="BackgroundImageFix"/>
<feColorMatrix in="SourceAlpha" type="matrix" values="0 0 0 0 0 0 0 0 0 0 0 0 0 0 0 0 0 0 127 0" result="hardAlpha"/>
<feOffset dy="5"/>
<feGaussianBlur stdDeviation="7.5"/>
<feComposite in2="hardAlpha" operator="out"/>
<feColorMatrix type="matrix" values="0 0 0 0 0 0 0 0 0 0 0 0 0 0 0 0 0 0 0.05 0"/>
<feBlend mode="normal" in2="BackgroundImageFix" result="effect1_dropShadow_3018_6230"/>
<feBlend mode="normal" in="SourceGraphic" in2="effect1_dropShadow_3018_6230" result="shape"/>
</filter>
</defs>
</svg>
