<svg width="16" height="16" viewBox="0 0 16 16" fill="none" xmlns="http://www.w3.org/2000/svg">
<g id="edit-2 1" clip-path="url(#clip0_2723_14815)">
<path id="Vector" d="M11.333 2.00053C11.5081 1.82543 11.716 1.68654 11.9447 1.59178C12.1735 1.49702 12.4187 1.44824 12.6663 1.44824C12.914 1.44824 13.1592 1.49702 13.3879 1.59178C13.6167 1.68654 13.8246 1.82543 13.9997 2.00053C14.1748 2.17562 14.3137 2.38349 14.4084 2.61227C14.5032 2.84104 14.552 3.08624 14.552 3.33386C14.552 3.58148 14.5032 3.82668 14.4084 4.05546C14.3137 4.28423 14.1748 4.4921 13.9997 4.66719L4.99967 13.6672L1.33301 14.6672L2.33301 11.0005L11.333 2.00053Z" fill="#C7C7CA" stroke="#C7C7CA" stroke-width="1.33333" stroke-linecap="round" stroke-linejoin="round"/>
</g>
<defs>
<clipPath id="clip0_2723_14815">
<rect width="16" height="16" fill="white"/>
</clipPath>
</defs>
</svg>
