<svg width="84" height="100" viewBox="0 0 84 100" fill="none" xmlns="http://www.w3.org/2000/svg">
<g id="emojione-v1:white-question-mark">
<g id="Vector">
<mask id="path-1-inside-1_2839_6362" fill="white">
<path d="M42.2168 69.5951C39.5751 69.5951 37.3276 70.4108 35.4646 72.0464C33.6002 73.6819 32.6686 75.6686 32.6686 77.997C32.6686 80.6333 33.6112 82.6983 35.4935 84.2029C37.3828 85.7061 39.5751 86.4583 42.09 86.4583C44.6475 86.4583 46.8758 85.7169 48.7829 84.2299C50.6901 82.747 51.6381 80.6711 51.6381 77.9983C51.6381 75.6686 50.7286 73.6833 48.9083 72.0477C47.0838 70.4108 44.8556 69.5951 42.2168 69.5951ZM69.1414 11.7041C66.7216 8.09804 63.256 5.20646 58.834 3.12118C54.4437 1.04534 49.3286 0 43.6209 0C37.4806 0 32.0168 1.25738 27.3868 3.74109C22.7471 6.22344 19.1712 9.4108 16.7431 13.2221C14.2986 17.0456 13.0667 20.8893 13.0667 24.6493C13.0667 26.6617 13.9155 28.5349 15.5898 30.2191C17.2723 31.9127 19.3668 32.7717 21.8114 32.7717C25.973 32.7717 28.8254 30.3677 30.2737 25.6663C31.5924 21.7672 33.2171 18.8 35.0967 16.8322C36.866 14.9792 39.735 14.0419 43.6223 14.0419C46.975 14.0419 49.6193 14.963 51.718 16.8592C53.785 18.7338 54.7896 20.9704 54.7896 23.6904C54.8021 25.0075 54.4634 26.305 53.8071 27.4545C53.1096 28.6818 52.2414 29.8081 51.2275 30.8012C50.1526 31.8546 48.3805 33.4443 45.958 35.5187C43.1359 37.943 40.8581 40.0729 39.1948 41.83C37.4361 43.7114 36.0234 45.8774 35.0195 48.2317C33.9708 50.6681 33.4403 53.5692 33.4403 56.8578C33.4403 59.6684 34.2395 61.8441 35.8201 63.3271C37.3841 64.7992 39.3312 65.5461 41.6118 65.5461C45.9718 65.5461 48.7099 63.2109 49.5229 58.8432C49.9446 57.0266 50.2519 55.7571 50.4599 55.0318C50.6487 54.3755 50.9216 53.7029 51.2729 53.0303C51.6133 52.3793 52.1535 51.6378 52.8769 50.8221C53.6334 49.9699 54.6628 48.9637 55.9182 47.8414C60.6157 43.7275 63.9285 40.7468 65.7667 38.983C67.6628 37.161 69.3164 34.9799 70.6875 32.4921C72.0876 29.9395 72.8 26.9426 72.8 23.581C72.7972 19.3213 71.5653 15.329 69.1331 11.7081"/>
</mask>
<path d="M42.2168 69.5951C39.5751 69.5951 37.3276 70.4108 35.4646 72.0464C33.6002 73.6819 32.6686 75.6686 32.6686 77.997C32.6686 80.6333 33.6112 82.6983 35.4935 84.2029C37.3828 85.7061 39.5751 86.4583 42.09 86.4583C44.6475 86.4583 46.8758 85.7169 48.7829 84.2299C50.6901 82.747 51.6381 80.6711 51.6381 77.9983C51.6381 75.6686 50.7286 73.6833 48.9083 72.0477C47.0838 70.4108 44.8556 69.5951 42.2168 69.5951ZM69.1414 11.7041C66.7216 8.09804 63.256 5.20646 58.834 3.12118C54.4437 1.04534 49.3286 0 43.6209 0C37.4806 0 32.0168 1.25738 27.3868 3.74109C22.7471 6.22344 19.1712 9.4108 16.7431 13.2221C14.2986 17.0456 13.0667 20.8893 13.0667 24.6493C13.0667 26.6617 13.9155 28.5349 15.5898 30.2191C17.2723 31.9127 19.3668 32.7717 21.8114 32.7717C25.973 32.7717 28.8254 30.3677 30.2737 25.6663C31.5924 21.7672 33.2171 18.8 35.0967 16.8322C36.866 14.9792 39.735 14.0419 43.6223 14.0419C46.975 14.0419 49.6193 14.963 51.718 16.8592C53.785 18.7338 54.7896 20.9704 54.7896 23.6904C54.8021 25.0075 54.4634 26.305 53.8071 27.4545C53.1096 28.6818 52.2414 29.8081 51.2275 30.8012C50.1526 31.8546 48.3805 33.4443 45.958 35.5187C43.1359 37.943 40.8581 40.0729 39.1948 41.83C37.4361 43.7114 36.0234 45.8774 35.0195 48.2317C33.9708 50.6681 33.4403 53.5692 33.4403 56.8578C33.4403 59.6684 34.2395 61.8441 35.8201 63.3271C37.3841 64.7992 39.3312 65.5461 41.6118 65.5461C45.9718 65.5461 48.7099 63.2109 49.5229 58.8432C49.9446 57.0266 50.2519 55.7571 50.4599 55.0318C50.6487 54.3755 50.9216 53.7029 51.2729 53.0303C51.6133 52.3793 52.1535 51.6378 52.8769 50.8221C53.6334 49.9699 54.6628 48.9637 55.9182 47.8414C60.6157 43.7275 63.9285 40.7468 65.7667 38.983C67.6628 37.161 69.3164 34.9799 70.6875 32.4921C72.0876 29.9395 72.8 26.9426 72.8 23.581C72.7972 19.3213 71.5653 15.329 69.1331 11.7081" fill="#FAE7E3"/>
<path d="M35.4646 72.0464L36.124 72.7981L36.1243 72.7979L35.4646 72.0464ZM35.4935 84.2029L34.8692 84.984L34.8709 84.9854L35.4935 84.2029ZM48.7829 84.2299L48.1691 83.4405L48.168 83.4413L48.7829 84.2299ZM48.9083 72.0477L49.5766 71.3039L49.5761 71.3034L48.9083 72.0477ZM58.834 3.12118L58.4065 4.02522L58.4075 4.02565L58.834 3.12118ZM27.3868 3.74109L27.8585 4.62282L27.8595 4.62231L27.3868 3.74109ZM16.7431 13.2221L17.5857 13.7608L17.5865 13.7594L16.7431 13.2221ZM15.5898 30.2191L16.2992 29.5143L16.2989 29.5141L15.5898 30.2191ZM30.2737 25.6663L29.3264 25.3459L29.322 25.3589L29.318 25.3719L30.2737 25.6663ZM35.0967 16.8322L35.8198 17.5229L35.8199 17.5228L35.0967 16.8322ZM51.718 16.8592L52.3898 16.1185L52.3884 16.1172L51.718 16.8592ZM54.7896 23.6904H53.7895L53.7896 23.6999L54.7896 23.6904ZM53.8071 27.4545L52.9387 26.9586L52.9377 26.9604L53.8071 27.4545ZM51.2275 30.8012L50.5278 30.0868L50.5275 30.087L51.2275 30.8012ZM45.958 35.5187L45.3076 34.7592L45.3064 34.7602L45.958 35.5187ZM39.1948 41.83L38.4686 41.1425L38.4643 41.1471L39.1948 41.83ZM35.0195 48.2317L35.938 48.627L35.9394 48.6239L35.0195 48.2317ZM35.8201 63.3271L36.5055 62.5989L36.5043 62.5978L35.8201 63.3271ZM49.5229 58.8432L48.5488 58.617L48.5438 58.6385L48.5398 58.6602L49.5229 58.8432ZM50.4599 55.0318L49.4989 54.7554L49.4987 54.7561L50.4599 55.0318ZM51.2729 53.0303L50.3868 52.5669L50.3866 52.5672L51.2729 53.0303ZM52.8769 50.8221L52.1291 50.1582L52.1288 50.1586L52.8769 50.8221ZM55.9182 47.8414L55.2593 47.089L55.2517 47.0959L55.9182 47.8414ZM65.7667 38.983L66.4591 39.7045L66.4596 39.704L65.7667 38.983ZM70.6875 32.4921L71.5633 32.9748L71.5643 32.973L70.6875 32.4921ZM72.8 23.581H73.8V23.5804L72.8 23.581ZM42.2168 68.5951C39.3497 68.5951 36.863 69.488 34.8049 71.2949L36.1243 72.7979C37.7923 71.3336 39.8005 70.5951 42.2168 70.5951V68.5951ZM34.8051 71.2946C32.7396 73.1066 31.6686 75.3609 31.6686 77.997H33.6686C33.6686 75.9763 34.4608 74.2572 36.124 72.7981L34.8051 71.2946ZM31.6686 77.997C31.6686 80.9058 32.7259 83.2709 34.8692 84.984L36.1179 83.4217C34.4965 82.1258 33.6686 80.3608 33.6686 77.997H31.6686ZM34.8709 84.9854C36.944 86.6349 39.358 87.4583 42.09 87.4583V85.4583C39.7923 85.4583 37.8215 84.7772 36.1161 83.4204L34.8709 84.9854ZM42.09 87.4583C44.8564 87.4583 47.3043 86.6508 49.3978 85.0185L48.168 83.4413C46.4473 84.7829 44.4387 85.4583 42.09 85.4583V87.4583ZM49.3967 85.0193C51.5768 83.3242 52.6381 80.9408 52.6381 77.9983H50.6381C50.6381 80.4015 49.8034 82.1697 48.1691 83.4405L49.3967 85.0193ZM52.6381 77.9983C52.6381 75.3696 51.5965 73.1186 49.5766 71.3039L48.24 72.7916C49.8608 74.2479 50.6381 75.9676 50.6381 77.9983H52.6381ZM49.5761 71.3034C47.5532 69.4884 45.0812 68.5951 42.2168 68.5951V70.5951C44.6301 70.5951 46.6145 71.3332 48.2405 72.792L49.5761 71.3034ZM69.9718 11.1469C67.4396 7.37328 63.826 4.36964 59.2605 2.2167L58.4075 4.02565C62.686 6.04329 66.0037 8.8228 68.311 12.2613L69.9718 11.1469ZM59.2614 2.21714C54.7154 0.0676651 49.4498 -1 43.6209 -1V1C49.2073 1 54.172 2.02302 58.4065 4.02522L59.2614 2.21714ZM43.6209 -1C37.3439 -1 31.7125 0.285851 26.9141 2.85987L27.8595 4.62231C32.3212 2.22892 37.6173 1 43.6209 1V-1ZM26.915 2.85936C22.1487 5.40946 18.434 8.70671 15.8997 12.6848L17.5865 13.7594C19.9083 10.1149 23.3454 7.03743 27.8585 4.62282L26.915 2.85936ZM15.9006 12.6834C13.374 16.6353 12.0667 20.6632 12.0667 24.6493H14.0667C14.0667 21.1155 15.2232 17.4559 17.5857 13.7608L15.9006 12.6834ZM12.0667 24.6493C12.0667 26.9731 13.0562 29.089 14.8806 30.9241L16.2989 29.5141C14.7748 27.9809 14.0667 26.3503 14.0667 24.6493H12.0667ZM14.8803 30.9239C16.7557 32.8116 19.1078 33.7717 21.8114 33.7717V31.7717C19.6259 31.7717 17.7889 31.0138 16.2992 29.5143L14.8803 30.9239ZM21.8114 33.7717C24.0977 33.7717 26.0873 33.1058 27.7034 31.7475C29.306 30.4007 30.4667 28.4363 31.2294 25.9607L29.318 25.3719C28.6323 27.5977 27.6427 29.186 26.4166 30.2165C25.2041 31.2356 23.6866 31.7717 21.8114 31.7717V33.7717ZM31.221 25.9867C32.5142 22.1629 34.0786 19.3458 35.8198 17.5229L34.3735 16.1415C32.3555 18.2542 30.6706 21.3715 29.3264 25.3459L31.221 25.9867ZM35.8199 17.5228C37.3215 15.9502 39.8675 15.0419 43.6223 15.0419V13.0419C39.6025 13.0419 36.4105 14.0083 34.3734 16.1416L35.8199 17.5228ZM43.6223 15.0419C46.7755 15.0419 49.1656 15.9008 51.0476 17.6012L52.3884 16.1172C50.073 14.0252 47.1744 13.0419 43.6223 13.0419V15.0419ZM51.0462 17.6C52.9101 19.2903 53.7896 21.2603 53.7896 23.6904H55.7896C55.7896 20.6804 54.66 18.1773 52.3898 16.1185L51.0462 17.6ZM53.7896 23.6999C53.8004 24.839 53.5076 25.9622 52.9387 26.9586L54.6755 27.9503C55.4192 26.6479 55.8037 25.1761 55.7895 23.6809L53.7896 23.6999ZM52.9377 26.9604C52.2864 28.1063 51.4755 29.1586 50.5278 30.0868L51.9272 31.5156C53.0073 30.4577 53.9327 29.2573 54.6765 27.9486L52.9377 26.9604ZM50.5275 30.087C49.4776 31.116 47.7265 32.6878 45.3076 34.7592L46.6085 36.2783C49.0346 34.2007 50.8276 32.5933 51.9274 31.5154L50.5275 30.087ZM45.3064 34.7602C42.4695 37.1971 40.1639 39.3516 38.4686 41.1425L39.9211 42.5174C41.5522 40.7942 43.8023 38.6889 46.6096 36.2773L45.3064 34.7602ZM38.4643 41.1471C36.6265 43.1131 35.1495 45.3773 34.0996 47.8395L35.9394 48.6239C36.8973 46.3774 38.2456 44.3097 39.9253 42.5129L38.4643 41.1471ZM34.101 47.8364C32.9873 50.4239 32.4403 53.4651 32.4403 56.8578H34.4403C34.4403 53.6733 34.9544 50.9123 35.938 48.627L34.101 47.8364ZM32.4403 56.8578C32.4403 59.8576 33.2981 62.3321 35.1359 64.0563L36.5043 62.5978C35.1809 61.3561 34.4403 59.4791 34.4403 56.8578H32.4403ZM35.1347 64.0552C36.8962 65.7132 39.0934 66.5461 41.6118 66.5461V64.5461C39.5691 64.5461 37.8721 63.8852 36.5055 62.5989L35.1347 64.0552ZM41.6118 66.5461C43.9732 66.5461 45.9944 65.9106 47.5445 64.5949C49.0921 63.2815 50.0685 61.3766 50.506 59.0262L48.5398 58.6602C48.1643 60.6775 47.3651 62.124 46.2504 63.0701C45.1383 64.0139 43.6104 64.5461 41.6118 64.5461V66.5461ZM50.497 59.0693C50.92 57.2471 51.2215 56.0036 51.4211 55.3076L49.4987 54.7561C49.2822 55.5106 48.9692 56.8061 48.5488 58.617L50.497 59.0693ZM51.421 55.3082C51.5894 54.7227 51.8358 54.1124 52.1593 53.4933L50.3866 52.5672C50.0073 53.2933 49.708 54.0282 49.4989 54.7554L51.421 55.3082ZM52.1591 53.4936C52.4479 52.9414 52.9311 52.2681 53.6251 51.4856L52.1288 50.1586C51.3758 51.0076 50.7788 51.8172 50.3868 52.5669L52.1591 53.4936ZM53.6248 51.486C54.3461 50.6734 55.3446 49.6955 56.5847 48.5869L55.2517 47.0959C53.981 48.2319 52.9208 49.2664 52.1291 50.1582L53.6248 51.486ZM56.577 48.5937C61.2746 44.4798 64.6027 41.4858 66.4591 39.7045L65.0743 38.2614C63.2542 40.0079 59.9569 42.9752 55.2593 47.0891L56.577 48.5937ZM66.4596 39.704C68.4339 37.8069 70.1475 35.5437 71.5633 32.9748L69.8117 32.0094C68.4854 34.416 66.8917 36.5151 65.0738 38.2619L66.4596 39.704ZM71.5643 32.973C73.0566 30.2522 73.8 27.0852 73.8 23.581H71.8C71.8 26.8 71.1185 29.6269 69.8107 32.0112L71.5643 32.973ZM73.8 23.5804C73.7971 19.1175 72.5034 14.9321 69.9632 11.1505L68.303 12.2657C70.6272 15.7259 71.7974 19.5251 71.8 23.5817L73.8 23.5804Z" fill="#9B9C9F" mask="url(#path-1-inside-1_2839_6362)"/>
</g>
</g>
</svg>
