<svg width="22" height="22" viewBox="0 0 22 22" fill="none" xmlns="http://www.w3.org/2000/svg">
<g id="x-circle 1">
<g id="Group 6514">
<path id="Subtract" fill-rule="evenodd" clip-rule="evenodd" d="M11.0007 20.1683C16.0633 20.1683 20.1673 16.0642 20.1673 11.0016C20.1673 5.93902 16.0633 1.83496 11.0007 1.83496C5.93804 1.83496 1.83398 5.93902 1.83398 11.0016C1.83398 16.0642 5.93804 20.1683 11.0007 20.1683ZM14.3988 7.60345C14.7568 7.96143 14.7568 8.54183 14.3988 8.89981L12.297 11.0016L14.3988 13.1034C14.7568 13.4614 14.7568 14.0418 14.3988 14.3998C14.0409 14.7578 13.4605 14.7578 13.1025 14.3998L11.0007 12.298L8.89883 14.3998C8.54085 14.7578 7.96045 14.7578 7.60247 14.3998C7.24449 14.0418 7.24449 13.4614 7.60247 13.1034L9.70429 11.0016L7.60247 8.89981C7.24449 8.54183 7.24449 7.96143 7.60247 7.60345C7.96045 7.24547 8.54085 7.24547 8.89883 7.60345L11.0007 9.70527L13.1025 7.60345C13.4605 7.24547 14.0409 7.24547 14.3988 7.60345Z" fill="#D9D9DA"/>
</g>
</g>
</svg>
