<svg width="18" height="19" viewBox="0 0 18 19" fill="none" xmlns="http://www.w3.org/2000/svg">
<g id="users 1" clip-path="url(#clip0_2761_12075)">
<path id="Vector" d="M12.75 16.25V14.75C12.75 13.9544 12.4339 13.1913 11.8713 12.6287C11.3087 12.0661 10.5456 11.75 9.75 11.75H3.75C2.95435 11.75 2.19129 12.0661 1.62868 12.6287C1.06607 13.1913 0.75 13.9544 0.75 14.75V16.25" stroke="#797A81" stroke-width="1.6" stroke-linecap="round" stroke-linejoin="round"/>
<path id="Vector_2" d="M6.75 8.75C8.40685 8.75 9.75 7.40685 9.75 5.75C9.75 4.09315 8.40685 2.75 6.75 2.75C5.09315 2.75 3.75 4.09315 3.75 5.75C3.75 7.40685 5.09315 8.75 6.75 8.75Z" stroke="#797A81" stroke-width="1.6" stroke-linecap="round" stroke-linejoin="round"/>
<path id="Vector_3" d="M17.25 16.2502V14.7502C17.2495 14.0855 17.0283 13.4397 16.621 12.9144C16.2138 12.389 15.6436 12.0138 15 11.8477" stroke="#797A81" stroke-width="1.6" stroke-linecap="round" stroke-linejoin="round"/>
<path id="Vector_4" d="M12 2.84766C12.6453 3.01288 13.2173 3.38818 13.6257 3.91439C14.0342 4.4406 14.2559 5.08778 14.2559 5.75391C14.2559 6.42003 14.0342 7.06722 13.6257 7.59342C13.2173 8.11963 12.6453 8.49493 12 8.66016" stroke="#797A81" stroke-width="1.6" stroke-linecap="round" stroke-linejoin="round"/>
</g>
<defs>
<clipPath id="clip0_2761_12075">
<rect width="18" height="18" fill="white" transform="translate(0 0.5)"/>
</clipPath>
</defs>
</svg>
