<svg width="18" height="19" viewBox="0 0 18 19" fill="none" xmlns="http://www.w3.org/2000/svg">
<g clip-path="url(#clip0_2850_6772)">
<path d="M4.87598 1.99902H15.001V16.999H4.87598C4.3787 16.999 3.90178 16.8015 3.55015 16.4498C3.19852 16.0982 3.00098 15.6213 3.00098 15.124V3.87402C3.00098 3.37674 3.19852 2.89983 3.55015 2.5482C3.90178 2.19657 4.3787 1.99902 4.87598 1.99902Z" fill="#9B9C9F" stroke="#9B9C9F" stroke-width="1.6" stroke-linecap="round" stroke-linejoin="round"/>
<path d="M3.33398 16.7493C3.33398 16.1968 3.55348 15.6669 3.94418 15.2762C4.33488 14.8855 4.86478 14.666 5.41732 14.666H18.0005" stroke="white" stroke-width="1.6" stroke-linecap="round" stroke-linejoin="round"/>
<path d="M3.33398 16.7497C3.33398 17.3022 3.55348 17.8321 3.94418 18.2228C4.33488 18.6135 4.86478 18.833 5.41732 18.833H18.0005" stroke="white" stroke-width="1.6" stroke-linecap="round" stroke-linejoin="round"/>
<g clip-path="url(#clip1_2850_6772)">
<path d="M11.6526 5.48355C11.4994 5.33025 11.3175 5.20864 11.1172 5.12567C10.917 5.0427 10.7024 5 10.4856 5C10.2689 5 10.0543 5.0427 9.85401 5.12567C9.65378 5.20864 9.47185 5.33025 9.31862 5.48355L9.00062 5.80155L8.68262 5.48355C8.37311 5.17404 7.95333 5.00016 7.51562 5.00016C7.07791 5.00016 6.65813 5.17404 6.34862 5.48355C6.03911 5.79306 5.86523 6.21284 5.86523 6.65055C5.86523 7.08826 6.03911 7.50804 6.34862 7.81755L6.66662 8.13555L9.00062 10.4695L11.3346 8.13555L11.6526 7.81755C11.8059 7.66432 11.9275 7.48239 12.0105 7.28215C12.0935 7.08192 12.1362 6.86729 12.1362 6.65055C12.1362 6.4338 12.0935 6.21918 12.0105 6.01894C11.9275 5.8187 11.8059 5.63677 11.6526 5.48355Z" fill="white"/>
</g>
</g>
<defs>
<clipPath id="clip0_2850_6772">
<rect width="18" height="18" fill="white" transform="translate(0 0.5)"/>
</clipPath>
<clipPath id="clip1_2850_6772">
<rect width="7.2" height="7.2" fill="white" transform="translate(5.40039 4.09961)"/>
</clipPath>
</defs>
</svg>
