<svg width="18" height="19" viewBox="0 0 18 19" fill="none" xmlns="http://www.w3.org/2000/svg">
<g id="book-open 1">
<path id="Vector" d="M1.5 2.75H6C6.79565 2.75 7.55871 3.06607 8.12132 3.62868C8.68393 4.19129 9 4.95435 9 5.75V16.25C9 15.6533 8.76295 15.081 8.34099 14.659C7.91903 14.2371 7.34674 14 6.75 14H1.5V2.75Z" stroke="#797A81" stroke-width="1.44" stroke-linecap="round" stroke-linejoin="round"/>
<path id="Vector_2" d="M16.5 2.75H12C11.2044 2.75 10.4413 3.06607 9.87868 3.62868C9.31607 4.19129 9 4.95435 9 5.75V16.25C9 15.6533 9.23705 15.081 9.65901 14.659C10.081 14.2371 10.6533 14 11.25 14H16.5V2.75Z" stroke="#797A81" stroke-width="1.44" stroke-linecap="round" stroke-linejoin="round"/>
</g>
</svg>
