<svg width="30" height="30" viewBox="0 0 30 30" fill="none" xmlns="http://www.w3.org/2000/svg">
<g id="mdi:emoticon-neutral">
<path id="Vector" d="M15 2.5C13.3585 2.5 11.733 2.82332 10.2165 3.45151C8.69989 4.07969 7.3219 5.00043 6.16117 6.16117C3.81696 8.50537 2.5 11.6848 2.5 15C2.5 18.3152 3.81696 21.4946 6.16117 23.8388C7.3219 24.9996 8.69989 25.9203 10.2165 26.5485C11.733 27.1767 13.3585 27.5 15 27.5C18.3152 27.5 21.4946 26.183 23.8388 23.8388C26.183 21.4946 27.5 18.3152 27.5 15C27.5 13.3585 27.1767 11.733 26.5485 10.2165C25.9203 8.69989 24.9996 7.3219 23.8388 6.16117C22.6781 5.00043 21.3001 4.07969 19.7835 3.45151C18.267 2.82332 16.6415 2.5 15 2.5ZM8.75 11.875C8.75 11.3777 8.94754 10.9008 9.29918 10.5492C9.65081 10.1975 10.1277 10 10.625 10C11.1223 10 11.5992 10.1975 11.9508 10.5492C12.3025 10.9008 12.5 11.3777 12.5 11.875C12.5 12.3723 12.3025 12.8492 11.9508 13.2008C11.5992 13.5525 11.1223 13.75 10.625 13.75C10.1277 13.75 9.65081 13.5525 9.29918 13.2008C8.94754 12.8492 8.75 12.3723 8.75 11.875ZM20 20H10V17.5H20V20ZM19.375 13.75C18.8777 13.75 18.4008 13.5525 18.0492 13.2008C17.6975 12.8492 17.5 12.3723 17.5 11.875C17.5 11.3777 17.6975 10.9008 18.0492 10.5492C18.4008 10.1975 18.8777 10 19.375 10C19.8723 10 20.3492 10.1975 20.7008 10.5492C21.0525 10.9008 21.25 11.3777 21.25 11.875C21.25 12.3723 21.0525 12.8492 20.7008 13.2008C20.3492 13.5525 19.8723 13.75 19.375 13.75Z" fill="#E9E9EA"/>
</g>
</svg>
