<svg width="30" height="30" viewBox="0 0 30 30" fill="none" xmlns="http://www.w3.org/2000/svg">
<g id="mdi:emoticon-confused">
<path id="Vector" d="M15 2.5C12.5277 2.5 10.111 3.23311 8.05538 4.60663C5.99976 5.98015 4.39761 7.93238 3.45151 10.2165C2.50542 12.5005 2.25787 15.0139 2.74019 17.4386C3.2225 19.8634 4.41301 22.0907 6.16117 23.8388C7.90933 25.587 10.1366 26.7775 12.5614 27.2598C14.9861 27.7421 17.4995 27.4946 19.7836 26.5485C22.0676 25.6024 24.0199 24.0002 25.3934 21.9446C26.7669 19.889 27.5 17.4723 27.5 15C27.5 13.3585 27.1767 11.733 26.5485 10.2165C25.9203 8.69989 24.9996 7.3219 23.8388 6.16117C22.6781 5.00043 21.3001 4.07969 19.7836 3.45151C18.267 2.82332 16.6415 2.5 15 2.5ZM10.625 10C10.9958 10 11.3584 10.11 11.6667 10.316C11.975 10.522 12.2154 10.8149 12.3573 11.1575C12.4992 11.5001 12.5363 11.8771 12.464 12.2408C12.3916 12.6045 12.2131 12.9386 11.9508 13.2008C11.6886 13.463 11.3545 13.6416 10.9908 13.714C10.6271 13.7863 10.2501 13.7492 9.90747 13.6073C9.56486 13.4654 9.27203 13.225 9.066 12.9167C8.85997 12.6084 8.75001 12.2458 8.75001 11.875C8.76266 11.3817 8.96427 10.9121 9.31319 10.5632C9.66212 10.2143 10.1317 10.0127 10.625 10ZM21.25 20H16.25C15.3711 19.9987 14.5073 20.2291 13.7458 20.668C12.9843 21.1069 12.352 21.7388 11.9125 22.5L9.75001 21.25C10.4087 20.1091 11.3562 19.1619 12.4973 18.5036C13.6383 17.8453 14.9327 17.4992 16.25 17.5H21.25M19.375 13.75C19.0042 13.75 18.6417 13.64 18.3333 13.434C18.025 13.228 17.7846 12.9351 17.6427 12.5925C17.5008 12.2499 17.4637 11.8729 17.536 11.5092C17.6084 11.1455 17.787 10.8114 18.0492 10.5492C18.3114 10.287 18.6455 10.1084 19.0092 10.036C19.3729 9.96368 19.7499 10.0008 20.0925 10.1427C20.4351 10.2846 20.728 10.525 20.934 10.8333C21.14 11.1416 21.25 11.5042 21.25 11.875C21.2374 12.3683 21.0357 12.8379 20.6868 13.1868C20.3379 13.5357 19.8683 13.7373 19.375 13.75Z" fill="#E9E9EA"/>
</g>
</svg>
