<svg width="30" height="30" viewBox="0 0 30 30" fill="none" xmlns="http://www.w3.org/2000/svg">
<g id="mdi:emoticon-excited">
<path id="Vector" d="M15 2.5C8.0875 2.5 2.5 8.0875 2.5 15C2.5 21.9125 8.0875 27.5 15 27.5C18.3152 27.5 21.4946 26.183 23.8388 23.8388C26.183 21.4946 27.5 18.3152 27.5 15C27.5 8.0875 21.875 2.5 15 2.5ZM11.1 9.775L13.75 12.425L12.425 13.75L11.1 12.425L9.775 13.75L8.45 12.425L11.1 9.775ZM15 21.875C12.0875 21.875 9.6125 20.05 8.6125 17.5H21.3875C20.3875 20.05 17.9125 21.875 15 21.875ZM20.225 13.75L18.9 12.425L17.575 13.75L16.25 12.425L18.9 9.775L21.55 12.425L20.225 13.75Z" fill="#9B9C9F"/>
</g>
</svg>
