<svg width="30" height="30" viewBox="0 0 30 30" fill="none" xmlns="http://www.w3.org/2000/svg">
<g id="mdi:emoticon-wink">
<path id="Vector" d="M15 2.5C13.3585 2.5 11.733 2.82332 10.2165 3.45151C8.69989 4.07969 7.3219 5.00043 6.16117 6.16117C3.81696 8.50537 2.5 11.6848 2.5 15C2.5 18.3152 3.81696 21.4946 6.16117 23.8388C7.3219 24.9996 8.69989 25.9203 10.2165 26.5485C11.733 27.1767 13.3585 27.5 15 27.5C18.3152 27.5 21.4946 26.183 23.8388 23.8388C26.183 21.4946 27.5 18.3152 27.5 15C27.5 13.3585 27.1767 11.733 26.5485 10.2165C25.9203 8.69989 24.9996 7.3219 23.8388 6.16117C22.6781 5.00043 21.3001 4.07969 19.7835 3.45151C18.267 2.82332 16.6415 2.5 15 2.5ZM8.75 11.875C8.75 10.875 9.625 10 10.625 10C11.625 10 12.5 10.875 12.5 11.875C12.5 12.875 11.625 13.75 10.625 13.75C9.625 13.75 8.75 12.875 8.75 11.875ZM15 21.5375C12.8125 21.5375 10.8875 20.625 9.7625 19.275L11.5375 17.5C12.1 18.4 13.4375 19.0375 15 19.0375C16.5625 19.0375 17.9 18.4 18.4625 17.5L20.2375 19.275C19.1125 20.625 17.1875 21.5375 15 21.5375ZM21.25 12.5H16.25V11.25H21.25V12.5Z" fill="#E9E9EA"/>
</g>
</svg>
