<svg width="16" height="16" viewBox="0 0 16 16" fill="none" xmlns="http://www.w3.org/2000/svg">
<g id="material-symbols:thumb-up-rounded">
<path id="Vector" d="M13.9997 5.33338C14.3552 5.33338 14.6663 5.46671 14.933 5.73338C15.1997 6.00005 15.333 6.31116 15.333 6.66671V8.00005C15.333 8.07783 15.3246 8.16116 15.3077 8.25005C15.2908 8.33894 15.2659 8.42227 15.233 8.50005L13.233 13.2C13.133 13.4223 12.9663 13.6112 12.733 13.7667C12.4997 13.9223 12.2552 14 11.9997 14H6.66634C6.29968 14 5.98568 13.8694 5.72434 13.608C5.46301 13.3467 5.33256 13.0329 5.33301 12.6667V5.88338C5.33301 5.7056 5.36923 5.53627 5.44168 5.37538C5.51412 5.21449 5.61123 5.07271 5.73301 4.95005L9.34968 1.35005C9.51634 1.19449 9.71368 1.10005 9.94168 1.06671C10.1697 1.03338 10.389 1.07227 10.5997 1.18338C10.8108 1.29449 10.9637 1.45005 11.0583 1.65005C11.153 1.85005 11.1723 2.0556 11.1163 2.26671L10.3663 5.33338H13.9997ZM2.66634 14C2.29968 14 1.98568 13.8694 1.72434 13.608C1.46301 13.3467 1.33256 13.0329 1.33301 12.6667V6.66671C1.33301 6.30005 1.46368 5.98605 1.72501 5.72471C1.98634 5.46338 2.30012 5.33294 2.66634 5.33338C3.03301 5.33338 3.34701 5.46405 3.60834 5.72538C3.86968 5.98671 4.00012 6.30049 3.99968 6.66671V12.6667C3.99968 13.0334 3.86901 13.3474 3.60768 13.6087C3.34634 13.87 3.03256 14.0005 2.66634 14Z" fill="white"/>
</g>
</svg>
