<svg width="16" height="16" viewBox="0 0 16 16" fill="none" xmlns="http://www.w3.org/2000/svg">
<g id="material-symbols:thumb-down-rounded">
<path id="Vector" d="M2.00033 10.6667C1.64477 10.6667 1.33366 10.5333 1.06699 10.2667C0.800326 10 0.666992 9.68889 0.666992 9.33333V8C0.666992 7.92222 0.675214 7.83889 0.691659 7.75C0.708103 7.66111 0.733214 7.57778 0.766992 7.5L2.76699 2.8C2.86699 2.57778 3.03366 2.38889 3.26699 2.23333C3.50033 2.07778 3.74477 2 4.00033 2H9.33366C9.70033 2 10.0143 2.13045 10.2757 2.39133C10.537 2.65222 10.6674 2.96622 10.667 3.33333V10.1167C10.667 10.2944 10.6308 10.464 10.5583 10.6253C10.4859 10.7867 10.3888 10.9282 10.267 11.05L6.65033 14.65C6.48366 14.8056 6.28655 14.9 6.05899 14.9333C5.83144 14.9667 5.61188 14.9278 5.40033 14.8167C5.18921 14.7056 5.03655 14.55 4.94233 14.35C4.8481 14.15 4.82855 13.9444 4.88366 13.7333L5.63366 10.6667H2.00033ZM13.3337 2C13.7003 2 14.0143 2.13067 14.2757 2.392C14.537 2.65333 14.6674 2.96711 14.667 3.33333V9.33333C14.667 9.7 14.5363 10.014 14.275 10.2753C14.0137 10.5367 13.6999 10.6671 13.3337 10.6667C12.967 10.6667 12.653 10.536 12.3917 10.2747C12.1303 10.0133 11.9999 9.69956 12.0003 9.33333V3.33333C12.0003 2.96667 12.131 2.65267 12.3923 2.39133C12.6537 2.13 12.9674 1.99956 13.3337 2Z" fill="#9B9C9F"/>
</g>
</svg>
