<svg width="24" height="24" viewBox="0 0 24 24" fill="none" xmlns="http://www.w3.org/2000/svg">
<g clip-path="url(#clip0_3207_3867)">
<path d="M23.9933 12C23.9933 18.6232 18.6165 23.9932 11.9933 23.9932C5.37002 23.9932 0 18.6232 0 12C0 5.37673 5.37002 0 12 0C18.63 0 24 5.37 24 12H23.9933Z" fill="#E83E44"/>
<path d="M5.81444 9.15604C5.43713 8.92696 5.00591 8.86632 4.57469 8.92696C5.36301 8.09148 5.78749 7.17514 5.78749 6.2588C5.78749 6.17795 5.78749 6.09036 5.77402 6.00277C5.73359 5.43006 5.47082 5.00558 5.05981 4.85735C4.64881 4.70238 3.90091 4.78323 2.70832 6.00277L1.99412 6.80456C1.79872 7.04712 1.04409 8.1858 0.902596 9.36491C0.666773 11.3795 0.821742 13.3874 1.33381 15.1729C1.39445 15.3817 1.58311 15.8803 2.04802 16.069C2.53988 16.2711 3.00479 16.0286 3.41579 15.813L3.5236 15.7591L3.94808 15.5704L4.35908 15.3885L4.86441 15.1661C5.22826 15.0179 5.56515 14.8831 5.8953 14.6069C6.33325 14.2296 6.65667 13.7445 6.82511 13.1852C6.9127 12.8955 6.96661 12.5856 7.00029 12.2285C7.02725 11.9522 7.0542 11.4132 6.95313 10.9348C6.73078 9.89046 6.20523 9.39186 5.80771 9.15604H5.81444ZM1.99412 10.6586L2.01433 10.9213C2.01433 10.982 2.04128 11.0359 2.09518 11.0561C2.14235 11.0763 2.19625 11.0696 2.24342 11.0291C2.68811 10.6518 3.36863 10.3149 3.91439 10.5036C4.33887 10.6518 4.62859 11.0898 4.78356 11.8107C5.0935 13.3267 4.05588 14.0544 3.40905 14.3509H3.38884L2.56009 14.7686C2.56009 14.7686 2.51293 14.7888 2.45902 14.7686C2.40512 14.7416 2.39165 14.708 2.35796 14.6204C1.79198 12.5384 1.60333 10.3554 1.8122 8.31382C1.83241 8.15885 1.90653 7.97693 2.02107 7.82196L2.71506 7.08081L2.79591 6.99322C3.17323 6.62938 3.53033 6.44072 3.71899 6.52158C3.8807 6.58895 3.91439 6.84499 3.92112 7.04712C3.95481 8.1319 3.34841 9.2369 2.07497 10.4362C2.07497 10.4362 1.98064 10.5171 1.98738 10.6586H1.99412Z" fill="white"/>
<path d="M15.2343 2.83569C14.9985 2.04064 14.6211 1.87219 14.5133 1.83177C13.5162 1.51509 12.4785 1.44771 11.4746 1.6229C9.96534 1.89914 8.65821 2.6942 7.79577 3.8531C6.88617 5.07263 6.5358 6.59536 6.80531 8.13831C7.08156 9.68126 7.85641 10.9345 9.06921 11.7565C10.4909 12.7133 12.3842 13.003 14.4055 12.5785C15.5981 12.3225 16.5886 11.8508 17.35 11.1973C17.6936 10.9008 17.7542 10.5235 17.7542 10.2607C17.7542 10.2607 17.7744 10.0451 17.606 9.37806C17.5588 9.21635 17.4914 9.16245 17.3769 9.16245C17.2893 9.16245 17.2017 9.25678 17.1882 9.27699C16.6223 9.9373 15.7531 10.3955 14.6683 10.6111C11.8856 11.1434 9.74299 9.84297 9.2107 7.29609C8.98162 6.1911 9.17028 5.13327 9.74973 4.31126C10.3292 3.47578 11.2725 2.92328 12.4179 2.75484C13.2871 2.62682 14.1697 2.73463 14.9648 3.06478C14.9648 3.06478 15.3084 3.16584 15.2343 2.82896V2.83569Z" fill="white"/>
</g>
<defs>
<clipPath id="clip0_3207_3867">
<rect width="24" height="24" fill="white"/>
</clipPath>
</defs>
</svg>
