<svg width="263" height="150" viewBox="0 0 263 150" fill="none" xmlns="http://www.w3.org/2000/svg">
<rect width="263" height="150" rx="12" fill="#0057BE"/>
<path d="M0 80H263V138C263 144.627 257.627 150 251 150H12C5.37258 150 0 144.627 0 138V80Z" fill="black" fill-opacity="0.2"/>
<mask id="mask0_4558_6202" style="mask-type:luminance" maskUnits="userSpaceOnUse" x="18" y="18" width="26" height="26">
<path d="M30.4174 18.1856C23.3419 18.5057 17.8655 24.501 18.1831 31.5802C18.5044 38.6583 24.5022 44.1321 31.5777 43.8158C38.6557 43.492 44.1346 37.4967 43.8145 30.4212C43.4994 23.542 37.8293 18.1744 31.01 18.1719C30.8137 18.1719 30.6162 18.1756 30.4174 18.1856Z" fill="white"/>
</mask>
<g mask="url(#mask0_4558_6202)">
<mask id="mask1_4558_6202" style="mask-type:luminance" maskUnits="userSpaceOnUse" x="17" y="18" width="28" height="27">
<path d="M17.8652 18.1719H44.1331V44.1334H17.8652V18.1719Z" fill="white"/>
</mask>
<g mask="url(#mask1_4558_6202)">
<path d="M44.1343 18.1719H17.8652V44.1334H44.1343V18.1719Z" fill="url(#paint0_radial_4558_6202)"/>
</g>
</g>
<mask id="mask2_4558_6202" style="mask-type:luminance" maskUnits="userSpaceOnUse" x="18" y="18" width="27" height="26">
<path d="M28.0686 42.021C26.6345 41.8797 24.9203 41.4296 23.4262 40.1331C22.0508 38.949 21.2006 37.3186 20.7868 35.8795C20.3642 34.4104 20.1866 32.6962 20.8856 32.8325C21.1006 32.8712 21.4732 33.8165 21.8758 34.5029C22.2934 35.2118 22.631 35.6044 22.9473 35.8457C23.0911 35.9545 23.5825 34.8655 24.2964 34.2441C24.7103 33.899 25.1604 33.784 25.2391 34.8067C25.3242 36.0583 25.0991 37.5474 25.4667 37.5474C25.803 37.5474 26.577 37.2898 28.2674 37.1461C28.9063 37.0923 29.2702 37.2123 28.6625 38.0663C28.3587 38.4939 27.9548 39.0965 26.9933 39.788C28.4325 41.1358 30.1579 40.9708 30.1904 41.5447C30.2092 41.8747 29.5665 42.0573 28.7213 42.0573C28.5137 42.0573 28.2937 42.046 28.0661 42.021M32.9086 29.913C31.5907 29.6379 31.3219 28.4426 31.3219 28.4426C31.2132 28.02 31.1881 27.4874 31.2769 26.8072C31.4545 25.3869 31.8396 24.7217 32.2734 23.6202C32.8611 22.1423 31.4357 21.2783 31.667 20.7357C31.9896 20.0005 33.0061 20.9357 34.1464 21.0045C35.1254 21.057 35.7143 21.0108 36.4745 21.112C37.4872 21.2446 38.6988 21.5884 39.2377 22.2211C39.7303 22.8012 38.9739 23.5064 38.0699 23.065C37.4047 22.7412 36.5707 22.9387 37.0596 23.6314C37.6485 24.2878 37.9311 24.3066 38.535 24.4629C40.1904 24.9017 40.2242 26.4884 39.1014 27.3061C37.8298 28.2401 36.5332 27.8525 36.0194 26.022C35.7593 25.1068 35.1166 24.6442 34.4527 24.9042C33.7976 25.1618 34.1864 26.3646 34.6865 27.4786C35.5517 29.6892 33.8013 29.9205 33.1299 29.9205C33.0249 29.9205 32.9473 29.9155 32.9073 29.9105M31.9571 42.4336C31.9458 42.1411 32.3734 42.0673 32.3734 42.0673C36.2207 41.3084 35.0954 38.7852 33.735 37.4999C33.1624 36.961 27.811 32.3398 27.811 32.3398C22.7073 27.9437 23.1161 24.5166 23.1161 24.5166C23.3674 20.2931 27.0571 19.2466 29.8553 19.4904C30.1816 19.5179 30.3667 19.7142 30.3042 19.9905C30.2454 20.2881 29.8116 20.3081 29.8116 20.3081C28.9213 20.3606 28.1261 20.4494 27.521 20.8595C25.2692 22.3761 25.9293 24.9542 28.9351 27.825C29.3139 28.1838 29.7153 28.5664 30.1316 28.954C30.1316 28.954 30.7305 29.4854 31.9346 30.6269C34.2464 32.755 35.5105 33.9027 35.5105 33.9027C39.5853 37.2961 38.1899 40.3981 36.637 41.4734C35.448 42.2973 34.1326 42.6824 32.4072 42.7762L32.3634 42.7787C32.2059 42.7787 31.9683 42.6824 31.9583 42.4336M30.408 18.0138C23.2386 18.3363 17.6885 24.4166 18.0136 31.5884C18.3387 38.759 24.4177 44.3104 31.587 43.9865C38.7551 43.6627 44.3114 37.5862 43.9876 30.4144C43.6738 23.4401 37.9186 18 31.0044 18C30.8081 18 30.608 18.005 30.408 18.0138Z" fill="white"/>
</mask>
<g mask="url(#mask2_4558_6202)">
<mask id="mask3_4558_6202" style="mask-type:luminance" maskUnits="userSpaceOnUse" x="17" y="18" width="28" height="27">
<path d="M17.6877 18H44.3107V44.3104H17.6877V18Z" fill="white"/>
</mask>
<g mask="url(#mask3_4558_6202)">
<path d="M44.3107 18H17.6877V44.3104H44.3107V18Z" fill="url(#paint1_radial_4558_6202)"/>
</g>
</g>
<mask id="mask4_4558_6202" style="mask-type:luminance" maskUnits="userSpaceOnUse" x="18" y="18" width="27" height="26">
<path d="M28.0686 42.021C26.6345 41.8797 24.9203 41.4296 23.4262 40.1331C22.0508 38.949 21.2006 37.3186 20.7868 35.8795C20.3642 34.4104 20.1866 32.6962 20.8856 32.8325C21.1006 32.8712 21.4732 33.8165 21.8758 34.5029C22.2934 35.2118 22.631 35.6044 22.9473 35.8457C23.0911 35.9545 23.5825 34.8655 24.2964 34.2441C24.7103 33.899 25.1604 33.784 25.2391 34.8067C25.3242 36.0583 25.0991 37.5474 25.4667 37.5474C25.803 37.5474 26.577 37.2898 28.2674 37.1461C28.9063 37.0923 29.2702 37.2123 28.6625 38.0663C28.3587 38.4939 27.9548 39.0965 26.9933 39.788C28.4325 41.1358 30.1579 40.9708 30.1904 41.5447C30.2092 41.8747 29.5665 42.0573 28.7213 42.0573C28.5137 42.0573 28.2937 42.046 28.0661 42.021M32.9086 29.913C31.5907 29.6379 31.3219 28.4426 31.3219 28.4426C31.2132 28.02 31.1881 27.4874 31.2769 26.8072C31.4545 25.3869 31.8396 24.7217 32.2734 23.6202C32.8611 22.1423 31.4357 21.2783 31.667 20.7357C31.9896 20.0005 33.0061 20.9357 34.1464 21.0045C35.1254 21.057 35.7143 21.0108 36.4745 21.112C37.4872 21.2446 38.6988 21.5884 39.2377 22.2211C39.7303 22.8012 38.9739 23.5064 38.0699 23.065C37.4047 22.7412 36.5707 22.9387 37.0596 23.6314C37.6485 24.2878 37.9311 24.3066 38.535 24.4629C40.1904 24.9017 40.2242 26.4884 39.1014 27.3061C37.8298 28.2401 36.5332 27.8525 36.0194 26.022C35.7593 25.1068 35.1166 24.6442 34.4527 24.9042C33.7976 25.1618 34.1864 26.3646 34.6865 27.4786C35.5517 29.6892 33.8013 29.9205 33.1299 29.9205C33.0249 29.9205 32.9473 29.9155 32.9073 29.9105M31.9571 42.4336C31.9458 42.1411 32.3734 42.0673 32.3734 42.0673C36.2207 41.3084 35.0954 38.7852 33.735 37.4999C33.1624 36.961 27.811 32.3398 27.811 32.3398C22.7073 27.9437 23.1161 24.5166 23.1161 24.5166C23.3674 20.2931 27.0571 19.2466 29.8553 19.4904C30.1816 19.5179 30.3667 19.7142 30.3042 19.9905C30.2454 20.2881 29.8116 20.3081 29.8116 20.3081C28.9213 20.3606 28.1261 20.4494 27.521 20.8595C25.2692 22.3761 25.9293 24.9542 28.9351 27.825C29.3139 28.1838 29.7153 28.5664 30.1316 28.954C30.1316 28.954 30.7305 29.4854 31.9346 30.6269C34.2464 32.755 35.5105 33.9027 35.5105 33.9027C39.5853 37.2961 38.1899 40.3981 36.637 41.4734C35.448 42.2973 34.1326 42.6824 32.4072 42.7762L32.3634 42.7787C32.2059 42.7787 31.9683 42.6824 31.9583 42.4336M30.408 18.0138C23.2386 18.3363 17.6885 24.4166 18.0136 31.5884C18.3387 38.759 24.4177 44.3104 31.587 43.9865C38.7551 43.6627 44.3114 37.5862 43.9876 30.4144C43.6738 23.4401 37.9186 18 31.0044 18C30.8081 18 30.608 18.005 30.408 18.0138Z" fill="white"/>
</mask>
<g mask="url(#mask4_4558_6202)">
<mask id="mask5_4558_6202" style="mask-type:luminance" maskUnits="userSpaceOnUse" x="17" y="18" width="28" height="27">
<path d="M17.6877 18H44.3107V44.3104H17.6877V18Z" fill="white"/>
</mask>
<g mask="url(#mask5_4558_6202)">
<path d="M44.3107 18H17.6877V44.3104H44.3107V18Z" fill="url(#paint2_radial_4558_6202)"/>
</g>
</g>
<defs>
<radialGradient id="paint0_radial_4558_6202" cx="0" cy="0" r="1" gradientUnits="userSpaceOnUse" gradientTransform="translate(32.603 26.8398) scale(12.1912 12.1912)">
<stop stop-color="white"/>
<stop offset="1" stop-color="#D3A245"/>
</radialGradient>
<radialGradient id="paint1_radial_4558_6202" cx="0" cy="0" r="1" gradientUnits="userSpaceOnUse" gradientTransform="translate(33.0001 27.3811) scale(27.26 27.26)">
<stop stop-color="#2BBAEE"/>
<stop offset="0.22" stop-color="#0092D3"/>
<stop offset="0.29" stop-color="#007CC3"/>
<stop offset="0.38" stop-color="#006BB6"/>
<stop offset="0.47" stop-color="#0060AE"/>
<stop offset="0.57" stop-color="#005DAC"/>
<stop offset="1" stop-color="#005DAC"/>
</radialGradient>
<radialGradient id="paint2_radial_4558_6202" cx="0" cy="0" r="1" gradientUnits="userSpaceOnUse" gradientTransform="translate(33.0001 27.3811) scale(27.26 27.26)">
<stop stop-color="#2BBAEE"/>
<stop offset="0.22" stop-color="#0092D3"/>
<stop offset="0.29" stop-color="#007CC3"/>
<stop offset="0.38" stop-color="#006BB6"/>
<stop offset="0.47" stop-color="#0060AE"/>
<stop offset="0.57" stop-color="#005DAC"/>
<stop offset="1" stop-color="#005DAC"/>
</radialGradient>
</defs>
</svg>
