<svg width="263" height="150" viewBox="0 0 263 150" fill="none" xmlns="http://www.w3.org/2000/svg">
<rect width="263" height="150" rx="12" fill="#1F2329"/>
<path d="M0 80H263V138C263 144.627 257.627 150 251 150H12C5.37258 150 0 144.627 0 138V80Z" fill="black" fill-opacity="0.2"/>
<g clip-path="url(#clip0_3742_1294)">
<path d="M26.0006 26C24.3457 26 23 27.3456 23 29.0006V37H24.0002V29.0006C24.0002 27.8966 24.8966 27.0002 26.0006 27.0002H75.2819C76.3859 27.0002 77.2823 27.8966 77.2823 29.0006V37H78.2825V29.0006C78.2825 27.3456 76.9368 26 75.2819 26H26.0006Z" fill="white"/>
<path d="M32.2134 34.894C32.2134 34.973 32.1637 35.0001 32.0779 35.0001H31.3351C31.2493 35.0001 31.2222 34.9708 31.2222 34.885V32.8665C31.2222 32.7739 31.1567 32.7243 31.0642 32.7243H29.1179C29.0321 32.7243 28.9825 32.7739 28.9825 32.8665V34.885C28.9825 34.9708 28.9328 35.0001 28.8538 35.0001H28.0974C28.0274 35.0001 27.998 34.9708 27.998 34.894V29.8817C27.998 29.8027 28.0274 29.7598 28.0974 29.7598H28.8538C28.9328 29.7598 28.9825 29.8027 28.9825 29.8817V31.8211C28.9825 31.9137 29.0321 31.9566 29.1179 31.9566H31.0642C31.1567 31.9566 31.2222 31.9137 31.2222 31.8211V29.8817C31.2222 29.8027 31.2493 29.7598 31.3351 29.7598H32.0779C32.1637 29.7598 32.2134 29.8027 32.2134 29.8817V34.894Z" fill="white"/>
<path d="M34.0034 35.0718C33.4547 35.0718 33.168 34.6293 33.168 34.2522V31.1364C33.168 31.0439 33.2041 31.001 33.2899 31.001H34.0034C34.0734 31.001 34.1253 31.0439 34.1253 31.1364V34.1461C34.1253 34.2319 34.1614 34.2748 34.2607 34.2748H35.5658C35.6516 34.2748 35.708 34.2319 35.708 34.1461V31.1364C35.708 31.0439 35.7441 31.001 35.8299 31.001H36.5434C36.6224 31.001 36.6721 31.0439 36.6721 31.1364V35.6791C36.6721 35.792 36.636 35.9004 36.5863 36.0065L36.1009 36.799C36.058 36.8713 35.9947 36.9142 35.9225 36.9142H35.8299C35.7441 36.9142 35.708 36.8645 35.708 36.7855V34.7738C35.708 34.688 35.6583 34.6518 35.5793 34.6744L34.2111 35.0582C34.1456 35.0718 34.0688 35.0718 34.0034 35.0718Z" fill="white"/>
<path d="M38.4465 35.065C38.0108 35.065 37.627 34.7083 37.627 34.2454V31.1364C37.627 31.0439 37.6631 31.001 37.7489 31.001H38.4691C38.5346 31.001 38.5843 31.0439 38.5843 31.1364V34.1461C38.5843 34.2319 38.6272 34.268 38.7265 34.268H40.0315C40.1173 34.268 40.1738 34.2319 40.1738 34.1461V31.1364C40.1738 31.0439 40.2031 31.001 40.2889 31.001H41.0024C41.0814 31.001 41.1311 31.0439 41.1311 31.1364V34.8934C41.1311 34.9724 41.0814 34.9995 41.0024 34.9995H40.2889C40.2031 34.9995 40.1738 34.9702 40.1738 34.8844V34.7692C40.1738 34.6767 40.1173 34.6406 40.0383 34.6699L38.6701 35.0402C38.6001 35.0628 38.521 35.0628 38.4488 35.0628L38.4465 35.065Z" fill="white"/>
<path d="M45.5803 31.7716V34.8941C45.5803 34.9732 45.5306 35.0003 45.4516 35.0003H44.7381C44.6523 35.0003 44.623 34.9709 44.623 34.8851V31.8755C44.623 31.7829 44.5665 31.7332 44.4807 31.7332H43.1757C43.0764 31.7332 43.0335 31.7829 43.0335 31.8755V34.8851C43.0335 34.9709 42.9838 35.0003 42.9183 35.0003H42.1981C42.1123 35.0003 42.0762 34.9709 42.0762 34.8941V31.1372C42.0762 31.0446 42.1123 31.0017 42.1981 31.0017H42.9183C42.9838 31.0017 43.0335 31.0446 43.0335 31.1372V31.2591C43.0335 31.3381 43.0696 31.372 43.1757 31.3449L44.5372 30.9746C44.6072 30.9611 44.6727 30.9385 44.7426 30.9385C45.2145 30.9385 45.578 31.3313 45.578 31.7739L45.5803 31.7716Z" fill="white"/>
<path d="M46.3965 34.246V32.4488C46.3965 32.065 46.5613 31.7715 46.9022 31.5863L47.6586 31.1438C47.8166 31.0445 47.9724 31.0016 48.1576 31.0016H48.8123C48.9049 31.0016 48.9478 30.9654 48.9478 30.8796V29.403C48.9478 29.324 48.9839 29.2676 49.0539 29.2676H49.7809C49.8667 29.2676 49.9029 29.324 49.9029 29.403V34.894C49.9029 34.973 49.8667 35.0001 49.7809 35.0001H49.0539C48.9817 35.0001 48.9478 34.9708 48.9478 34.885V34.7698C48.9478 34.6773 48.9049 34.6411 48.8123 34.6705L47.4373 35.0408C47.3583 35.0633 47.2951 35.0633 47.2228 35.0633C46.8526 35.0769 46.3965 34.736 46.3965 34.2438V34.246ZM48.9478 34.1467V31.8866C48.9478 31.7873 48.9049 31.7376 48.8056 31.7376H47.487C47.3877 31.7376 47.3515 31.7873 47.3515 31.8866V34.1467C47.3515 34.2325 47.3877 34.2686 47.487 34.2686H48.8056C48.9049 34.2686 48.9478 34.2325 48.9478 34.1467Z" fill="white"/>
<path d="M51.5412 35.065C51.0919 35.065 50.7148 34.7015 50.7148 34.2454V32.4482C50.7148 32.0644 50.8797 31.7709 51.2138 31.5857L51.977 31.1432C52.135 31.0439 52.2908 31.001 52.4692 31.001H54.1016C54.1806 31.001 54.2235 31.0439 54.2235 31.1364V34.8934C54.2235 34.9724 54.1806 34.9995 54.1016 34.9995H53.3745C53.2955 34.9995 53.2684 34.9702 53.2684 34.8844V34.7692C53.2684 34.6767 53.2188 34.6406 53.1262 34.6699L51.758 35.0402C51.6789 35.0628 51.6157 35.0628 51.5435 35.0628L51.5412 35.065ZM53.2662 34.1461V31.886C53.2662 31.7867 53.2165 31.737 53.1239 31.737H51.8054C51.706 31.737 51.6699 31.7867 51.6699 31.886V34.1461C51.6699 34.2319 51.706 34.268 51.8054 34.268H53.1239C53.2165 34.268 53.2662 34.2319 53.2662 34.1461Z" fill="white"/>
<path d="M56.1331 29.9878C56.1331 30.0736 56.0834 30.1007 56.0112 30.1007H55.2977C55.2051 30.1007 55.1758 30.0714 55.1758 29.9878V29.403C55.1758 29.324 55.2029 29.2676 55.2977 29.2676H56.0112C56.0834 29.2676 56.1331 29.324 56.1331 29.403V29.9878ZM56.1331 34.894C56.1331 34.973 56.0834 35.0001 56.0112 35.0001H55.2977C55.2051 35.0001 55.1758 34.9708 55.1758 34.894V31.137C55.1758 31.0445 55.2029 31.0016 55.2977 31.0016H56.0112C56.0834 31.0016 56.1331 31.0445 56.1331 31.137V34.894Z" fill="white"/>
<path d="M58.1328 33.9728V31.2702C58.1328 30.8706 58.3044 30.5635 58.6521 30.3581L59.4875 29.8952C59.6365 29.8027 59.8149 29.7598 59.9797 29.7598H61.7476C61.8334 29.7598 61.8763 29.8027 61.8763 29.8885V30.41C61.8763 30.489 61.8334 30.5229 61.7476 30.5229H59.273C59.1872 30.5229 59.1511 30.5726 59.1511 30.6651V34.1015C59.1511 34.1941 59.1872 34.237 59.273 34.237H61.8176C61.8966 34.237 61.9463 34.2731 61.9463 34.3431C61.9463 34.4221 61.9101 34.4853 61.8311 34.5282L61.2192 34.8714C61.0544 34.964 60.8851 35.0001 60.7135 35.0001H59.1737C58.6679 35.0001 58.1328 34.6366 58.1328 33.9728Z" fill="white"/>
<path d="M63.3693 35.065C62.92 35.065 62.543 34.7015 62.543 34.2454V32.4482C62.543 32.0644 62.7078 31.7709 63.0419 31.5857L63.8051 31.1432C63.9631 31.0439 64.1189 31.001 64.2973 31.001H65.9297C66.0087 31.001 66.0516 31.0439 66.0516 31.1364V34.8934C66.0516 34.9724 66.0087 34.9995 65.9297 34.9995H65.2027C65.1236 34.9995 65.0966 34.9702 65.0966 34.8844V34.7692C65.0966 34.6767 65.0469 34.6406 64.9543 34.6699L63.5861 35.0402C63.5071 35.0628 63.4438 35.0628 63.3716 35.0628L63.3693 35.065ZM65.0943 34.1461V31.886C65.0943 31.7867 65.0446 31.737 64.9521 31.737H63.6335C63.5341 31.737 63.498 31.7867 63.498 31.886V34.1461C63.498 34.2319 63.5341 34.268 63.6335 34.268H64.9521C65.0446 34.268 65.0943 34.2319 65.0943 34.1461Z" fill="white"/>
<path d="M69.6278 31.6266C69.6278 31.6989 69.5781 31.7327 69.4991 31.7327H68.0947C68.0022 31.7327 67.966 31.7824 67.966 31.875V34.8846C67.966 34.9704 67.9096 34.9998 67.8373 34.9998H67.1171C67.0313 34.9998 67.002 34.9704 67.002 34.8937V31.1367C67.002 31.0441 67.0313 31.0012 67.1171 31.0012H67.8373C67.9096 31.0012 67.966 31.0441 67.966 31.1367V31.2496C67.966 31.3286 68.0022 31.3625 68.0947 31.3625C68.1173 31.3625 68.1444 31.3625 68.1738 31.3489L68.5869 31.078C68.736 30.999 68.894 30.9561 69.0791 30.9561H69.4991C69.5781 30.9561 69.6278 30.999 69.6278 31.078V31.6266Z" fill="white"/>
<path d="M69.7715 34.246V32.4488C69.7715 32.065 69.9363 31.7715 70.2772 31.5863L71.0336 31.1438C71.1916 31.0445 71.3474 31.0016 71.5326 31.0016H72.1896C72.2822 31.0016 72.3251 30.9654 72.3251 30.8796V29.403C72.3251 29.324 72.3612 29.2676 72.4312 29.2676H73.1582C73.244 29.2676 73.2801 29.324 73.2801 29.403V34.894C73.2801 34.973 73.244 35.0001 73.1582 35.0001H72.4312C72.3612 35.0001 72.3251 34.9708 72.3251 34.885V34.7698C72.3251 34.6773 72.2822 34.6411 72.1896 34.6705L70.8123 35.0408C70.7333 35.0633 70.6701 35.0633 70.5978 35.0633C70.2276 35.0769 69.7715 34.736 69.7715 34.2438V34.246ZM72.3251 34.1467V31.8866C72.3251 31.7873 72.2822 31.7376 72.1828 31.7376H70.8643C70.7649 31.7376 70.7288 31.7873 70.7288 31.8866V34.1467C70.7288 34.2325 70.7649 34.2686 70.8643 34.2686H72.1828C72.2822 34.2686 72.3251 34.2325 72.3251 34.1467Z" fill="white"/>
</g>
<defs>
<clipPath id="clip0_3742_1294">
<rect width="55.2802" height="11" fill="white" transform="translate(23 26)"/>
</clipPath>
</defs>
</svg>
