<svg width="263" height="150" viewBox="0 0 263 150" fill="none" xmlns="http://www.w3.org/2000/svg">
<rect width="263" height="150" rx="12" fill="#FAE100"/>
<path d="M0 80H263V138C263 144.627 257.627 150 251 150H12C5.37258 150 0 144.627 0 138V80Z" fill="black" fill-opacity="0.2"/>
<path d="M45.7518 16H20.8763C19.2878 16 18 17.2878 18 18.8763V43.7518C18 45.3403 19.2878 46.6281 20.8763 46.6281H45.7518C47.3403 46.6281 48.6281 45.3403 48.6281 43.7518V18.8763C48.6281 17.2878 47.3403 16 45.7518 16Z" fill="#FAE100"/>
<path d="M38.4429 31.3141C39.8105 30.4112 40.7134 28.8642 40.7134 27.1025C40.7134 24.3203 38.4576 22.0615 35.6724 22.0615H27.2228C27.061 22.0615 26.9316 22.1909 26.9316 22.3527V40.2725C26.9316 40.4343 27.061 40.5666 27.2228 40.5666H35.6724C38.4576 40.5666 40.7134 38.3108 40.7134 35.5257C40.7134 33.764 39.8105 32.214 38.4429 31.3141ZM34.296 35.5257H32.7079V27.1025H34.296V35.5257Z" fill="#1E1E1E"/>
</svg>
