<svg width="263" height="150" viewBox="0 0 263 150" fill="none" xmlns="http://www.w3.org/2000/svg">
<rect width="263" height="150" rx="12" fill="#4790FF"/>
<path d="M0 80H263V138C263 144.627 257.627 150 251 150H12C5.37258 150 0 144.627 0 138V80Z" fill="#2C2323" fill-opacity="0.2"/>
<path d="M34.8717 15L29.9963 17.4456L25.1289 15L29.9963 24.2602L34.8717 15Z" fill="#FABE00"/>
<path d="M36.573 21.4188L36.5018 21.3555L39.9763 19.8913V15L33.9375 17.5723C33.9375 17.5723 30.6688 23.7695 30.5896 23.912C33.1539 24.2206 35.0772 26.3655 35.0772 28.9536C35.0772 31.7554 32.7978 34.0349 29.996 34.0349C27.1943 34.0349 24.9149 31.7554 24.9149 28.9536C24.9149 26.3655 26.8381 24.2206 29.4025 23.912C29.3312 23.7695 26.0625 17.5723 26.0625 17.5723L20.0317 15V19.8913L23.5061 21.3555L23.427 21.4188C21.2505 23.3184 20 26.0727 20 28.9615C20 34.4781 24.4875 38.9657 29.996 38.9657C35.5046 38.9657 40 34.4781 40 28.9615C40 26.0727 38.7495 23.3263 36.573 21.4188Z" fill="#FABE00"/>
</svg>
