<svg width="263" height="150" viewBox="0 0 263 150" fill="none" xmlns="http://www.w3.org/2000/svg">
<rect width="263" height="150" rx="12" fill="#007DC8"/>
<path d="M0 80H263V138C263 144.627 257.627 150 251 150H12C5.37258 150 0 144.627 0 138V80Z" fill="black" fill-opacity="0.2"/>
<path d="M44.9963 31.5C44.9963 38.9548 38.9512 45 31.5037 45C24.0561 45 18 38.9548 18 31.5C18 24.0452 24.0378 18 31.5037 18C38.9695 18 44.9963 24.0415 44.9963 31.5Z" fill="white"/>
<path d="M31.4972 44.3227C38.6005 44.3227 44.3601 38.5595 44.3601 31.4562C44.3601 24.3528 38.6005 18.5859 31.4898 18.5859C24.3792 18.5859 18.627 24.3455 18.627 31.4562C18.627 38.5668 24.3938 44.3227 31.4972 44.3227Z" fill="#007BC7"/>
<mask id="mask0_3742_965" style="mask-type:luminance" maskUnits="userSpaceOnUse" x="18" y="18" width="27" height="27">
<path d="M31.5023 44.3152C38.602 44.3152 44.3652 38.5556 44.3652 31.4559C44.3652 24.3562 38.602 18.5967 31.484 18.5967C24.366 18.5967 18.6211 24.3562 18.6211 31.4559C18.6211 38.5556 24.3843 44.3152 31.5023 44.3152Z" fill="white"/>
</mask>
<g mask="url(#mask0_3742_965)">
<path d="M31.5464 37.6622C37.2071 37.6622 42.0549 39.2366 44.1273 41.4774C44.823 39.8774 45.2001 38.1198 45.2001 36.2671C45.2001 28.8855 39.0854 22.9062 31.5427 22.9062C24 22.9062 17.8926 28.8855 17.8926 36.2708C17.8926 38.1198 18.2734 39.8774 18.9727 41.4774C21.0415 39.2366 25.893 37.6622 31.5427 37.6622H31.5464Z" fill="#007BC7"/>
<path d="M31.5466 23.0239C24.0332 23.0239 17.9368 28.9666 17.9258 36.2859L17.9331 36.7656C17.9954 38.4279 18.3652 40.0097 18.9949 41.456C21.0637 39.2371 25.9042 37.6773 31.5429 37.6773C37.1817 37.6773 42.0185 39.2408 44.0873 41.456C44.7244 40.0097 45.0942 38.4242 45.1565 36.7656L45.1638 36.2786C45.1565 28.9592 39.0564 23.0166 31.5429 23.0166L31.5466 23.0239Z" fill="#007DC8"/>
<path d="M31.5434 23.1338C24.0593 23.1338 17.9739 29.0471 17.9629 36.2969V36.7802C18.0251 38.4316 18.3949 40.006 19.0321 41.4487C21.0898 39.2408 25.923 37.692 31.5434 37.692C37.1639 37.692 41.9897 39.2408 44.0585 41.4487C44.6993 40.006 45.0691 38.4279 45.1277 36.7802L45.135 36.2969C45.113 29.0398 39.0349 23.1338 31.5434 23.1338Z" fill="#007ECA"/>
<path d="M31.5417 23.2471C24.0796 23.2471 18.0124 29.1165 17.9941 36.3114L18.0015 36.7874C18.0564 38.435 18.4299 39.9985 19.056 41.4301C21.1137 39.2442 25.925 37.7064 31.5381 37.7064C37.1512 37.7064 41.9587 39.2406 44.0238 41.4301C44.6536 39.9985 45.0271 38.435 45.082 36.7874L45.0893 36.3077C45.0637 29.1165 39.0039 23.2507 31.5381 23.2507L31.5417 23.2471Z" fill="#0080CB"/>
<path d="M31.5437 23.3643C24.1035 23.3643 18.0657 29.197 18.0254 36.3224L18.0364 36.802C18.0876 38.435 18.4611 39.9912 19.0946 41.4155C21.1487 39.2442 25.9452 37.7247 31.5437 37.7247C37.1422 37.7247 41.9314 39.2442 43.9928 41.4155C44.6336 39.9912 44.9961 38.435 45.0547 36.7984V36.3187C45.0254 29.1934 38.9839 23.3643 31.5437 23.3643Z" fill="#0082CC"/>
<path d="M31.5352 23.4736C24.1243 23.4736 18.1047 29.2698 18.0645 36.3329V36.8052C18.123 38.4309 18.4855 39.9761 19.119 41.3967C21.1731 39.2438 25.9587 37.7316 31.5352 37.7316C37.1116 37.7316 41.9009 39.2438 43.9477 41.3967C44.5885 39.9761 44.9546 38.4309 45.0132 36.8052V36.3329C44.9729 29.2698 38.9534 23.4736 31.5352 23.4736Z" fill="#0084CD"/>
<path d="M31.5349 23.5908C24.146 23.5908 18.1411 29.3504 18.0898 36.3439V36.8199C18.1448 38.4309 18.5146 39.9724 19.1517 41.3821C21.1948 39.2475 25.9694 37.7536 31.5349 37.7536C37.1004 37.7536 41.8787 39.2475 43.9182 41.3821C44.5553 39.9761 44.9287 38.4346 44.9727 36.8162V36.3402C44.9287 29.3467 38.9202 23.5908 31.5349 23.5908Z" fill="#0086CF"/>
<path d="M31.5354 23.708C24.1648 23.708 18.1892 29.4236 18.127 36.3585V36.8272C18.1819 38.4383 18.5517 39.9688 19.1851 41.3638C21.2173 39.2475 25.9846 37.7646 31.5391 37.7646C37.0936 37.7646 41.8536 39.2475 43.8894 41.3638C44.5301 39.9688 44.8963 38.4346 44.9439 36.8272V36.3549C44.889 29.4236 38.9024 23.7043 31.5427 23.708H31.5354Z" fill="#0088D0"/>
<path d="M31.532 23.8184C24.1943 23.8184 18.2297 29.5047 18.1602 36.3737V36.8387C18.2078 38.4388 18.5776 39.9546 19.2147 41.346C21.2432 39.248 25.9921 37.7797 31.532 37.7797C37.0719 37.7797 41.8172 39.248 43.853 41.346C44.4901 39.9546 44.8489 38.4315 44.8965 36.835L44.9038 36.3664C44.8306 29.4974 38.8733 23.8184 31.532 23.8184Z" fill="#008AD1"/>
<path d="M31.5325 23.9316C24.2241 23.9316 18.2742 29.5777 18.1973 36.3844V36.8495C18.2449 38.4386 18.611 39.9544 19.2554 41.3312C21.2693 39.2551 26.0109 37.7941 31.5362 37.7941C37.0614 37.7941 41.7957 39.2551 43.8205 41.3312C44.4613 39.9544 44.8311 38.4349 44.8751 36.8495V36.3808C44.7982 29.5814 38.8519 23.9316 31.5362 23.9316H31.5325Z" fill="#008CD3"/>
<path d="M31.5308 24.0488C24.2407 24.0488 18.3091 29.6546 18.2285 36.3955V36.8605C18.2725 38.4386 18.6423 39.9398 19.2757 41.3165C21.2969 39.2551 26.0239 37.8088 31.5308 37.8088C37.0377 37.8088 41.7611 39.2551 43.7822 41.3165C44.4157 39.9398 44.7855 38.4349 44.8294 36.8568V36.3918C44.7415 29.6546 38.8135 24.0452 31.5308 24.0525V24.0488Z" fill="#008ED4"/>
<path d="M31.5274 24.166C24.2629 24.166 18.3569 29.7315 18.2617 36.4065V36.8678C18.3093 38.4386 18.6681 39.9362 19.3089 41.3019C21.3191 39.2551 26.0424 37.8198 31.531 37.8198C37.0197 37.8198 41.7357 39.2551 43.7532 41.3019C44.3939 39.9325 44.7564 38.4386 44.8004 36.8641V36.4028C44.7052 29.7315 38.7918 24.166 31.531 24.166H31.5274Z" fill="#0090D5"/>
<path d="M31.5206 24.2793C24.2854 24.2793 18.394 29.8082 18.2988 36.4209V36.8749C18.3318 38.4384 18.6979 39.9249 19.3387 41.2797C21.3489 39.2549 26.0466 37.8379 31.5242 37.8379C37.0018 37.8379 41.7105 39.2549 43.7207 41.2797C44.3542 39.9249 44.724 38.4384 44.7606 36.8749V36.4136C44.6581 29.8045 38.7777 24.2793 31.5279 24.2793H31.5206Z" fill="#0092D7"/>
<path d="M31.5206 24.3887C24.311 24.3887 18.4343 29.8846 18.3281 36.4351V36.8891C18.3647 38.4379 18.7272 39.9208 19.368 41.2646C21.3708 39.2581 26.0576 37.8484 31.5206 37.8484C36.9835 37.8484 41.6776 39.2581 43.6768 41.2646C44.3175 39.9135 44.6837 38.4379 44.7203 36.8891V36.4314C44.6068 29.8846 38.7411 24.3923 31.5206 24.3923V24.3887Z" fill="#0094D8"/>
<path d="M31.5211 24.5029C24.3372 24.5029 18.4824 29.9586 18.3652 36.4468V36.8935C18.3945 38.4386 18.7607 39.9069 19.4014 41.2507C21.4006 39.2588 26.08 37.8638 31.5247 37.8638C36.9694 37.8638 41.6525 39.2588 43.6516 41.2507C44.2924 39.9069 44.6512 38.435 44.6915 36.8935V36.4395C44.567 29.9586 38.7232 24.5029 31.5247 24.5029H31.5211Z" fill="#0097D9"/>
<path d="M31.5211 24.6162C24.3555 24.6162 18.5227 30.0389 18.3945 36.4612V36.9043C18.4311 38.4384 18.7936 39.8994 19.4344 41.2322C21.4189 39.2586 26.091 37.8782 31.5211 37.8782C36.9511 37.8782 41.6158 39.2586 43.6114 41.2322C44.2521 39.8994 44.6146 38.4384 44.6476 36.9043V36.4502C44.5121 30.0353 38.6866 24.6162 31.5211 24.6162Z" fill="#0099DB"/>
<path d="M31.5181 24.7334C24.3818 24.7334 18.5674 30.1158 18.4355 36.4722V36.9153C18.4612 38.4384 18.82 39.8921 19.4644 41.2175C21.4453 39.2586 26.0991 37.8929 31.5218 37.8929C36.9445 37.8929 41.5983 39.2623 43.5828 41.2175C44.2199 39.8921 44.5861 38.4384 44.6154 36.9079V36.4649C44.4762 30.1122 38.6691 24.7334 31.5218 24.7334H31.5181Z" fill="#009BDC"/>
<path d="M31.5159 24.8506C24.4053 24.8506 18.6054 30.1927 18.459 36.4832V36.9189C18.4919 38.4385 18.8471 39.8848 19.4915 41.1992C21.4687 39.2623 26.1115 37.9039 31.5196 37.9039C36.9277 37.9039 41.5631 39.2623 43.5477 41.1992C44.1884 39.8811 44.5436 38.4385 44.5802 36.9189V36.4759C44.4264 30.1891 38.6412 24.8469 31.5233 24.8506H31.5159Z" fill="#009DDD"/>
<path d="M31.5164 24.957C24.4204 24.957 18.6499 30.2699 18.4961 36.4981V36.9302C18.5181 38.4351 18.8806 39.874 19.5177 41.1812C21.4949 39.2626 26.123 37.9188 31.5164 37.9188C36.9098 37.9188 41.538 39.2626 43.5079 41.1812C44.1523 39.874 44.5111 38.4351 44.5368 36.9302V36.4908C44.3757 30.2662 38.6124 24.957 31.5164 24.957Z" fill="#009FDF"/>
<path d="M31.5096 25.0742C24.4465 25.0742 18.6943 30.3468 18.5332 36.5091V36.9448C18.5515 38.4387 18.914 39.8704 19.5548 41.1702C21.5247 39.2736 26.1455 37.9335 31.5133 37.9335C36.881 37.9335 41.5129 39.2699 43.4791 41.1702C44.1199 39.8704 44.4823 38.4387 44.508 36.9448L44.5007 36.5055C44.3395 30.3431 38.5873 25.0779 31.5169 25.0779L31.5096 25.0742Z" fill="#00A2E0"/>
<path d="M31.5096 25.1914C24.4722 25.1914 18.7346 30.42 18.5625 36.5238V36.9558C18.5771 38.4388 18.9396 39.8631 19.5767 41.1519C21.5393 39.2699 26.1565 37.9518 31.5059 37.9518C36.8554 37.9518 41.4726 39.2699 43.4461 41.1519C44.0869 39.8631 44.4384 38.4388 44.4677 36.9522V36.5165C44.2883 30.4237 38.5544 25.1914 31.5096 25.1951V25.1914Z" fill="#00A4E1"/>
<path d="M31.5101 25.3008C24.4946 25.3008 18.7827 30.5001 18.5996 36.5306V36.959C18.6179 38.4383 18.9767 39.848 19.6138 41.1295C21.5691 39.2695 26.1606 37.966 31.5101 37.966C36.8596 37.966 41.4511 39.2731 43.41 41.1295C44.0545 39.8516 44.4096 38.4383 44.4243 36.959V36.5233C44.2412 30.4965 38.5329 25.3008 31.5101 25.3008Z" fill="#00A6E3"/>
<path d="M31.5099 25.418C24.5164 25.418 18.8154 30.577 18.6323 36.5453L18.625 36.9737C18.647 38.4383 18.9985 39.8443 19.6392 41.1149C21.5981 39.2695 26.175 37.9806 31.5099 37.9806C36.8447 37.9806 41.4216 39.2731 43.3768 41.1149C44.0213 39.8407 44.3728 38.4383 44.3911 36.97V36.538C44.197 30.5734 38.5034 25.418 31.5099 25.4216V25.418Z" fill="#00A9E4"/>
<path d="M31.5069 25.5322C24.5464 25.5322 18.8564 30.6547 18.666 36.5534V36.9781C18.6697 38.4354 19.0358 39.8378 19.6729 41.0973C21.6135 39.2702 26.1868 37.9887 31.5033 37.9887C36.8198 37.9887 41.393 39.2702 43.3336 41.0973C43.9781 39.8304 44.3405 38.4354 44.3442 36.9781V36.5461C44.1501 30.651 38.4711 25.5322 31.4996 25.5322H31.5069Z" fill="#00ABE5"/>
<path d="M31.5052 25.6455C24.5593 25.6455 18.9023 30.7277 18.6973 36.5715V36.9925C18.7083 38.4388 19.0561 39.8266 19.7042 41.0825C21.6448 39.2737 26.2034 38.0068 31.5052 38.0068C36.8071 38.0068 41.3657 39.2737 43.3136 41.0825C43.9471 39.8266 44.3022 38.4388 44.3132 36.9925V36.5605C44.1008 30.7314 38.4511 25.6455 31.5052 25.6455Z" fill="#00ADE7"/>
<path d="M31.5052 25.7588C24.585 25.7588 18.9389 30.8044 18.7266 36.5786V36.9996C18.7339 38.4386 19.0927 39.819 19.7335 41.0676C21.6704 39.2734 26.2107 38.0212 31.5016 38.0212C36.7925 38.0212 41.3327 39.2771 43.266 41.0676C43.9105 39.819 44.2693 38.4386 44.2729 36.9996V36.5749C44.0459 30.8044 38.4145 25.7588 31.4979 25.7588H31.5052Z" fill="#00B0E8"/>
<path d="M31.5074 25.8721C24.6092 25.8721 18.9887 30.8847 18.7727 36.593L18.7617 37.0104C18.7764 38.4384 19.1242 39.8151 19.765 41.049C21.6983 39.2769 26.2239 38.0356 31.5074 38.0356C36.791 38.0356 41.302 39.2769 43.2463 41.049C43.8834 39.8115 44.2385 38.4384 44.2459 37.0104L44.2385 36.5857C44.0188 30.881 38.4021 25.8721 31.5074 25.8721Z" fill="#00B2EA"/>
<path d="M31.5023 25.9854C24.637 25.9854 19.0312 30.9613 18.7969 36.6074V37.0212C18.7969 38.4418 19.152 39.8076 19.7965 41.0342C21.7261 39.2766 26.2407 38.05 31.5023 38.05C36.7639 38.05 41.2749 39.2766 43.2045 41.0342C43.8526 39.8002 44.2005 38.4418 44.2114 37.0212L44.2005 36.6037C43.9734 30.9613 38.3713 25.989 31.5023 25.989V25.9854Z" fill="#0FB5EB"/>
<path d="M31.5021 26.0986C24.6514 26.0986 19.0676 31.0344 18.8333 36.6145L18.8223 37.0246C18.8333 38.4379 19.1848 39.7927 19.8292 41.0156C21.7478 39.2764 26.2588 38.0608 31.5021 38.0608C36.7454 38.0608 41.2527 39.2728 43.1677 41.0156C43.8158 39.789 44.1673 38.4379 44.1709 37.0246V36.6108C43.9219 31.0307 38.3491 26.0986 31.5021 26.0986Z" fill="#1DB7EC"/>
<path d="M31.5023 26.2126C24.6736 26.2126 19.1118 31.1118 18.8665 36.6297L18.8555 37.0361C18.8591 38.4384 19.2143 39.7859 19.8587 40.9978C21.7774 39.2769 26.2664 38.076 31.5023 38.076C36.7383 38.076 41.2237 39.2769 43.1423 40.9978C43.7794 39.7859 44.1309 38.4421 44.1346 37.0361L44.1272 36.6187C43.8783 31.1044 38.3201 26.209 31.5023 26.209V26.2126Z" fill="#27BAEE"/>
<path d="M31.4955 26.3262C24.7071 26.3262 19.1562 31.1923 18.9036 36.6407L18.8926 37.0471C18.8926 38.4458 19.2514 39.7786 19.8848 40.9869C21.7962 39.2806 26.2779 38.0906 31.4918 38.0906C36.7058 38.0906 41.1912 39.2806 43.0988 40.9869C43.7469 39.7786 44.0838 38.4421 44.0948 37.0471L44.0838 36.637C43.8238 31.1923 38.2913 26.3298 31.4882 26.3298L31.4955 26.3262Z" fill="#2FBCEF"/>
<path d="M31.4865 38.1053C36.6968 38.1053 41.1712 39.2806 43.0715 40.9722C43.7123 39.7676 44.0601 38.4421 44.0601 37.0581C44.0601 31.5072 38.4397 26.4434 31.4865 26.4434C24.5333 26.4434 18.9238 31.5109 18.9238 37.0544C18.9238 38.4421 19.2753 39.7676 19.9161 40.9722C21.8274 39.2806 26.2835 38.1053 31.4865 38.1053Z" fill="#37BEF0"/>
<path d="M31.4875 38.1422C36.6868 38.1422 41.1575 39.3029 43.0505 40.9835C43.6986 39.7898 44.0501 38.4754 44.0501 37.0986C44.0501 31.5844 38.4297 26.5498 31.4875 26.5498C24.5452 26.5498 18.9395 31.588 18.9395 37.0986C18.9395 38.4754 19.291 39.7935 19.9317 40.9835C21.832 39.3029 26.3028 38.1422 31.4875 38.1422Z" fill="#45C0F0"/>
<path d="M31.4887 38.1744C36.6844 38.1744 41.1368 39.3351 43.0408 41.0011C43.6815 39.8184 44.033 38.5076 44.033 37.1382C44.033 31.6642 38.4199 26.6553 31.4887 26.6553C24.5574 26.6553 18.959 31.6606 18.959 37.1345C18.959 38.5039 19.3105 39.8111 19.9476 40.9974C21.8516 39.3314 26.3076 38.1707 31.4887 38.1707V38.1744Z" fill="#50C2F1"/>
<path d="M31.4877 38.2039C36.6761 38.2039 41.1248 39.3573 43.0251 41.0123C43.6659 39.837 44.0211 38.5408 44.0211 37.1787C44.0211 31.7377 38.4153 26.7617 31.4877 26.7617C24.5601 26.7617 18.9727 31.7377 18.9727 37.1787C18.9727 38.5335 19.3278 39.837 19.9649 41.016C21.8616 39.361 26.314 38.2039 31.484 38.2039H31.4877Z" fill="#5BC4F1"/>
<path d="M31.4887 38.233C36.6734 38.233 41.1111 39.3827 43.0042 41.0231C43.6449 39.8514 43.9964 38.5625 43.9964 37.2151C43.9964 31.8144 38.4016 26.8604 31.485 26.8604C24.5684 26.8604 18.9883 31.8144 18.9883 37.2151C18.9883 38.5625 19.3434 39.8587 19.9769 41.0231C21.8699 39.3791 26.3186 38.233 31.485 38.233H31.4887Z" fill="#64C7F2"/>
<path d="M31.4865 38.2699C36.6529 38.2699 41.1016 39.4086 42.991 41.038C43.6281 39.8773 43.9759 38.5958 43.9759 37.2557C43.9759 31.8842 38.3884 26.9668 31.4865 26.9668C24.5845 26.9668 19.0117 31.8842 19.0117 37.2557C19.0117 38.5921 19.3522 39.881 19.9893 41.038C21.8897 39.405 26.3274 38.2699 31.4865 38.2699Z" fill="#6DC9F3"/>
<path d="M31.4872 38.2994C36.6536 38.2994 41.0914 39.4309 42.9771 41.0529C43.6142 39.8995 43.9657 38.6253 43.9657 37.2925C43.9657 31.9614 38.3782 27.0732 31.4872 27.0732C24.5963 27.0732 19.0234 31.9614 19.0234 37.2962C19.0234 38.6253 19.3786 39.9032 20.0047 41.0566C21.9014 39.4345 26.3391 38.3031 31.4872 38.3031V38.2994Z" fill="#75CBF3"/>
<path d="M31.4885 38.3288C36.6475 38.3288 41.078 39.4565 42.9636 41.0676C43.5971 39.9215 43.9449 38.6583 43.9449 37.3328C43.9449 32.0419 38.3758 27.1758 31.4885 27.1758C24.6011 27.1758 19.043 32.0419 19.043 37.3328C19.043 38.6583 19.3945 39.9252 20.0279 41.0676C21.9136 39.4602 26.344 38.3361 31.4885 38.3288Z" fill="#7DCDF4"/>
<path d="M31.4875 38.3693C36.6429 38.3693 41.0623 39.4861 42.9444 41.0788C43.5815 39.9437 43.9256 38.6915 43.9256 37.3734C43.9256 32.1154 38.3601 27.2822 31.4875 27.2822C24.6148 27.2822 19.0566 32.1154 19.0566 37.3734C19.0566 38.6915 19.4045 39.9474 20.0379 41.0825C21.9236 39.4824 26.3431 38.3693 31.4875 38.3693Z" fill="#84D0F4"/>
<path d="M31.4892 38.3979C36.6336 38.3979 41.0494 39.5073 42.9278 41.0964C43.5612 39.9687 43.9127 38.7164 43.9127 37.4166C43.9127 32.1916 38.3545 27.3877 31.4892 27.3877C24.6239 27.3877 19.084 32.1916 19.084 37.4129C19.084 38.7237 19.4245 39.9687 20.0579 41.0964C21.9363 39.511 26.3558 38.3979 31.4892 38.3979Z" fill="#8BD2F5"/>
<path d="M31.488 38.4308C36.6287 38.4308 41.0372 39.533 42.9082 41.1074C43.5453 39.987 43.9005 38.7494 43.9005 37.4532C43.9005 32.2648 38.346 27.4902 31.488 27.4902C24.63 27.4902 19.0938 32.2685 19.0938 37.4569C19.0938 38.7494 19.4416 39.9906 20.075 41.1111C21.9571 39.5366 26.3655 38.4382 31.488 38.4345V38.4308Z" fill="#92D4F5"/>
<path d="M31.487 38.4645C36.6241 38.4645 41.0143 39.563 42.8999 41.1228C43.5261 40.0097 43.8776 38.7831 43.8776 37.4979C43.8776 32.3425 38.3304 27.6045 31.487 27.6045C24.6436 27.6045 19.1074 32.3425 19.1074 37.4979C19.1074 38.7831 19.4589 40.0134 20.0887 41.1301C21.9671 39.563 26.3755 38.4719 31.487 38.4645Z" fill="#99D6F6"/>
<path d="M31.488 38.5007C36.6141 38.5007 41.0079 39.5882 42.8826 41.1406C43.5124 40.0312 43.8566 38.8119 43.8566 37.534C43.8566 32.4226 38.3277 27.6992 31.488 27.6992C24.6483 27.6992 19.123 32.4226 19.123 37.534C19.123 38.8156 19.4709 40.0385 20.1043 41.1406C21.9827 39.5845 26.3802 38.5007 31.488 38.5007Z" fill="#9FD9F7"/>
<path d="M31.4877 38.5293C36.6065 38.5293 40.993 39.6094 42.8677 41.1546C43.5012 40.0561 43.8453 38.8442 43.8453 37.5699C43.8453 32.4951 38.3165 27.8047 31.4877 27.8047C24.659 27.8047 19.1484 32.4951 19.1484 37.5699C19.1484 38.8442 19.489 40.0561 20.1224 41.1546C21.9934 39.6094 26.3799 38.5293 31.4841 38.5293H31.4877Z" fill="#A5DBF7"/>
<path d="M31.4887 38.5635C36.5965 38.5635 40.9794 39.6363 42.8467 41.1668C43.4765 40.0757 43.8244 38.8747 43.8244 37.6115C43.8244 32.5732 38.3065 27.9121 31.4887 27.9121C24.671 27.9121 19.1641 32.5732 19.1641 37.6115C19.1641 38.8747 19.5119 40.0757 20.1344 41.1668C22.0127 39.6363 26.3919 38.5635 31.4887 38.5635Z" fill="#ABDDF8"/>
<path d="M31.4875 38.5954C36.5917 38.5954 40.9635 39.6609 42.8382 41.1841C43.4606 40.1003 43.8122 38.9067 43.8122 37.6508C43.8122 32.6491 38.2943 28.0137 31.4875 28.0137C24.6807 28.0137 19.1738 32.6491 19.1738 37.6508C19.1738 38.9067 19.5253 40.1003 20.1515 41.1841C22.0225 39.6609 26.4017 38.5954 31.4875 38.5954Z" fill="#B1DFF8"/>
<path d="M31.4873 38.6289C36.5804 38.6289 40.9486 39.6871 42.8233 41.1956C43.4494 40.1191 43.7899 38.9365 43.7899 37.6916C43.7899 32.7265 38.2867 28.124 31.4873 28.124C24.6878 28.124 19.1992 32.7229 19.1992 37.6916C19.1992 38.9365 19.5471 40.1265 20.1659 41.1956C22.0332 39.6871 26.4087 38.6289 31.4873 38.6289Z" fill="#B7E1F9"/>
<path d="M31.4953 38.6655C36.5775 38.6655 40.942 39.7127 42.8021 41.2103C43.4318 40.1411 43.776 38.9621 43.776 37.7319C43.776 32.7961 38.2801 28.2266 31.4953 28.2266C24.7105 28.2266 19.2109 32.7998 19.2109 37.7319C19.2109 38.9621 19.5588 40.1448 20.1812 41.2103C22.0449 39.7127 26.4095 38.6655 31.4953 38.6655Z" fill="#BCE4F9"/>
<path d="M31.4948 38.6941C36.5697 38.6941 40.9342 39.734 42.7906 41.2242C43.4131 40.166 43.7609 38.9944 43.7609 37.7714C43.7609 32.8723 38.265 28.332 31.4948 28.332C24.7247 28.332 19.2324 32.8723 19.2324 37.7678C19.2324 38.998 19.5693 40.166 20.1917 41.2242C22.0628 39.734 26.4163 38.6978 31.4948 38.6941Z" fill="#C1E6FA"/>
<path d="M31.4943 38.7281C36.5582 38.7281 40.9118 39.7606 42.7718 41.2362C43.3943 40.1853 43.7384 39.0283 43.7384 37.809C43.7384 32.9465 38.2572 28.4355 31.4943 28.4355C24.7315 28.4355 19.2539 32.9465 19.2539 37.809C19.2539 39.0283 19.5908 40.1853 20.2096 41.2362C22.0769 39.7606 26.4305 38.7281 31.498 38.7281H31.4943Z" fill="#C7E8FA"/>
<path d="M31.4946 38.7605C36.5548 38.7605 40.8974 39.7858 42.7574 41.254C43.3799 40.2105 43.724 39.0571 43.724 37.8525C43.724 33.0266 38.2537 28.5449 31.4946 28.5449C24.7354 28.5449 19.2578 33.023 19.2578 37.8525C19.2578 39.0608 19.6093 40.2105 20.2281 41.254C22.0845 39.7858 26.4344 38.7605 31.4946 38.7605Z" fill="#CCEAFB"/>
<path d="M31.4958 38.7896C36.5524 38.7896 40.8839 39.8148 42.7367 41.2648C43.3628 40.2286 43.707 39.0862 43.707 37.8889C43.707 33.0996 38.2403 28.6436 31.4958 28.6436C24.7513 28.6436 19.2773 33.0996 19.2773 37.8925C19.2773 39.0935 19.6215 40.2322 20.2403 41.2685C22.1004 39.8148 26.4429 38.7933 31.4958 38.7933V38.7896Z" fill="#D1ECFB"/>
<path d="M31.4953 38.8262C36.5446 38.8262 40.8761 39.8368 42.7252 41.2795C43.3403 40.2506 43.6918 39.1192 43.6918 37.9292C43.6918 33.1765 38.2289 28.7461 31.4953 28.7461C24.7618 28.7461 19.2988 33.1765 19.2988 37.9292C19.2988 39.1192 19.6393 40.2542 20.2545 41.2795C22.1072 39.8368 26.4498 38.8262 31.4953 38.8262Z" fill="#D6EEFB"/>
<path d="M31.4963 38.8595C36.5346 38.8595 40.8661 39.8627 42.7115 41.2944C43.3303 40.2728 43.6782 39.1524 43.6782 37.9697C43.6782 33.2537 38.2225 28.8525 31.5 28.8525C24.7774 28.8525 19.3145 33.2537 19.3145 37.9697C19.3145 39.1487 19.6586 40.2728 20.2738 41.2944C22.1265 39.8627 26.4581 38.8595 31.4963 38.8595Z" fill="#DBF0FC"/>
<path d="M31.4939 38.889C36.5248 38.889 40.849 39.8849 42.6871 41.3093C43.3132 40.3024 43.6538 39.1819 43.6538 38.0102C43.6538 33.3272 38.2054 28.959 31.4939 28.959C24.7823 28.959 19.334 33.3308 19.334 38.0102C19.334 39.1819 19.6745 40.3024 20.2896 41.3166C22.135 39.8886 26.4666 38.8927 31.4975 38.8927L31.4939 38.889Z" fill="#E0F2FC"/>
<path d="M31.4949 38.9259C36.5221 38.9259 40.8317 39.9108 42.6808 41.3242C43.2886 40.3173 43.6364 39.2151 43.6364 38.0508C43.6364 33.4043 38.1991 29.0654 31.4949 29.0654C24.7906 29.0654 19.3496 33.4043 19.3496 38.0471C19.3496 39.2151 19.6901 40.3209 20.3016 41.3242C22.1507 39.9108 26.4676 38.9259 31.4949 38.9259Z" fill="#E5F4FD"/>
<path d="M31.4961 38.9579C36.516 38.9579 40.8146 39.9355 42.6674 41.3379C43.2715 40.3456 43.623 39.2435 43.623 38.0901C43.623 33.4839 38.193 29.167 31.4961 29.167C24.7992 29.167 19.3691 33.4803 19.3691 38.0864C19.3691 39.2435 19.706 40.3419 20.3175 41.3342C22.1665 39.9355 26.4761 38.9542 31.4961 38.9542V38.9579Z" fill="#E9F6FD"/>
<path d="M31.4951 38.9911C36.5114 38.9911 40.81 39.9614 42.6481 41.3528C43.2632 40.3642 43.6074 39.2767 43.6074 38.127C43.6074 33.5537 38.1774 29.2734 31.4951 29.2734C24.8128 29.2734 19.3828 33.5574 19.3828 38.1233C19.3828 39.273 19.716 40.3642 20.3348 41.3491C22.1839 39.9577 26.4825 38.9874 31.4951 38.9874V38.9911Z" fill="#EEF8FE"/>
<path d="M31.4961 39.0246C36.4977 39.0246 40.7927 39.9875 42.6344 41.3679C43.2495 40.383 43.5901 39.3028 43.5901 38.1641C43.5901 33.6311 38.1783 29.3838 31.4997 29.3838C24.8211 29.3838 19.3984 33.6348 19.3984 38.1641C19.3984 39.3065 19.739 40.383 20.3504 41.3679C22.1922 39.9912 26.4908 39.0246 31.4961 39.0246Z" fill="#F2FAFE"/>
<path d="M31.4951 39.0536C36.4967 39.0536 40.7807 40.0129 42.6115 41.3787C43.2266 40.4084 43.5708 39.3319 43.5708 38.2078C43.5708 33.7078 38.1627 29.4824 31.4951 29.4824C24.8275 29.4824 19.4121 33.7115 19.4121 38.2078C19.4121 39.3356 19.7563 40.4084 20.3678 41.3787C22.2058 40.0093 26.5045 39.05 31.4988 39.05L31.4951 39.0536Z" fill="#F7FCFE"/>
<path d="M31.4946 39.0871C36.4926 39.0871 40.7692 40.0354 42.6 41.3975C43.2041 40.4272 43.5556 39.3654 43.5556 38.2486C43.5556 33.7815 38.1513 29.5928 31.4946 29.5928C24.838 29.5928 19.4336 33.7815 19.4336 38.2449C19.4336 39.3617 19.7741 40.4272 20.3819 41.3975C22.2127 40.0354 26.504 39.0907 31.4946 39.0871Z" fill="#FBFDFF"/>
<path d="M31.4958 39.1193C36.4755 39.1193 40.7558 40.064 42.5866 41.4114C43.198 40.4521 43.5349 39.3976 43.5349 38.2882C43.5349 33.8577 38.1452 29.6982 31.4958 29.6982C24.8465 29.6982 19.4531 33.8614 19.4531 38.2845C19.4531 39.3976 19.79 40.4484 20.3978 41.4078C22.2322 40.0603 26.5162 39.1193 31.4958 39.1157V39.1193Z" fill="white"/>
</g>
<path d="M31.4905 34.7002C27.137 34.7002 23.091 35.4362 19.748 36.6884C21.7509 41.1884 26.2619 44.3227 31.4978 44.3227C36.7338 44.3227 41.2448 41.1884 43.255 36.6884C39.912 35.4362 35.855 34.7002 31.4905 34.7002Z" fill="#007BC7"/>
</svg>
