<svg width="263" height="150" viewBox="0 0 263 150" fill="none" xmlns="http://www.w3.org/2000/svg">
<rect width="263" height="150" rx="12" fill="#0057BE"/>
<path d="M0 80H263V138C263 144.627 257.627 150 251 150H12C5.37258 150 0 144.627 0 138V80Z" fill="black" fill-opacity="0.2"/>
<path opacity="0.981" fill-rule="evenodd" clip-rule="evenodd" d="M29.6237 18.0075C34.5427 17.8632 38.3701 19.8105 41.1057 23.8493C43.2536 27.5109 43.5749 31.3298 42.0697 35.3061C39.9837 39.9009 36.421 42.4626 31.3815 42.9913C26.1774 43.1543 22.2367 41.0274 19.5593 36.6106C17.4802 32.5459 17.4802 28.4812 19.5593 24.4165C21.8404 20.6135 25.1953 18.4772 29.6237 18.0075ZM27.6959 20.503C27.9601 20.5096 28.0452 20.623 27.9511 20.8433C26.853 21.4336 26.1159 22.3222 25.7397 23.509C25.5368 24.4982 25.7258 25.4056 26.3067 26.2314C26.9622 27.0194 27.7088 27.7095 28.5464 28.3016C30.2384 29.3466 31.9584 30.3486 33.7062 31.3076C34.3773 31.7093 35.0388 32.1253 35.6908 32.5554C36.4841 33.1698 37.0795 33.9355 37.4769 34.8524C37.9681 36.6581 37.4672 38.1233 35.9743 39.248C35.53 39.5744 35.0575 39.858 34.5568 40.0987C34.4433 40.1366 34.3299 40.1366 34.2165 40.0987C34.1848 40.0576 34.166 40.0104 34.1598 39.9569C34.3864 39.6065 34.6037 39.2473 34.8119 38.8793C35.1938 37.8458 35.0427 36.9006 34.3583 36.0435C33.8865 35.4954 33.3478 35.0322 32.7423 34.6539C31.1925 33.7843 29.6426 32.9146 28.0928 32.0449C26.7092 31.2855 25.4713 30.3308 24.3789 29.1807C22.5754 27.0377 22.4999 24.8446 24.1521 22.6015C25.1163 21.5325 26.2977 20.833 27.6959 20.503ZM30.9846 20.9567C31.6049 21.1071 32.2287 21.2489 32.8557 21.3821C33.5946 21.3919 34.3318 21.4298 35.0671 21.4956C35.729 21.6377 36.3339 21.9024 36.8815 22.2896C37.1602 22.5208 37.3303 22.8138 37.3918 23.1687C37.3498 23.4264 37.1986 23.5303 36.9382 23.4807C36.5975 23.3149 36.2479 23.1731 35.8892 23.0553C35.5952 23.1525 35.5195 23.3415 35.6624 23.6224C35.7475 23.7075 35.8325 23.7926 35.9176 23.8777C36.3401 24.0627 36.7748 24.2139 37.2217 24.3314C38.0586 24.6732 38.3138 25.2687 37.9872 26.118C37.7943 26.5001 37.5202 26.812 37.165 27.0538C36.6966 27.2031 36.3091 27.0802 36.0026 26.6852C35.7651 26.3235 35.5572 25.9453 35.3789 25.5508C35.2372 25.2578 35.0198 25.0404 34.7269 24.8986C34.2553 24.7841 33.9907 24.9637 33.933 25.4374C34.0183 25.9106 34.1979 26.3454 34.4717 26.7419C34.5909 27.4569 34.298 27.9201 33.5928 28.1314C32.8724 28.2486 32.2959 28.0122 31.8634 27.4225C31.4071 26.5893 31.2559 25.7007 31.4098 24.7568C31.4636 24.3556 31.5392 23.9586 31.6366 23.5657C31.7441 22.9793 31.6496 22.431 31.3531 21.9209C31.1612 21.7101 30.9911 21.4833 30.8428 21.2403C30.8028 21.1011 30.85 21.0065 30.9846 20.9567ZM21.9691 33.7748C22.1961 33.8015 22.3756 33.9149 22.5077 34.1151C22.8796 34.6793 23.286 35.2181 23.7268 35.7315C23.8612 35.8659 24.0219 35.951 24.2088 35.9868C24.3058 35.9902 24.3814 35.9524 24.4356 35.8733C24.6571 35.3732 24.9217 34.9005 25.2294 34.4554C25.5367 34.0617 25.7824 34.0996 25.9665 34.5688C26.1537 35.2574 26.286 35.9569 26.3634 36.6674C26.4873 37.064 26.7424 37.168 27.1289 36.9793C27.8299 36.692 28.5481 36.4557 29.2835 36.2703C29.4884 36.2776 29.5829 36.3816 29.567 36.5823C29.345 37.3195 28.9953 37.9907 28.5181 38.5957C28.4803 38.7092 28.4803 38.8226 28.5181 38.936C28.7955 39.231 29.1262 39.4484 29.5103 39.5883C30.0163 39.7885 30.5266 39.9775 31.0413 40.1555C31.1893 40.4088 31.1137 40.5789 30.8145 40.6659C28.5593 40.8724 26.4992 40.3431 24.634 39.0778C23.0737 37.8571 22.1286 36.269 21.799 34.3136C21.7768 34.1054 21.8335 33.9258 21.9691 33.7748Z" fill="#EDD8B2"/>
</svg>
