<svg width="263" height="150" viewBox="0 0 263 150" fill="none" xmlns="http://www.w3.org/2000/svg">
<rect width="263" height="150" rx="12" fill="#1088C2"/>
<path d="M0 80H263V138C263 144.627 257.627 150 251 150H12C5.37258 150 0 144.627 0 138V80Z" fill="black" fill-opacity="0.2"/>
<path d="M22.1885 48.3234C21.2285 48.8979 20.3593 49.2381 19.4446 49.2381C17.0863 49.2381 15.1134 47.3106 15 44.9824L19.5958 42.2461L26.7465 45.4435L22.1885 48.331V48.3234Z" fill="#82B9D9"/>
<path d="M24.9168 36.5537L21.5002 35.0419C19.9809 34.3616 18.5371 33.7872 18.5371 32.1091C18.5371 31.2398 18.8017 30.7787 19.2174 30.3252L26.4437 33.5075L24.6598 34.5431C24.1609 34.8454 23.8208 35.11 23.8208 35.4955C23.8208 35.9037 24.2894 36.2589 24.9244 36.5462" fill="#B1D6A1"/>
<path d="M28.2733 20.7781L24.7735 22.9022C24.4561 23.0911 24.0403 23.3935 24.0403 23.8546C24.0403 24.3913 24.8567 24.7919 25.5748 25.132L21.1906 23.2045C19.898 22.6376 18.6055 21.9875 18.6055 20.4304C18.6055 19.7728 18.7944 19.2436 19.0968 18.7901L28.5756 13C29.717 13.6425 30.8131 14.9426 30.8131 16.6887C30.8131 18.5558 29.8682 19.8106 28.2733 20.7705" fill="#82B9D9"/>
<path d="M35.7262 27.627L34.8569 28.1183L27.623 24.9209L36.0361 19.8564C37.1699 20.5141 38.2886 21.8066 38.2886 23.5452C38.2886 25.4122 37.3665 26.7048 35.7337 27.6194" fill="#B1D6A1"/>
<path d="M29.6107 33.7725L33.8966 35.6546C35.4991 36.3652 35.9904 37.2193 35.9904 38.2776C35.9904 38.8898 35.6503 39.4945 35.159 39.9103L27.9629 36.7129L29.1799 36.0326C30.2154 35.4657 30.5556 35.1179 30.5556 34.74C30.5556 34.3621 30.3137 34.0899 29.6183 33.7725" fill="#82B9D9"/>
<path d="M37.2532 49.5782C35.4315 48.1798 33.4813 47.2274 31.1154 46.154L20.2003 41.3239C17.4565 40.1069 15.6348 38.4742 15.6348 35.7303C15.6348 32.9864 16.9198 31.777 18.6054 30.7188L19.2101 30.3408C18.7944 30.7944 18.5298 31.2479 18.5298 32.1247C18.5298 33.8028 19.9736 34.3697 21.4929 35.0576L34.1918 40.6587C36.399 41.6036 38.4248 43.2363 38.4248 46.0104C38.4248 47.5449 37.8503 48.9055 37.2456 49.5933" fill="#00A439"/>
<path d="M35.9529 39.4183L35.1592 39.9096C35.6505 39.4939 35.9907 38.8816 35.9907 38.2769C35.9907 37.2111 35.4993 36.3645 33.8968 35.6539L20.3135 29.6749C17.5696 28.4654 15.8613 26.8932 15.8613 24.1644C15.8613 21.6473 17.1161 20.007 19.0965 18.79C18.7942 19.2436 18.6052 19.7727 18.6052 20.4303C18.6052 21.9875 19.8978 22.63 21.1903 23.2044L34.3882 29.0323C36.7919 30.0906 38.7345 31.7006 38.7345 34.6259C38.7345 36.9087 37.6687 38.36 35.9604 39.4183" fill="#007DBA"/>
</svg>
