<svg width="263" height="150" viewBox="0 0 263 150" fill="none" xmlns="http://www.w3.org/2000/svg">
<rect width="263" height="150" rx="12" fill="#004898"/>
<path d="M0 80H263V138C263 144.627 257.627 150 251 150H12C5.37258 150 0 144.627 0 138V80Z" fill="black" fill-opacity="0.2"/>
<path d="M24.7808 18.3346C24.028 18.711 23.4669 19.3542 23.2 20.1617L18.1636 35.2985C17.8967 36.0923 17.9583 36.9476 18.3346 37.7004C18.711 38.4531 19.3611 39.0142 20.1549 39.2811L36.6808 44.8308C37.4814 45.0908 38.3368 45.0361 39.0895 44.6529C39.8422 44.2765 40.4034 43.6264 40.6702 42.8258L45.7135 27.689C46.261 26.0399 45.3645 24.2538 43.7154 23.6996L27.1827 18.1636C26.382 17.8967 25.5266 17.9583 24.7739 18.3346" fill="white"/>
<path d="M32.8552 32.8758C31.9588 33.8817 30.8365 34.6892 29.5432 35.1888L28.7973 35.4762V28.4552L29.5295 28.7426C30.8297 29.2422 31.952 30.0428 32.8552 31.0419C33.4985 30.0086 33.8954 28.8111 33.9775 27.5109C34.1828 24.1441 32.0751 21.0579 29.1805 19.9836L26.7992 19.1898C25.718 18.834 24.5752 19.4225 24.2194 20.4968L19.1624 35.6609C18.7997 36.7421 19.4019 37.9054 20.4831 38.2613L31.952 42.0934C33.1153 40.8479 33.8748 39.2056 33.9912 37.3648C34.0938 35.7294 33.6627 34.1828 32.8552 32.8827M26.2244 28.0515V35.9141H25.0884V28.0515H26.2244Z" fill="#00A5E3"/>
<path d="M43.3449 24.7195L32.8203 21.2021C34.23 22.7487 35.099 24.8016 35.1059 27.0529C35.1059 28.8321 34.5516 30.536 33.5867 31.9662C34.5584 33.3827 35.1127 35.0866 35.1196 36.8658C35.1196 38.994 34.3531 40.9442 33.0803 42.4634L37.0356 43.7841C38.1168 44.1468 39.2596 43.5514 39.6154 42.4702L44.6724 27.3198C45.0282 26.2454 44.4261 25.0753 43.3517 24.7195M40.5598 35.8804H39.1364L36.2076 31.9525L39.1843 28.0178H40.6145L37.6378 31.9594L40.5529 35.8804H40.5598Z" fill="#004898"/>
<path d="M32.1909 31.9658C31.5545 31.213 30.7744 30.5835 29.8848 30.125V33.8202C30.7744 33.3549 31.5545 32.7185 32.1909 31.9658Z" fill="#E8380D"/>
</svg>
