<svg width="24" height="24" viewBox="0 0 24 24" fill="none" xmlns="http://www.w3.org/2000/svg">
<path fill-rule="evenodd" clip-rule="evenodd" d="M23.9084 8.05525C22.1153 5.51451 19.1374 4 16.1084 4C13.0793 4 10.0999 5.51451 8.31001 8.05525L8.21875 8.18653H10.4777L10.5017 8.15931C12.0387 6.57115 14.0447 5.73385 16.1084 5.73385C18.1721 5.73385 20.1781 6.57115 21.7182 8.15931L21.7438 8.18653H23.9996L23.9084 8.05525Z" fill="#E60012"/>
<path d="M7.32289 16.5055L7.28127 16.5487C6.58644 17.2547 5.78435 17.6293 4.95824 17.6293C3.23238 17.6293 1.97881 16.3342 1.97881 14.5491C1.97881 12.764 3.23238 11.4688 4.95824 11.4688C5.78435 11.4688 6.58804 11.8451 7.28127 12.5527L7.32289 12.5959L8.43237 11.2527L8.40355 11.2175C7.47979 10.1256 6.37191 9.5957 5.01107 9.5957C3.65024 9.5957 2.39667 10.0552 1.49532 10.8845C0.517117 11.781 0 13.0474 0 14.5475C0 16.0476 0.517117 17.3156 1.49532 18.2137C2.39507 19.0462 3.64384 19.5041 5.01107 19.5041C6.37831 19.5041 7.48139 18.9726 8.40355 17.8823L8.43237 17.8487L7.32289 16.5055Z" fill="#004187"/>
<path d="M11.5143 9.75H9.55469V19.3222H11.5143V9.75Z" fill="#004187"/>
<path d="M19.1973 17.2406C18.6754 17.5592 18.1871 17.7193 17.75 17.7193C17.116 17.7193 16.8294 17.3847 16.8294 16.6403V11.5604H18.8275V9.75772H16.8294V6.77832L14.9067 7.80774V9.75772H13.248V11.5604H14.9067V16.9637C14.9067 18.435 15.7792 19.442 17.0808 19.4676C17.9645 19.4852 18.4977 19.2226 18.8211 19.0289L18.8403 19.0161L19.3126 17.1718L19.1957 17.2422L19.1973 17.2406Z" fill="#004187"/>
<path d="M22.7815 9.75H20.8203V19.3222H22.7815V9.75Z" fill="#004187"/>
</svg>
