<svg width="263" height="150" viewBox="0 0 263 150" fill="none" xmlns="http://www.w3.org/2000/svg">
<rect width="263" height="150" rx="12" fill="#13917B"/>
<path d="M0 80H263V138C263 144.627 257.627 150 251 150H12C5.37258 150 0 144.627 0 138V80Z" fill="black" fill-opacity="0.2"/>
<path d="M18.163 24.3926C18.163 24.3926 18.158 23.4764 19.4953 23.6144C19.4953 23.6144 19.9413 23.6704 21.3566 23.7535C21.3566 23.7535 22.2608 23.8365 26.6916 24.4756C26.6916 24.4756 32.4856 25.1977 35.7632 24.9757C35.7632 24.9757 39.2238 24.9057 42.5144 23.9065C42.5144 23.9065 46.5211 22.6433 47.1592 22.3282C47.1592 22.3282 47.4033 22.1712 47.7223 22.3842C47.7223 22.3842 47.8623 22.5322 48.2294 22.3932C48.2294 22.3932 48.6535 22.3282 48.5225 22.8143C48.5225 22.8143 47.2072 25.3377 39.4468 27.3931C39.4468 27.3931 35.2651 28.3373 28.3959 28.8644C28.3959 28.8644 26.0234 29.0864 23.2959 29.5585C23.2959 29.5585 21.7367 29.8506 21.4086 29.2534C21.4086 29.2534 21.2506 28.9484 20.5164 28.6703C20.5164 28.6703 18 27.2301 18 25.4618C18 25.4618 18.266 24.8317 18.162 24.3926H18.163Z" fill="#007662"/>
<path d="M27.6578 37.9857C27.6578 37.9857 26.0255 34.5851 28.5389 31.4255C28.5389 31.4255 31.2854 28.348 35.3112 30.5714C35.3112 30.5714 38.6467 32.1737 38.1047 36.9535C38.1047 36.9535 37.6476 42.3415 34.1259 45.8101C34.1259 45.8101 33.8969 46.1162 33.7109 45.9501C33.6469 45.8931 33.6959 45.9141 33.5958 45.8951C33.5958 45.8951 32.7307 46.2892 33.1388 45.175C33.1388 45.175 35.5222 37.1126 33.9859 34.8622C33.9859 34.8622 33.0638 33.3229 31.5105 34.4001C31.5105 34.4001 30.5573 35.1282 30.9014 37.1396C30.9014 37.1396 31.4435 38.7419 30.1732 39.2319C30.1732 39.2319 28.717 39.8671 27.6578 37.9867V37.9857Z" fill="#007662"/>
<path d="M29.8613 20.7462C29.8613 20.7462 29.8743 18.1127 32.6838 18.0587C32.6838 18.0587 32.8319 18.0727 32.9809 18.0187C32.9809 18.0187 34.4932 17.8426 34.5472 18.5718C34.5472 18.5718 34.5072 19.0448 34.4531 19.2069C34.4531 19.2069 34.4391 19.4899 34.7632 19.707C34.7632 19.707 35.8574 20.9622 34.2771 22.7045C34.2771 22.7045 32.6308 24.1898 30.7395 22.7045C30.7395 22.7045 29.8893 21.9894 29.8613 20.7462Z" fill="#CE0F41"/>
</svg>
