<svg width="263" height="150" viewBox="0 0 263 150" fill="none" xmlns="http://www.w3.org/2000/svg">
<rect width="263" height="150" rx="12" fill="#7C7268"/>
<path d="M0 80H263V138C263 144.627 257.627 150 251 150H12C5.37258 150 0 144.627 0 138V80Z" fill="black" fill-opacity="0.2"/>
<path d="M56.0289 32.3999L55.7254 32.2077C54.6936 31.1759 53.2572 30.7308 51.3352 30.8421C49.737 30.9432 48.4725 31.5704 47.5014 32.1672C47.5014 32.1571 47.5014 32.1369 47.5014 32.1268C47.5014 31.6311 47.5621 31.0848 47.6127 30.5588C47.6734 30.0227 47.724 29.4765 47.724 28.9606C47.724 28.4447 47.6633 27.9389 47.4812 27.5039C47.4306 27.3926 47.3396 27.3319 47.2081 27.3319C46.6922 27.3421 45.6806 27.6961 45.4378 27.9085L45.3063 28.2019C45.3063 28.7684 45.1748 30.3666 45.0433 30.5689L44.9725 30.7611C44.7601 33.0473 44.75 35.0502 44.9523 36.7698C44.9725 36.9418 45.3063 37.2048 45.5592 37.2958C45.8425 37.397 46.7225 37.1643 47.2283 36.9721L47.4205 36.9418C47.5824 36.9216 47.6734 36.7901 47.6633 36.608L47.6734 36.1123C48.0376 34.6253 49.5245 32.8551 51.2745 32.582C52.2659 32.4302 53.0448 32.673 53.6618 33.3507C53.7428 33.4721 53.9248 34.5343 53.2774 35.7684C52.7919 36.6788 51.8208 37.4476 50.5462 37.923C49.3324 38.3782 48.0072 38.5704 46.3584 38.5097C46.2876 38.4692 44.8208 37.4678 44.8208 37.4678C43.5159 36.5574 41.8974 35.4143 40.4306 34.858C40.1777 34.7568 39.7124 34.3724 39.4292 34.1398L39.2774 34.0184C38.4277 33.3406 36.8193 32.2684 35.5245 31.4085C35.5245 31.4085 34.9378 31.014 34.8266 30.9432C34.8266 30.8926 34.8266 30.7915 34.8266 30.7915C34.867 30.751 35.6763 30.2655 35.6763 30.2655C36.8092 29.5978 37.3454 29.2741 37.4566 29.1022C37.4364 29.1325 37.6084 29.0111 37.6084 29.0111L40.4306 27.4129C43.1416 25.9259 46.2066 24.2366 47.815 22.5675L47.8959 22.3146L47.9364 22.0819C48.0376 21.7279 48.0477 21.4548 47.9566 21.1311C47.9364 21.04 47.8454 20.9389 47.7341 20.9186C46.4797 20.7973 44.8511 21.5458 43.3743 22.9317C43.0404 23.2452 42.7572 23.397 42.4639 23.5588L42.2413 23.6802C40.6127 24.6007 36.9407 26.8869 35.0188 28.1109C35.1402 26.0473 35.5245 23.1036 36 20.6556L35.9494 20.3623L35.7471 19.988L35.5954 19.725H35.5549C35.1705 19.5227 34.8569 19.6036 34.6243 19.6542L34.2399 19.7958L33.7341 19.9779C33.6329 19.9981 33.5621 20.0588 33.5217 20.16C32.6011 22.3753 31.8425 26.0169 31.6604 28.9403C29.8295 27.777 28.13 26.9374 27.3006 26.5328H27.2803L27.1792 26.5025C26.8858 26.462 26.5115 26.2496 26.1676 26.0371C26.1373 26.0169 25.4696 25.5819 25.4696 25.5819L24.4075 24.9042L24.1243 24.8435C23.6691 24.9244 22.789 25.5111 22.526 25.9158C22.4855 25.9663 22.4754 26.027 22.4754 26.0877C22.4754 26.1687 22.5058 26.2597 22.526 26.3406L22.5766 26.553L22.6271 26.6845C23.1329 27.2106 24.4277 28.0805 25.6922 28.7583L27.1589 29.5372L29.3945 30.7611L29.7789 31.0646L30.0419 31.2163C30.0419 31.2163 30.0722 31.2366 30.0823 31.2467C29.4855 31.6412 26.0058 33.9678 26.0058 33.9678L23.8612 35.384C23.6589 35.5256 22.8092 35.8999 22.6271 35.9707C22.1618 36.1629 21.8078 36.4461 21.6662 36.7698L21.6055 36.8912L21.6662 36.9721L21.828 37.0935L22.0506 37.2351L22.2832 37.397L22.5058 37.4273C22.88 37.4476 23.4364 37.225 24.4884 36.7698C25.4494 36.345 28.0491 34.777 29.1618 34.1094L29.6373 33.8262C29.8295 33.8464 30.052 33.6744 30.2442 33.5328C30.4667 33.3609 30.9523 33.0574 31.2558 32.9259C31.2558 32.9259 31.4378 32.8247 31.5896 32.7438C31.5896 32.7944 31.5896 32.8753 31.5896 32.8753C31.6402 36.2843 31.8425 38.7525 32.2066 40.6643V40.6947L32.2471 40.7756C32.4292 41.0487 32.6416 41.8479 32.8237 42.5661L33.2485 43.9924L33.3699 44.1239C33.6127 44.2857 34.3511 44.569 34.8468 44.5083H34.9682L35.0491 44.3262C35.0896 44.1138 35.1098 43.9013 35.1098 43.6788C35.1098 43.4158 35.0896 43.1325 35.0693 42.7785L35.039 42.2626C34.8873 39.8854 34.7254 36.4562 34.7254 34.1701C34.7254 34.1094 34.7254 34.0487 34.7254 33.988C35.13 34.2409 36.9003 35.3536 36.9003 35.3536C39.9046 37.306 44.4465 40.2496 47.1878 41.0285C47.3295 41.069 47.4812 41.0285 47.5824 40.9375L48.0072 40.6643L48.0881 40.634C48.25 40.5632 48.3511 40.2901 48.3714 40.0068C50.6878 39.8854 53.9147 38.9953 55.6344 36.8305C56.302 35.9909 56.6055 34.9591 56.6055 34.0791C56.6055 33.3609 56.4032 32.7337 56.039 32.3898" fill="#F8B500"/>
</svg>
