<svg width="26" height="26" viewBox="0 0 26 26" fill="none" xmlns="http://www.w3.org/2000/svg">
<path fill-rule="evenodd" clip-rule="evenodd" d="M23.8327 13.0003C23.8327 18.9834 18.9824 23.8337 12.9993 23.8337C7.01626 23.8337 2.16602 18.9834 2.16602 13.0003C2.16602 7.01724 7.01626 2.16699 12.9993 2.16699C18.9824 2.16699 23.8327 7.01724 23.8327 13.0003ZM20.0404 8.70711C20.431 8.31658 20.431 7.68342 20.0404 7.29289C19.6499 6.90237 19.0168 6.90237 18.6262 7.29289L10.1667 15.7525L6.70711 12.2929C6.31658 11.9024 5.68342 11.9024 5.29289 12.2929C4.90237 12.6834 4.90237 13.3166 5.29289 13.7071L9.45956 17.8738C9.6471 18.0613 9.90145 18.1667 10.1667 18.1667C10.4319 18.1667 10.6862 18.0613 10.8738 17.8738L20.0404 8.70711Z" fill="white"/>
</svg>
