<svg width="24" height="24" viewBox="0 0 24 24" fill="none" xmlns="http://www.w3.org/2000/svg">
<path d="M0.128085 6.02212C0.128085 6.02212 0.124156 5.30233 1.17477 5.41077C1.17477 5.41077 1.52524 5.45478 2.63714 5.52C2.63714 5.52 3.34751 5.58522 6.8286 6.08734C6.8286 6.08734 11.3807 6.65468 13.9558 6.48024C13.9558 6.48024 16.6747 6.42523 19.26 5.64022C19.26 5.64022 22.4079 4.64777 22.9092 4.40024C22.9092 4.40024 23.101 4.27687 23.3516 4.44425C23.3516 4.44425 23.4616 4.56054 23.75 4.45132C23.75 4.45132 24.0832 4.40024 23.9803 4.78214C23.9803 4.78214 22.9469 6.7647 16.8499 8.3795C16.8499 8.3795 13.5645 9.12129 8.16761 9.5354C8.16761 9.5354 6.30369 9.70985 4.16081 10.0807C4.16081 10.0807 2.93575 10.3102 2.67801 9.84108C2.67801 9.84108 2.55385 9.60141 1.97707 9.38296C1.97707 9.38296 0 8.25142 0 6.86213C0 6.86213 0.209023 6.36708 0.1273 6.02212H0.128085Z" fill="#007662"/>
<path d="M7.58907 16.7021C7.58907 16.7021 6.30664 14.0304 8.28136 11.5481C8.28136 11.5481 10.4392 9.13017 13.602 10.877C13.602 10.877 16.2227 12.1358 15.7968 15.8911C15.7968 15.8911 15.4376 20.1242 12.6708 22.8493C12.6708 22.8493 12.4909 23.0898 12.3447 22.9594C12.2944 22.9146 12.3329 22.9311 12.2544 22.9161C12.2544 22.9161 11.5746 23.2257 11.8953 22.3504C11.8953 22.3504 13.7678 16.0161 12.5608 14.248C12.5608 14.248 11.8363 13.0387 10.616 13.885C10.616 13.885 9.8671 14.4571 10.1374 16.0373C10.1374 16.0373 10.5633 17.2961 9.56536 17.6812C9.56536 17.6812 8.42123 18.1802 7.58907 16.7029V16.7021Z" fill="#007662"/>
<path d="M9.31836 3.15752C9.31836 3.15752 9.32857 1.08853 11.5359 1.0461C11.5359 1.0461 11.6522 1.0571 11.7693 1.01466C11.7693 1.01466 12.9574 0.876364 12.9998 1.44921C12.9998 1.44921 12.9684 1.82089 12.926 1.94819C12.926 1.94819 12.915 2.17057 13.1696 2.34108C13.1696 2.34108 14.0292 3.32726 12.7877 4.69611C12.7877 4.69611 11.4942 5.86301 10.0083 4.69611C10.0083 4.69611 9.34036 4.13427 9.31836 3.15752Z" fill="#CE0F41"/>
</svg>
