<svg width="24" height="24" viewBox="0 0 24 24" fill="none" xmlns="http://www.w3.org/2000/svg">
<g clip-path="url(#clip0_3018_6431)">
<g clip-path="url(#clip1_3018_6431)">
<path d="M1.38476 10C0.66625 10 0.0820312 10.5842 0.0820312 11.3027V14.7757H0.516274V11.3027C0.516274 10.8234 0.905426 10.4342 1.38476 10.4342H22.7803C23.2596 10.4342 23.6488 10.8234 23.6488 11.3027V14.7757H24.083V11.3027C24.083 10.5842 23.4988 10 22.7803 10H1.38476Z" fill="#221E1F"/>
<path d="M4.08205 13.8606C4.08205 13.8949 4.06048 13.9067 4.02323 13.9067H3.70074C3.66349 13.9067 3.65172 13.894 3.65172 13.8567V12.9804C3.65172 12.9402 3.6233 12.9186 3.58311 12.9186H2.73815C2.7009 12.9186 2.67933 12.9402 2.67933 12.9804V13.8567C2.67933 13.894 2.65777 13.9067 2.62346 13.9067H2.29508C2.2647 13.9067 2.25195 13.894 2.25195 13.8606V11.6845C2.25195 11.6502 2.2647 11.6316 2.29508 11.6316H2.62346C2.65777 11.6316 2.67933 11.6502 2.67933 11.6845V12.5265C2.67933 12.5667 2.7009 12.5854 2.73815 12.5854H3.58311C3.6233 12.5854 3.65172 12.5667 3.65172 12.5265V11.6845C3.65172 11.6502 3.66349 11.6316 3.70074 11.6316H4.02323C4.06048 11.6316 4.08205 11.6502 4.08205 11.6845V13.8606Z" fill="#221E1F"/>
<path d="M4.85878 13.9382C4.62058 13.9382 4.49609 13.7461 4.49609 13.5824V12.2297C4.49609 12.1895 4.51178 12.1709 4.54903 12.1709H4.85878C4.88917 12.1709 4.91171 12.1895 4.91171 12.2297V13.5364C4.91171 13.5736 4.9274 13.5922 4.97053 13.5922H5.5371C5.57435 13.5922 5.59885 13.5736 5.59885 13.5364V12.2297C5.59885 12.1895 5.61454 12.1709 5.65179 12.1709H5.96154C5.99585 12.1709 6.01741 12.1895 6.01741 12.2297V14.2019C6.01741 14.2509 6.00173 14.298 5.98016 14.3441L5.76941 14.6881C5.75079 14.7195 5.72334 14.7381 5.69198 14.7381H5.65179C5.61454 14.7381 5.59885 14.7165 5.59885 14.6822V13.8089C5.59885 13.7716 5.57729 13.7559 5.54298 13.7657L4.94896 13.9324C4.92053 13.9382 4.88721 13.9382 4.85878 13.9382Z" fill="#221E1F"/>
<path d="M6.78747 13.9351C6.59828 13.9351 6.43164 13.7802 6.43164 13.5792V12.2295C6.43164 12.1893 6.44732 12.1707 6.48457 12.1707H6.79727C6.82569 12.1707 6.84726 12.1893 6.84726 12.2295V13.5361C6.84726 13.5734 6.86588 13.589 6.90901 13.589H7.47559C7.51284 13.589 7.53734 13.5734 7.53734 13.5361V12.2295C7.53734 12.1893 7.55009 12.1707 7.58733 12.1707H7.89709C7.9314 12.1707 7.95296 12.1893 7.95296 12.2295V13.8606C7.95296 13.8949 7.9314 13.9066 7.89709 13.9066H7.58733C7.55009 13.9066 7.53734 13.8939 7.53734 13.8566V13.8067C7.53734 13.7665 7.51284 13.7508 7.47853 13.7635L6.88451 13.9243C6.85412 13.9341 6.81981 13.9341 6.78844 13.9341L6.78747 13.9351Z" fill="#221E1F"/>
<path d="M9.88655 12.5053V13.8609C9.88655 13.8952 9.86499 13.907 9.83068 13.907H9.52093C9.48368 13.907 9.47094 13.8942 9.47094 13.857V12.5503C9.47094 12.5102 9.44643 12.4886 9.40918 12.4886H8.84261C8.79948 12.4886 8.78085 12.5102 8.78085 12.5503V13.857C8.78085 13.8942 8.75929 13.907 8.73086 13.907H8.41817C8.38092 13.907 8.36523 13.8942 8.36523 13.8609V12.2298C8.36523 12.1896 8.38092 12.171 8.41817 12.171H8.73086C8.75929 12.171 8.78085 12.1896 8.78085 12.2298V12.2827C8.78085 12.3171 8.79654 12.3318 8.84261 12.32L9.43369 12.1592C9.46407 12.1534 9.4925 12.1436 9.52289 12.1436C9.72776 12.1436 9.88557 12.3141 9.88557 12.5062L9.88655 12.5053Z" fill="#221E1F"/>
<path d="M10.2383 13.5794V12.7991C10.2383 12.6325 10.3098 12.505 10.4579 12.4247L10.7862 12.2325C10.8548 12.1894 10.9225 12.1708 11.0029 12.1708H11.2871C11.3273 12.1708 11.3459 12.1551 11.3459 12.1179V11.4768C11.3459 11.4425 11.3616 11.418 11.392 11.418H11.7076C11.7449 11.418 11.7606 11.4425 11.7606 11.4768V13.8607C11.7606 13.895 11.7449 13.9068 11.7076 13.9068H11.392C11.3606 13.9068 11.3459 13.894 11.3459 13.8568V13.8068C11.3459 13.7666 11.3273 13.7509 11.2871 13.7637L10.6902 13.9244C10.6559 13.9342 10.6284 13.9342 10.597 13.9342C10.4363 13.9401 10.2383 13.7921 10.2383 13.5784V13.5794ZM11.3459 13.5362V12.555C11.3459 12.5119 11.3273 12.4903 11.2842 12.4903H10.7117C10.6686 12.4903 10.6529 12.5119 10.6529 12.555V13.5362C10.6529 13.5735 10.6686 13.5892 10.7117 13.5892H11.2842C11.3273 13.5892 11.3459 13.5735 11.3459 13.5362Z" fill="#221E1F"/>
<path d="M12.474 13.9353C12.2789 13.9353 12.1152 13.7775 12.1152 13.5795V12.7992C12.1152 12.6326 12.1868 12.5052 12.3319 12.4248L12.6632 12.2327C12.7318 12.1895 12.7994 12.1709 12.8769 12.1709H13.5856C13.6199 12.1709 13.6385 12.1895 13.6385 12.2297V13.8608C13.6385 13.8951 13.6199 13.9069 13.5856 13.9069H13.2699C13.2356 13.9069 13.2239 13.8941 13.2239 13.8569V13.8069C13.2239 13.7667 13.2023 13.751 13.1621 13.7638L12.5681 13.9245C12.5338 13.9343 12.5063 13.9343 12.475 13.9343L12.474 13.9353ZM13.2229 13.5364V12.5551C13.2229 12.512 13.2013 12.4905 13.1611 12.4905H12.5887C12.5456 12.4905 12.5299 12.512 12.5299 12.5551V13.5364C12.5299 13.5736 12.5456 13.5893 12.5887 13.5893H13.1611C13.2013 13.5893 13.2229 13.5736 13.2229 13.5364Z" fill="#221E1F"/>
<path d="M14.4664 11.7307C14.4664 11.7679 14.4448 11.7797 14.4135 11.7797H14.1037C14.0635 11.7797 14.0508 11.7669 14.0508 11.7307V11.4768C14.0508 11.4425 14.0625 11.418 14.1037 11.418H14.4135C14.4448 11.418 14.4664 11.4425 14.4664 11.4768V11.7307ZM14.4664 13.8607C14.4664 13.895 14.4448 13.9068 14.4135 13.9068H14.1037C14.0635 13.9068 14.0508 13.894 14.0508 13.8607V12.2296C14.0508 12.1894 14.0625 12.1708 14.1037 12.1708H14.4135C14.4448 12.1708 14.4664 12.1894 14.4664 12.2296V13.8607Z" fill="#221E1F"/>
<path d="M15.3359 13.4607V12.2874C15.3359 12.1139 15.4104 11.9806 15.5614 11.8914L15.9241 11.6904C15.9888 11.6502 16.0662 11.6316 16.1378 11.6316H16.9053C16.9425 11.6316 16.9612 11.6502 16.9612 11.6875V11.9139C16.9612 11.9482 16.9425 11.9629 16.9053 11.9629H15.831C15.7937 11.9629 15.778 11.9845 15.778 12.0247V13.5166C15.778 13.5568 15.7937 13.5754 15.831 13.5754H16.9357C16.97 13.5754 16.9915 13.5911 16.9915 13.6215C16.9915 13.6558 16.9759 13.6832 16.9416 13.7018L16.6759 13.8508C16.6044 13.891 16.5308 13.9067 16.4563 13.9067H15.7878C15.5683 13.9067 15.3359 13.7489 15.3359 13.4607Z" fill="#221E1F"/>
<path d="M17.6088 13.9353C17.4137 13.9353 17.25 13.7775 17.25 13.5795V12.7992C17.25 12.6326 17.3216 12.5052 17.4666 12.4248L17.7979 12.2327C17.8666 12.1895 17.9342 12.1709 18.0116 12.1709H18.7203C18.7547 12.1709 18.7733 12.1895 18.7733 12.2297V13.8608C18.7733 13.8951 18.7547 13.9069 18.7203 13.9069H18.4047C18.3704 13.9069 18.3586 13.8941 18.3586 13.8569V13.8069C18.3586 13.7667 18.3371 13.751 18.2969 13.7638L17.7029 13.9245C17.6686 13.9343 17.6411 13.9343 17.6097 13.9343L17.6088 13.9353ZM18.3577 13.5364V12.5551C18.3577 12.512 18.3361 12.4905 18.2959 12.4905H17.7235C17.6803 12.4905 17.6646 12.512 17.6646 12.5551V13.5364C17.6646 13.5736 17.6803 13.5893 17.7235 13.5893H18.2959C18.3361 13.5893 18.3577 13.5736 18.3577 13.5364Z" fill="#221E1F"/>
<path d="M20.3256 12.4425C20.3256 12.4739 20.304 12.4886 20.2697 12.4886H19.66C19.6198 12.4886 19.6041 12.5101 19.6041 12.5503V13.857C19.6041 13.8942 19.5796 13.907 19.5482 13.907H19.2355C19.1983 13.907 19.1855 13.8942 19.1855 13.8609V12.2298C19.1855 12.1896 19.1983 12.171 19.2355 12.171H19.5482C19.5796 12.171 19.6041 12.1896 19.6041 12.2298V12.2788C19.6041 12.3131 19.6198 12.3278 19.66 12.3278C19.6698 12.3278 19.6815 12.3278 19.6943 12.3219L19.8737 12.2043C19.9384 12.17 20.007 12.1514 20.0874 12.1514H20.2697C20.304 12.1514 20.3256 12.17 20.3256 12.2043V12.4425Z" fill="#221E1F"/>
<path d="M20.3887 13.5794V12.7991C20.3887 12.6325 20.4602 12.505 20.6082 12.4247L20.9366 12.2325C21.0052 12.1894 21.0729 12.1708 21.1533 12.1708H21.4385C21.4787 12.1708 21.4973 12.1551 21.4973 12.1179V11.4768C21.4973 11.4425 21.513 11.418 21.5434 11.418H21.859C21.8963 11.418 21.912 11.4425 21.912 11.4768V13.8607C21.912 13.895 21.8963 13.9068 21.859 13.9068H21.5434C21.513 13.9068 21.4973 13.894 21.4973 13.8568V13.8068C21.4973 13.7666 21.4787 13.7509 21.4385 13.7637L20.8406 13.9244C20.8063 13.9342 20.7788 13.9342 20.7474 13.9342C20.5867 13.9401 20.3887 13.7921 20.3887 13.5784V13.5794ZM21.4973 13.5362V12.555C21.4973 12.5119 21.4787 12.4903 21.4356 12.4903H20.8631C20.82 12.4903 20.8043 12.5119 20.8043 12.555V13.5362C20.8043 13.5735 20.82 13.5892 20.8631 13.5892H21.4356C21.4787 13.5892 21.4973 13.5735 21.4973 13.5362Z" fill="#221E1F"/>
</g>
</g>
<defs>
<clipPath id="clip0_3018_6431">
<rect width="24" height="24" fill="white"/>
</clipPath>
<clipPath id="clip1_3018_6431">
<rect width="24" height="4.77567" fill="white" transform="translate(0.0820312 10)"/>
</clipPath>
</defs>
</svg>
