<svg width="28" height="27" viewBox="0 0 28 27" fill="none" xmlns="http://www.w3.org/2000/svg">
<path d="M6.78075 0.334633C6.02802 0.710999 5.46689 1.35424 5.20002 2.16172L0.163558 17.2985C-0.10332 18.0923 -0.0417325 18.9476 0.334633 19.7004C0.710999 20.4531 1.36109 21.0142 2.15488 21.2811L18.6808 26.8308C19.4814 27.0908 20.3368 27.0361 21.0895 26.6529C21.8422 26.2765 22.4034 25.6264 22.6702 24.8258L27.7135 9.68903C28.261 8.03987 27.3645 6.25384 25.7154 5.69956L9.18265 0.163558C8.38202 -0.10332 7.52664 -0.0417325 6.77391 0.334633" fill="white"/>
<path d="M14.8552 14.8758C13.9588 15.8817 12.8365 16.6892 11.5432 17.1888L10.7973 17.4762V10.4552L11.5295 10.7426C12.8297 11.2422 13.952 12.0428 14.8552 13.0419C15.4985 12.0086 15.8954 10.8111 15.9775 9.5109C16.1828 6.14414 14.0751 3.05794 11.1805 1.98359L8.79917 1.1898C7.71797 0.833961 6.57519 1.42246 6.21935 2.49681L1.16236 17.6609C0.799684 18.7421 1.40187 19.9054 2.48307 20.2613L13.952 24.0934C15.1153 22.8479 15.8748 21.2056 15.9912 19.3648C16.0938 17.7294 15.6627 16.1828 14.8552 14.8827M8.22435 10.0515V17.9141H7.08841V10.0515H8.22435Z" fill="#00A5E3"/>
<path d="M25.3449 6.71946L14.8203 3.20215C16.23 4.74867 17.099 6.80157 17.1059 9.05293C17.1059 10.8321 16.5516 12.536 15.5867 13.9662C16.5584 15.3827 17.1127 17.0866 17.1196 18.8658C17.1196 20.994 16.3531 22.9442 15.0803 24.4634L19.0356 25.7841C20.1168 26.1468 21.2596 25.5514 21.6154 24.4702L26.6724 9.3198C27.0282 8.24545 26.4261 7.07529 25.3517 6.71946M22.5598 17.8804H21.1364L18.2076 13.9525L21.1843 10.0178H22.6145L19.6378 13.9594L22.5529 17.8804H22.5598Z" fill="#004898"/>
<path d="M14.1909 13.9658C13.5545 13.213 12.7744 12.5835 11.8848 12.125V15.8202C12.7744 15.3549 13.5545 14.7185 14.1909 13.9658Z" fill="#E8380D"/>
</svg>
