<svg width="24" height="24" viewBox="0 0 24 24" fill="none" xmlns="http://www.w3.org/2000/svg">
<g clip-path="url(#clip0_3207_3878)">
<g clip-path="url(#clip1_3207_3878)">
<path d="M24 0H0V24.0006H24V0Z" fill="#120063"/>
<path d="M8.43825 17.1875H7.71376L6.56837 18.5204V17.1875H5.99023V20.0952H6.56837V18.7587L7.75126 20.0952H8.47575L7.18884 18.6413L8.43825 17.1875Z" fill="white"/>
<path d="M9.86388 18.0124C9.62077 18.0124 9.41274 18.1164 9.2422 18.2616V17.1875H8.66406V19.1022C8.66406 19.6791 9.04505 20.1617 9.76349 20.1617C10.4082 20.1617 10.8629 19.7166 10.8629 19.0913C10.8629 18.4998 10.4723 18.0124 9.86509 18.0124H9.86388ZM9.76228 19.6368C9.46354 19.6368 9.22043 19.3985 9.21196 19.1022C9.21196 19.0973 9.21196 19.0925 9.21196 19.0865C9.21196 19.0236 9.22285 18.9631 9.2422 18.9074C9.31598 18.6921 9.52159 18.5361 9.76228 18.5361C10.0659 18.5361 10.3126 18.7829 10.3126 19.0865C10.3126 19.39 10.0659 19.6368 9.76228 19.6368Z" fill="white"/>
<path d="M14.9509 18.0127C14.6715 18.0127 14.4538 18.1155 14.2832 18.2679V18.0756H13.7051V20.0955H14.2832V18.9634C14.2832 18.7275 14.4743 18.5364 14.7102 18.5364C14.946 18.5364 15.1371 18.7275 15.1371 18.9634V20.0955H15.7189V18.8013C15.7189 18.794 15.7189 18.7856 15.7189 18.7783C15.7189 18.3538 15.3669 18.0127 14.9496 18.0127H14.9509Z" fill="white"/>
<path d="M12.2463 18.0156C11.5944 18.0156 11.1348 18.4607 11.1348 19.0861C11.1348 19.6775 11.5291 20.1649 12.1435 20.1649C12.4192 20.1649 12.6841 20.0174 12.8341 19.8178V20.0972H13.3578V19.0861H13.353C13.3554 19.0788 13.3578 19.0752 13.3578 19.0752C13.3578 18.4982 12.972 18.0156 12.2463 18.0156ZM12.2584 19.6352C11.9548 19.6352 11.7081 19.3884 11.7081 19.0848C11.7081 18.7813 11.9548 18.5345 12.2584 18.5345C12.562 18.5345 12.8087 18.7813 12.8087 19.0848C12.8087 19.3884 12.562 19.6352 12.2584 19.6352Z" fill="white"/>
<path d="M18.009 20.0689L17.1417 19.0674L17.9823 18.0647H17.3607L16.6277 18.932V17.1709H16.0508V20.0689H16.6277V19.1993L17.374 20.0689H18.009Z" fill="white"/>
<path d="M15.5811 5.68069L11.9986 8.41784L8.4161 5.68069L6.00195 3.83496V6.7862V15.5056H8.4161V8.65854L11.9986 11.4368L15.5811 8.65854V15.5056H17.9965V6.7862V3.83496L15.5811 5.68069Z" fill="#BCF100"/>
</g>
</g>
<defs>
<clipPath id="clip0_3207_3878">
<rect width="24" height="24" fill="white"/>
</clipPath>
<clipPath id="clip1_3207_3878">
<rect width="24" height="24.0006" fill="white"/>
</clipPath>
</defs>
</svg>
