<svg width="24" height="19" viewBox="0 0 24 19" fill="none" xmlns="http://www.w3.org/2000/svg">
<path d="M22.6927 9.351L22.4956 9.22619C21.8256 8.55621 20.8929 8.2672 19.6449 8.33945C18.607 8.40514 17.786 8.81238 17.1554 9.19992C17.1554 9.19335 17.1554 9.18022 17.1554 9.17365C17.1554 8.85179 17.1948 8.4971 17.2276 8.15554C17.267 7.80741 17.2999 7.45271 17.2999 7.11772C17.2999 6.78273 17.2605 6.45431 17.1422 6.17186C17.1094 6.09961 17.0503 6.0602 16.9649 6.0602C16.6299 6.06677 15.973 6.29667 15.8154 6.4346L15.73 6.62509C15.73 6.99292 15.6446 8.03074 15.5592 8.16211L15.5132 8.28691C15.3753 9.77138 15.3687 11.0719 15.5001 12.1886C15.5132 12.3002 15.73 12.471 15.8942 12.5301C16.0781 12.5958 16.6496 12.4447 16.978 12.3199L17.1028 12.3002C17.2079 12.2871 17.267 12.2017 17.2605 12.0835L17.267 11.7616C17.5035 10.7961 18.4691 9.64657 19.6054 9.46923C20.2492 9.3707 20.7549 9.52834 21.1556 9.96843C21.2082 10.0473 21.3264 10.7369 20.906 11.5383C20.5907 12.1294 19.9601 12.6287 19.1325 12.9374C18.3443 13.233 17.4838 13.3578 16.4131 13.3183C16.3671 13.2921 15.4147 12.6418 15.4147 12.6418C14.5674 12.0506 13.5164 11.3084 12.5639 10.9471C12.3997 10.8814 12.0976 10.6318 11.9137 10.4808L11.8151 10.4019C11.2634 9.96186 10.219 9.2656 9.37819 8.70729C9.37819 8.70729 8.99721 8.45112 8.92496 8.40514C8.92496 8.3723 8.92496 8.30661 8.92496 8.30661C8.95123 8.28034 9.47672 7.96505 9.47672 7.96505C10.2124 7.53153 10.5605 7.32134 10.6328 7.20968C10.6196 7.22939 10.7313 7.15056 10.7313 7.15056L12.5639 6.11275C14.3243 5.14719 16.3146 4.05026 17.359 2.96646L17.4115 2.80225L17.4378 2.65118C17.5035 2.42128 17.5101 2.24393 17.451 2.03374C17.4378 1.97462 17.3787 1.90894 17.3064 1.8958C16.4919 1.81698 15.4344 2.30305 14.4754 3.20292C14.2586 3.40655 14.0747 3.50507 13.8842 3.61017L13.7397 3.68899C12.6822 4.28672 10.2978 5.77119 9.04976 6.56597C9.12858 5.22601 9.37819 3.31459 9.68691 1.72502L9.65407 1.53454L9.5227 1.29151L9.42417 1.12073H9.39789C9.14829 0.989357 8.94466 1.0419 8.79359 1.07475L8.54398 1.16671L8.21555 1.28494C8.14987 1.29807 8.10389 1.33748 8.07761 1.40317C7.47987 2.84166 6.98723 5.2063 6.869 7.10459C5.68009 6.34921 4.57657 5.80403 4.03795 5.54129H4.02481L3.95912 5.52159C3.76863 5.49531 3.5256 5.35738 3.30227 5.21944C3.28256 5.2063 2.84904 4.92386 2.84904 4.92386L2.15934 4.48377L1.97542 4.44436C1.67983 4.49691 1.10837 4.87788 0.937583 5.14062C0.911309 5.17346 0.90474 5.21287 0.90474 5.25228C0.90474 5.30483 0.924446 5.36395 0.937583 5.41649L0.970426 5.55443L1.00327 5.63982C1.3317 5.98138 2.17247 6.54627 2.99354 6.98635L3.94599 7.49212L5.39764 8.28691L5.64724 8.48396L5.81803 8.58249C5.81803 8.58249 5.83773 8.59562 5.8443 8.60219C5.45676 8.85836 3.19717 10.3691 3.19717 10.3691L1.80463 11.2887C1.67326 11.3806 1.1215 11.6237 1.00327 11.6697C0.701115 11.7945 0.471215 11.9784 0.379255 12.1886L0.339844 12.2674L0.379255 12.3199L0.484352 12.3988L0.628861 12.4907L0.779938 12.5958L0.924446 12.6155C1.16748 12.6287 1.52875 12.4841 2.21188 12.1886C2.8359 11.9127 4.52402 10.8946 5.24656 10.4611L5.55528 10.2771C5.68009 10.2903 5.8246 10.1786 5.9494 10.0867C6.09391 9.975 6.4092 9.77794 6.60625 9.69255C6.60625 9.69255 6.72449 9.62687 6.82302 9.57432C6.82302 9.60716 6.82302 9.65971 6.82302 9.65971C6.85586 11.8733 6.98723 13.476 7.2237 14.7174V14.7371L7.24997 14.7897C7.36821 14.967 7.50615 15.4859 7.62438 15.9523L7.90026 16.8784L7.97908 16.9638C8.13673 17.0689 8.61624 17.2528 8.9381 17.2134H9.01692L9.06947 17.0952C9.09574 16.9573 9.10888 16.8193 9.10888 16.6748C9.10888 16.504 9.09574 16.3201 9.0826 16.0902L9.0629 15.7552C8.96437 14.2116 8.85927 11.9849 8.85927 10.5005C8.85927 10.4611 8.85927 10.4217 8.85927 10.3822C9.12201 10.5465 10.2715 11.269 10.2715 11.269C12.2224 12.5367 15.1717 14.4481 16.9517 14.9539C17.0437 14.9802 17.1422 14.9539 17.2079 14.8948L17.4838 14.7174L17.5363 14.6977C17.6414 14.6517 17.7071 14.4744 17.7203 14.2905C19.2245 14.2116 21.3198 13.6336 22.4365 12.228C22.87 11.6828 23.0671 11.0128 23.0671 10.4414C23.0671 9.975 22.9357 9.56775 22.6992 9.34443" fill="#F8B500"/>
</svg>