<svg width="24" height="24" viewBox="0 0 24 24" fill="none" xmlns="http://www.w3.org/2000/svg">
<path d="M21.7461 0H2.25389C1.0091 0 0 1.0091 0 2.25389V21.7461C0 22.9909 1.0091 24 2.25389 24H21.7461C22.9909 24 24 22.9909 24 21.7461V2.25389C24 1.0091 22.9909 0 21.7461 0Z" fill="#FAE100"/>
<path d="M16.0202 12.0002C17.0918 11.2927 17.7993 10.0805 17.7993 8.70007C17.7993 6.51992 16.0317 4.75 13.8492 4.75H7.22815C7.1014 4.75 7 4.8514 7 4.97815V19.02C7 19.1468 7.1014 19.2505 7.22815 19.2505H13.8492C16.0317 19.2505 17.7993 17.4829 17.7993 15.3004C17.7993 13.92 17.0918 12.7054 16.0202 12.0002ZM12.7707 15.3004H11.5262V8.70007H12.7707V15.3004Z" fill="#1E1E1E"/>
</svg>
