<svg width="24" height="24" viewBox="0 0 24 24" fill="none" xmlns="http://www.w3.org/2000/svg">
<path d="M16.8717 0L11.9963 2.44565L7.12891 0L11.9963 9.26021L16.8717 0Z" fill="#FABE00"/>
<path d="M18.573 6.41883L18.5018 6.35551L21.9763 4.89129V0L15.9375 2.57228C15.9375 2.57228 12.6688 8.7695 12.5896 8.91196C15.1539 9.22064 17.0772 11.3655 17.0772 13.9536C17.0772 16.7554 14.7978 19.0349 11.996 19.0349C9.1943 19.0349 6.91492 16.7554 6.91492 13.9536C6.91492 11.3655 8.83815 9.22064 11.4025 8.91196C11.3312 8.7695 8.06252 2.57228 8.06252 2.57228L2.03166 0V4.89129L5.50613 6.35551L5.42699 6.41883C3.25049 8.31836 2 11.0727 2 13.9615C2 19.4781 6.48753 23.9657 11.996 23.9657C17.5045 23.9657 22 19.4781 22 13.9615C22 11.0727 20.7495 8.32628 18.573 6.41883Z" fill="#FABE00"/>
</svg>
