<svg width="24" height="24" viewBox="0 0 24 24" fill="none" xmlns="http://www.w3.org/2000/svg">
<g clip-path="url(#clip0_3207_3913)">
<path d="M0.033726 11.7232C-0.00995684 11.7456 -0.0110223 11.7861 0.0294643 11.8138H0.0283988L3.73079 14.26L4.78983 9.26953L0.033726 11.7232Z" fill="#E72410"/>
<path d="M21.9578 9.26571H21.0213C20.9734 9.26571 20.8988 9.28596 20.8551 9.30727L16.1597 11.7258C16.1171 11.7471 16.1161 11.7876 16.1565 11.8153L19.7971 14.2115C19.8376 14.237 19.9122 14.2584 19.9601 14.2584H20.8956C20.9446 14.2584 20.9499 14.2381 20.9116 14.2115L17.1943 11.7652L21.9674 9.3062C22.01 9.28489 22.0068 9.26465 21.9578 9.26465V9.26571Z" fill="#F08300"/>
<path d="M19.9529 9.26562H13.4292L12.3691 14.2593H18.8907C18.9397 14.2593 18.945 14.2391 18.9045 14.2124L15.1947 11.7662L19.9614 9.30718C20.003 9.28587 19.9998 9.26562 19.9518 9.26562H19.9529Z" fill="#E72410"/>
<path d="M23.9591 9.26571H23.0237C22.9757 9.26571 22.9012 9.28596 22.8564 9.30727L18.1621 11.7258C18.1195 11.7471 18.1174 11.7876 18.1589 11.8153L21.7995 14.2115C21.84 14.237 21.9135 14.2584 21.9614 14.2584H22.8969C22.9459 14.2584 22.9534 14.2381 22.9118 14.2115L19.1966 11.7652L23.9687 9.3062C24.0124 9.28489 24.0081 9.26465 23.9581 9.26465L23.9591 9.26571Z" fill="#FABE00"/>
<path d="M19.663 6H4.30683C3.44916 6 2.84932 6.53805 2.70868 7.20501C2.63197 7.57152 2.77048 7.89648 3.05175 8.12022L8.56964 11.7629L8.5739 11.7608V11.7629L19.6715 6.03942C19.7162 6.01811 19.713 6 19.663 6Z" fill="#E72410"/>
<path d="M17.2289 17.4777L8.57539 11.7627H8.57326H8.57006L1.50303 15.4054C1.12693 15.6281 0.848849 15.9552 0.772138 16.3196C0.629369 16.9855 0.99801 17.5267 1.85675 17.5267H17.2139C17.2619 17.5267 17.2683 17.5054 17.2278 17.4777H17.2289Z" fill="#E72410"/>
</g>
<defs>
<clipPath id="clip0_3207_3913">
<rect width="24" height="11.527" fill="white" transform="translate(0 6)"/>
</clipPath>
</defs>
</svg>
