<svg width="24" height="24" viewBox="0 0 24 24" fill="none" xmlns="http://www.w3.org/2000/svg">
<g clip-path="url(#clip0_3207_3925)">
<path d="M21.7185 13.4181C20.6571 16.0582 18.8793 16.8012 18.8793 16.8012C24.1065 11.5076 20.9225 5.39143 20.9225 5.39143C20.153 4.02491 21.1347 3.42789 21.1347 3.42789C18.8926 3.99838 19.5958 5.85578 19.5958 5.85578C20.7235 8.54902 20.4979 10.7248 20.1132 12.0781L19.3702 11.6668H19.3835C19.3835 11.6668 21.1347 4.74134 13.9838 2.31345V1.01327H12.4714V9.58386L19.4896 13.5905C19.357 13.8559 19.2243 14.0947 19.0783 14.3202L12.0336 10.2339L4.949 14.3202C4.81632 14.0814 4.67039 13.8426 4.53772 13.5905L11.556 9.58386V1H10.0435V2.30018C2.87934 4.72807 4.64385 11.6403 4.64385 11.6403L3.9009 12.0781C3.51616 10.7248 3.29062 8.53575 4.41831 5.85578C4.41831 5.85578 5.12147 3.99838 2.87934 3.42789C2.87934 3.42789 3.8611 4.02491 3.09162 5.39143C3.09162 5.39143 -0.105731 11.4943 5.13473 16.8012C5.13473 16.8012 3.35696 16.0582 2.2956 13.4181C2.2956 13.4181 1.69858 12.1312 0.0136719 12.4098L1.02196 13.8692C1.02196 13.8692 2.5344 18.6984 8.39841 19.4414V22.1081H11.2774V18.181C11.2774 18.181 8.22594 18.1544 5.89095 15.5939L6.60737 15.1693C6.74004 15.302 8.95563 17.3451 11.9805 17.3982H11.9938H12.007C15.0319 17.3451 17.2475 15.2887 17.3802 15.1693L18.0966 15.5939C15.7616 18.1544 12.7102 18.181 12.7102 18.181V22.1081H15.5891V19.4414C21.4531 18.7117 22.9656 13.8692 22.9656 13.8692C23.3371 12.7016 23.9739 12.4098 23.9739 12.4098C22.289 12.1312 21.6919 13.4181 21.6919 13.4181M17.9374 10.8708L13.9838 8.65516L13.9573 3.91878H13.9838C13.9838 3.91878 18.7599 5.21896 17.9507 10.8708M10.0037 3.91878H10.0303L10.0037 8.65516L6.03689 10.8708C5.2276 5.20569 10.0037 3.91878 10.0037 3.91878ZM15.9606 14.3335H15.9208C14.5145 15.4347 13.1613 15.7929 11.9938 15.7929C10.8263 15.7929 9.48631 15.4214 8.06674 14.307H8.02694L11.9938 11.9985L15.9473 14.307L15.9606 14.3335Z" fill="#0056A7"/>
</g>
<defs>
<clipPath id="clip0_3207_3925">
<rect width="24" height="21.0948" fill="white" transform="translate(0 1)"/>
</clipPath>
</defs>
</svg>
