<svg width="24" height="24" viewBox="0 0 24 24" fill="none" xmlns="http://www.w3.org/2000/svg">
<g clip-path="url(#clip0_3018_6459)">
<mask id="mask0_3018_6459" style="mask-type:luminance" maskUnits="userSpaceOnUse" x="0" y="0" width="24" height="24">
<path d="M11.465 0.170898C4.93406 0.466347 -0.120851 6.00025 0.172288 12.5348C0.468889 19.0681 6.00505 24.1207 12.536 23.8288C19.0693 23.5298 24.1265 17.9959 23.8311 11.4649C23.5403 5.11505 18.3065 0.160511 12.0121 0.158203C11.8309 0.158203 11.6485 0.161665 11.465 0.170898Z" fill="white"/>
</mask>
<g mask="url(#mask0_3018_6459)">
<mask id="mask1_3018_6459" style="mask-type:luminance" maskUnits="userSpaceOnUse" x="-1" y="0" width="26" height="25">
<path d="M-0.123047 0.157227H24.1232V24.1209H-0.123047V0.157227Z" fill="white"/>
</mask>
<g mask="url(#mask1_3018_6459)">
<path d="M24.1244 0.157227H-0.123047V24.1209H24.1244V0.157227Z" fill="url(#paint0_radial_3018_6459)"/>
</g>
</g>
<mask id="mask2_3018_6459" style="mask-type:luminance" maskUnits="userSpaceOnUse" x="0" y="0" width="24" height="24">
<path d="M9.29372 22.1725C7.96998 22.0421 6.38772 21.6266 5.00859 20.4298C3.73909 19.3369 2.95431 17.832 2.5723 16.5036C2.18222 15.1475 2.01834 13.5653 2.66348 13.6911C2.86198 13.7268 3.2059 14.5993 3.57752 15.2329C3.96298 15.8873 4.27459 16.2497 4.56657 16.4724C4.69929 16.5728 5.15285 15.5676 5.81183 14.994C6.19383 14.6755 6.60931 14.5693 6.68201 15.5134C6.76049 16.6686 6.55276 18.0432 6.89206 18.0432C7.20251 18.0432 7.91689 17.8054 9.47722 17.6727C10.067 17.6231 10.4028 17.7339 9.84191 18.5221C9.56146 18.9168 9.18869 19.4731 8.3012 20.1113C9.62956 21.3554 11.2222 21.2031 11.2522 21.7328C11.2695 22.0375 10.6763 22.206 9.89615 22.206C9.70457 22.206 9.50145 22.1956 9.29141 22.1725M13.7612 10.9962C12.5448 10.7423 12.2967 9.63903 12.2967 9.63903C12.1962 9.24894 12.1732 8.7573 12.2551 8.12947C12.419 6.81841 12.7744 6.20443 13.1749 5.18767C13.7173 3.82353 12.4017 3.02605 12.6152 2.52517C12.9129 1.84656 13.8512 2.70982 14.9037 2.7733C15.8074 2.82177 16.351 2.77907 17.0527 2.87255C17.9875 2.99488 19.1058 3.31226 19.6032 3.89623C20.0579 4.43174 19.3597 5.08265 18.5253 4.67525C17.9113 4.37634 17.1415 4.55869 17.5928 5.19806C18.1363 5.80396 18.3972 5.82127 18.9546 5.96553C20.4826 6.37062 20.5138 7.83517 19.4774 8.58995C18.3037 9.45206 17.1069 9.09429 16.6326 7.40469C16.3925 6.55989 15.7993 6.13288 15.1865 6.37293C14.5817 6.61067 14.9407 7.72092 15.4023 8.74922C16.2009 10.7897 14.5852 11.0032 13.9655 11.0032C13.8685 11.0032 13.797 10.9986 13.76 10.9939M12.8829 22.5534C12.8725 22.2833 13.2672 22.2152 13.2672 22.2152C16.8184 21.5147 15.7797 19.1857 14.524 17.9993C13.9955 17.5019 9.05597 13.2364 9.05597 13.2364C4.34498 9.17854 4.72237 6.01516 4.72237 6.01516C4.95434 2.11662 8.36006 1.15064 10.9429 1.37568C11.2441 1.40108 11.4149 1.58227 11.3572 1.83732C11.303 2.112 10.9025 2.13047 10.9025 2.13047C10.0808 2.17894 9.3468 2.26088 8.78823 2.63942C6.70971 4.03934 7.31907 6.41909 10.0935 9.0689C10.4432 9.40013 10.8137 9.75328 11.198 10.1111C11.198 10.1111 11.7508 10.6015 12.8622 11.6552C14.9961 13.6195 16.1628 14.679 16.1628 14.679C19.924 17.8112 18.6361 20.6745 17.2027 21.667C16.1051 22.4276 14.891 22.7831 13.2984 22.8696L13.258 22.8719C13.1126 22.8719 12.8933 22.7831 12.8841 22.5534M11.453 0.0126951C4.83547 0.310452 -0.287526 5.92283 0.0125365 12.5427C0.3126 19.1615 5.92378 24.2857 12.5413 23.9868C19.1577 23.6879 24.2865 18.0789 23.9876 11.459C23.6979 5.02148 18.3856 0 12.0035 0C11.8223 0 11.6377 0.00461639 11.453 0.0126951Z" fill="white"/>
</mask>
<g mask="url(#mask2_3018_6459)">
<mask id="mask3_3018_6459" style="mask-type:luminance" maskUnits="userSpaceOnUse" x="-1" y="-1" width="26" height="26">
<path d="M-0.292969 -0.000244141H24.281V24.2854H-0.292969V-0.000244141Z" fill="white"/>
</mask>
<g mask="url(#mask3_3018_6459)">
<path d="M24.281 -0.000244141H-0.292969V24.2854H24.281V-0.000244141Z" fill="url(#paint1_radial_3018_6459)"/>
</g>
</g>
</g>
<defs>
<radialGradient id="paint0_radial_3018_6459" cx="0" cy="0" r="1" gradientUnits="userSpaceOnUse" gradientTransform="translate(13.4805 8.15815) scale(11.253 11.253)">
<stop stop-color="white"/>
<stop offset="1" stop-color="#D3A245"/>
</radialGradient>
<radialGradient id="paint1_radial_3018_6459" cx="0" cy="0" r="1" gradientUnits="userSpaceOnUse" gradientTransform="translate(13.8409 8.65895) scale(25.1621 25.1623)">
<stop stop-color="#2BBAEE"/>
<stop offset="0.22" stop-color="#0092D3"/>
<stop offset="0.29" stop-color="#007CC3"/>
<stop offset="0.38" stop-color="#006BB6"/>
<stop offset="0.47" stop-color="#0060AE"/>
<stop offset="0.57" stop-color="#005DAC"/>
<stop offset="1" stop-color="#005DAC"/>
</radialGradient>
<clipPath id="clip0_3018_6459">
<rect width="24" height="24" fill="white"/>
</clipPath>
</defs>
</svg>
