<svg width="27" height="26" viewBox="0 0 27 26" fill="none" xmlns="http://www.w3.org/2000/svg">
<g id="Frame 35619">
<g id="Group 6521">
<g id="Clip path group">
<mask id="mask0_3775_2104" style="mask-type:luminance" maskUnits="userSpaceOnUse" x="0" y="0" width="27" height="26">
<g id="clippath">
<path id="Vector" d="M12.7299 0.185628C5.65436 0.505709 0.177985 6.50096 0.495565 13.5802C0.816896 20.6583 6.81465 26.1321 13.8902 25.8158C20.9682 25.492 26.4471 19.4967 26.127 12.4212C25.8119 5.54197 20.1418 0.174376 13.3225 0.171875C13.1262 0.171875 12.9287 0.175626 12.7299 0.185628Z" fill="white"/>
</g>
</mask>
<g mask="url(#mask0_3775_2104)">
<g id="Group">
<g id="Clip path group_2">
<mask id="mask1_3775_2104" style="mask-type:luminance" maskUnits="userSpaceOnUse" x="0" y="0" width="27" height="27">
<g id="clippath-1">
<path id="Vector_2" d="M0.177734 0.171875H26.4456V26.1334H0.177734V0.171875Z" fill="white"/>
</g>
</mask>
<g mask="url(#mask1_3775_2104)">
<g id="Group_2">
<path id="Vector_3" d="M26.4468 0.171875H0.177734V26.1334H26.4468V0.171875Z" fill="url(#paint0_radial_3775_2104)"/>
</g>
</g>
</g>
</g>
</g>
</g>
<g id="Clip path group_3">
<mask id="mask2_3775_2104" style="mask-type:luminance" maskUnits="userSpaceOnUse" x="0" y="0" width="27" height="26">
<g id="clippath-2">
<path id="Vector_4" d="M10.3811 24.021C8.947 23.8797 7.23282 23.4296 5.73869 22.1331C4.36335 20.949 3.51313 19.3186 3.09928 17.8795C2.67667 16.4104 2.49913 14.6962 3.19805 14.8325C3.41311 14.8712 3.7857 15.8165 4.1883 16.5029C4.60591 17.2118 4.94349 17.6044 5.25982 17.8457C5.40361 17.9545 5.89498 16.8655 6.60891 16.2441C7.02277 15.899 7.47288 15.784 7.55165 16.8067C7.63667 18.0583 7.41161 19.5474 7.77921 19.5474C8.11554 19.5474 8.88949 19.2898 10.5799 19.1461C11.2188 19.0923 11.5827 19.2123 10.975 20.0663C10.6712 20.4939 10.2673 21.0965 9.30584 21.788C10.745 23.1358 12.4704 22.9708 12.5029 23.5447C12.5217 23.8747 11.879 24.0573 11.0338 24.0573C10.8262 24.0573 10.6062 24.046 10.3786 24.021M15.2211 11.913C13.9032 11.6379 13.6344 10.4426 13.6344 10.4426C13.5257 10.02 13.5006 9.48738 13.5894 8.80721C13.767 7.38685 14.1521 6.72169 14.5859 5.62016C15.1736 4.14229 13.7482 3.27832 13.9795 2.73569C14.3021 2.0005 15.3186 2.93574 16.4589 3.0045C17.4379 3.05702 18.0268 3.01076 18.787 3.11203C19.7997 3.24456 21.0113 3.5884 21.5502 4.22106C22.0428 4.8012 21.2864 5.50638 20.3824 5.06502C19.7172 4.74119 18.8832 4.93874 19.3721 5.63141C19.961 6.28783 20.2436 6.30658 20.8475 6.46287C22.5029 6.90173 22.5367 8.48838 21.4139 9.30609C20.1423 10.2401 18.8457 9.85247 18.3319 8.02201C18.0718 7.10678 17.4291 6.64417 16.7652 6.90423C16.1101 7.1618 16.4989 8.3646 16.999 9.47863C17.8642 11.6892 16.1138 11.9205 15.4424 11.9205C15.3374 11.9205 15.2598 11.9155 15.2198 11.9105M14.2696 24.4336C14.2583 24.1411 14.6859 24.0673 14.6859 24.0673C18.5332 23.3084 17.4079 20.7852 16.0475 19.4999C15.4749 18.961 10.1235 14.3398 10.1235 14.3398C5.01976 9.94375 5.42862 6.51664 5.42862 6.51664C5.67993 2.29308 9.36961 1.24656 12.1678 1.49037C12.4941 1.51788 12.6792 1.71418 12.6167 1.9905C12.5579 2.28807 12.1241 2.30808 12.1241 2.30808C11.2338 2.36059 10.4386 2.44936 9.83347 2.85947C7.58166 4.3761 8.24182 6.95425 11.2476 9.82497C11.6264 10.1838 12.0278 10.5664 12.4441 10.954C12.4441 10.954 13.043 11.4854 14.2471 12.6269C16.5589 14.755 17.823 15.9027 17.823 15.9027C21.8978 19.2961 20.5024 22.3981 18.9495 23.4734C17.7605 24.2973 16.4451 24.6824 14.7197 24.7762L14.6759 24.7787C14.5184 24.7787 14.2808 24.6824 14.2708 24.4336M12.7205 0.0137535C5.55115 0.336334 0.00100004 6.41661 0.326082 13.5884C0.651164 20.759 6.73019 26.3104 13.8995 25.9865C21.0676 25.6627 26.6239 19.5862 26.3001 12.4144C25.9863 5.44012 20.2311 0 13.3169 0C13.1206 0 12.9205 0.00500126 12.7205 0.0137535Z" fill="white"/>
</g>
</mask>
<g mask="url(#mask2_3775_2104)">
<g id="Group_3">
<g id="Clip path group_4">
<mask id="mask3_3775_2104" style="mask-type:luminance" maskUnits="userSpaceOnUse" x="0" y="0" width="27" height="27">
<g id="clippath-3">
<path id="Vector_5" d="M0 0H26.6229V26.3104H0V0Z" fill="white"/>
</g>
</mask>
<g mask="url(#mask3_3775_2104)">
<g id="Group_4">
<path id="Vector_6" d="M26.6229 0H0V26.3104H26.6229V0Z" fill="url(#paint1_radial_3775_2104)"/>
</g>
</g>
</g>
</g>
</g>
</g>
<g id="Clip path group_5">
<mask id="mask4_3775_2104" style="mask-type:luminance" maskUnits="userSpaceOnUse" x="0" y="0" width="27" height="26">
<g id="clippath-2_2">
<path id="Vector_7" d="M10.3811 24.021C8.947 23.8797 7.23282 23.4296 5.73869 22.1331C4.36335 20.949 3.51313 19.3186 3.09928 17.8795C2.67667 16.4104 2.49913 14.6962 3.19805 14.8325C3.41311 14.8712 3.7857 15.8165 4.1883 16.5029C4.60591 17.2118 4.94349 17.6044 5.25982 17.8457C5.40361 17.9545 5.89498 16.8655 6.60891 16.2441C7.02277 15.899 7.47288 15.784 7.55165 16.8067C7.63667 18.0583 7.41161 19.5474 7.77921 19.5474C8.11554 19.5474 8.88949 19.2898 10.5799 19.1461C11.2188 19.0923 11.5827 19.2123 10.975 20.0663C10.6712 20.4939 10.2673 21.0965 9.30584 21.788C10.745 23.1358 12.4704 22.9708 12.5029 23.5447C12.5217 23.8747 11.879 24.0573 11.0338 24.0573C10.8262 24.0573 10.6062 24.046 10.3786 24.021M15.2211 11.913C13.9032 11.6379 13.6344 10.4426 13.6344 10.4426C13.5257 10.02 13.5006 9.48738 13.5894 8.80721C13.767 7.38685 14.1521 6.72169 14.5859 5.62016C15.1736 4.14229 13.7482 3.27832 13.9795 2.73569C14.3021 2.0005 15.3186 2.93574 16.4589 3.0045C17.4379 3.05702 18.0268 3.01076 18.787 3.11203C19.7997 3.24456 21.0113 3.5884 21.5502 4.22106C22.0428 4.8012 21.2864 5.50638 20.3824 5.06502C19.7172 4.74119 18.8832 4.93874 19.3721 5.63141C19.961 6.28783 20.2436 6.30658 20.8475 6.46287C22.5029 6.90173 22.5367 8.48838 21.4139 9.30609C20.1423 10.2401 18.8457 9.85247 18.3319 8.02201C18.0718 7.10678 17.4291 6.64417 16.7652 6.90423C16.1101 7.1618 16.4989 8.3646 16.999 9.47863C17.8642 11.6892 16.1138 11.9205 15.4424 11.9205C15.3374 11.9205 15.2598 11.9155 15.2198 11.9105M14.2696 24.4336C14.2583 24.1411 14.6859 24.0673 14.6859 24.0673C18.5332 23.3084 17.4079 20.7852 16.0475 19.4999C15.4749 18.961 10.1235 14.3398 10.1235 14.3398C5.01976 9.94375 5.42862 6.51664 5.42862 6.51664C5.67993 2.29308 9.36961 1.24656 12.1678 1.49037C12.4941 1.51788 12.6792 1.71418 12.6167 1.9905C12.5579 2.28807 12.1241 2.30808 12.1241 2.30808C11.2338 2.36059 10.4386 2.44936 9.83347 2.85947C7.58166 4.3761 8.24182 6.95425 11.2476 9.82497C11.6264 10.1838 12.0278 10.5664 12.4441 10.954C12.4441 10.954 13.043 11.4854 14.2471 12.6269C16.5589 14.755 17.823 15.9027 17.823 15.9027C21.8978 19.2961 20.5024 22.3981 18.9495 23.4734C17.7605 24.2973 16.4451 24.6824 14.7197 24.7762L14.6759 24.7787C14.5184 24.7787 14.2808 24.6824 14.2708 24.4336M12.7205 0.0137535C5.55115 0.336334 0.00100004 6.41661 0.326082 13.5884C0.651164 20.759 6.73019 26.3104 13.8995 25.9865C21.0676 25.6627 26.6239 19.5862 26.3001 12.4144C25.9863 5.44012 20.2311 0 13.3169 0C13.1206 0 12.9205 0.00500126 12.7205 0.0137535Z" fill="white"/>
</g>
</mask>
<g mask="url(#mask4_3775_2104)">
<g id="Group_5">
<g id="Clip path group_6">
<mask id="mask5_3775_2104" style="mask-type:luminance" maskUnits="userSpaceOnUse" x="0" y="0" width="27" height="27">
<g id="clippath-3_2">
<path id="Vector_8" d="M0 0H26.6229V26.3104H0V0Z" fill="white"/>
</g>
</mask>
<g mask="url(#mask5_3775_2104)">
<g id="Group_6">
<path id="Vector_9" d="M26.6229 0H0V26.3104H26.6229V0Z" fill="url(#paint2_radial_3775_2104)"/>
</g>
</g>
</g>
</g>
</g>
</g>
</g>
</g>
<defs>
<radialGradient id="paint0_radial_3775_2104" cx="0" cy="0" r="1" gradientUnits="userSpaceOnUse" gradientTransform="translate(14.9155 8.83983) scale(12.1912 12.1912)">
<stop stop-color="white"/>
<stop offset="1" stop-color="#D3A245"/>
</radialGradient>
<radialGradient id="paint1_radial_3775_2104" cx="0" cy="0" r="1" gradientUnits="userSpaceOnUse" gradientTransform="translate(15.3124 9.3811) scale(27.26 27.26)">
<stop stop-color="#2BBAEE"/>
<stop offset="0.22" stop-color="#0092D3"/>
<stop offset="0.29" stop-color="#007CC3"/>
<stop offset="0.38" stop-color="#006BB6"/>
<stop offset="0.47" stop-color="#0060AE"/>
<stop offset="0.57" stop-color="#005DAC"/>
<stop offset="1" stop-color="#005DAC"/>
</radialGradient>
<radialGradient id="paint2_radial_3775_2104" cx="0" cy="0" r="1" gradientUnits="userSpaceOnUse" gradientTransform="translate(15.3124 9.3811) scale(27.26 27.26)">
<stop stop-color="#2BBAEE"/>
<stop offset="0.22" stop-color="#0092D3"/>
<stop offset="0.29" stop-color="#007CC3"/>
<stop offset="0.38" stop-color="#006BB6"/>
<stop offset="0.47" stop-color="#0060AE"/>
<stop offset="0.57" stop-color="#005DAC"/>
<stop offset="1" stop-color="#005DAC"/>
</radialGradient>
</defs>
</svg>
