<svg width="24" height="24" viewBox="0 0 24 24" fill="none" xmlns="http://www.w3.org/2000/svg">
<g clip-path="url(#clip0_3207_3904)">
<path d="M9.56922 8.99488C9.97506 8.99488 10.3071 8.66744 10.3071 8.26621C10.3071 7.86498 9.97506 7.52832 9.56922 7.52832C9.16338 7.52832 8.83594 7.85576 8.83594 8.26621C8.83594 8.67667 9.16338 8.99488 9.56922 8.99488Z" fill="#0068B7"/>
<path d="M2.51914 12.6704C2.92499 12.6704 3.25704 12.343 3.25704 11.9325C3.25704 11.522 2.92499 11.1992 2.51914 11.1992C2.1133 11.1992 1.78125 11.5313 1.78125 11.9325C1.78125 12.3337 2.10869 12.6704 2.51914 12.6704Z" fill="#0068B7"/>
<path d="M20.9113 12.3843C20.9113 12.3843 20.6023 13.2698 21.1142 13.6802C21.1142 13.6802 21.7968 14.3951 20.9805 14.2567C20.9805 14.2567 18.3517 13.92 16.0689 14.6349C16.0689 14.6349 14.9436 14.7686 13.9889 15.7924C13.9889 15.7924 13.1035 16.7286 14.2288 17.5311C14.2288 17.5311 15.0128 18.1768 13.9198 18.1768C13.9198 18.1768 10.341 18.6241 8.05813 17.3605C8.05813 17.3605 5.97819 16.2352 7.85521 14.9254C7.85521 14.9254 8.7084 14.2567 10.341 13.9892C10.341 13.9892 12.6423 13.422 15.6584 13.9339C15.6584 13.9339 12.4901 12.4212 15.6584 10.8163C15.6584 10.8163 17.6369 9.69099 21.5893 10.1014C21.5893 10.1014 22.59 10.1153 23.6046 10.4197C22.2718 6.7302 17.5816 4 11.992 4C5.5539 4 0.310241 7.61106 0.00585938 12.1445C0.0796488 11.937 0.73453 10.5303 4.64998 10.2214C4.64998 10.2214 6.6054 10.1014 8.56543 10.4612C8.56543 10.4612 5.125 9.02689 8.38096 7.33896C8.38096 7.33896 11.0697 5.77094 16.5255 6.90084C16.5255 6.90084 17.1573 7.14065 16.5255 7.3943C16.5255 7.3943 14.2749 7.81859 13.7353 9.11913C13.7353 9.11913 13.4448 9.83396 14.0581 10.4289C14.0581 10.4289 14.5378 10.7886 13.7169 10.7748C13.7169 10.7748 10.175 10.2306 7.53238 11.7755C7.53238 11.7755 5.62308 12.7994 7.12654 14.1645C7.12654 14.1645 7.70763 14.538 6.9559 14.6395C6.9559 14.6395 1.56927 15.3543 0.0519777 12.97L0.00585938 12.887C0.245675 17.4527 5.51239 20.8701 11.9966 20.8701C18.4809 20.8701 24.0059 17.2913 24.0059 12.5642C24.0059 11.9785 23.9228 11.4066 23.766 10.8578C23.7476 10.8578 21.9997 11.0008 20.9159 12.3843H20.9113Z" fill="#0068B7"/>
<path d="M9.69422 14.635C9.29299 14.635 8.96094 14.9624 8.96094 15.3683C8.96094 15.7741 9.29299 16.1016 9.69422 16.1016C10.0954 16.1016 10.4321 15.7787 10.4321 15.3683C10.4321 14.9578 10.1047 14.635 9.69422 14.635Z" fill="#0068B7"/>
<path d="M16.7643 11.0007C16.3584 11.0007 16.031 11.3282 16.031 11.734C16.031 12.1399 16.3631 12.4719 16.7643 12.4719C17.1655 12.4719 17.4976 12.1399 17.4976 11.734C17.4976 11.3282 17.1701 11.0007 16.7643 11.0007Z" fill="#0068B7"/>
</g>
<defs>
<clipPath id="clip0_3207_3904">
<rect width="24" height="16.8701" fill="white" transform="translate(0 4)"/>
</clipPath>
</defs>
</svg>
