<?xml version="1.0" encoding="UTF-8"?>
<!DOCTYPE svg PUBLIC "-//W3C//DTD SVG 1.1//EN" "http://www.w3.org/Graphics/SVG/1.1/DTD/svg11.dtd">
<svg xmlns="http://www.w3.org/2000/svg" version="1.1" width="524px" height="522px" style="shape-rendering:geometricPrecision; text-rendering:geometricPrecision; image-rendering:optimizeQuality; fill-rule:evenodd; clip-rule:evenodd" xmlns:xlink="http://www.w3.org/1999/xlink">
<g><path style="opacity:0.981" fill="#0045ff" d="M 246.5,40.5 C 333.253,37.9565 400.753,72.2898 449,143.5C 486.88,208.058 492.547,275.391 466,345.5C 429.212,426.512 366.379,471.678 277.5,481C 185.719,483.873 116.219,446.373 69,368.5C 32.3333,296.833 32.3333,225.167 69,153.5C 109.231,86.4479 168.398,48.7813 246.5,40.5 Z M 212.5,84.5 C 217.16,84.6158 218.66,86.6158 217,90.5C 197.634,100.908 184.634,116.575 178,137.5C 174.421,154.94 177.755,170.94 188,185.5C 199.56,199.393 212.727,211.56 227.5,222C 257.341,240.424 287.675,258.091 318.5,275C 330.335,282.083 342.002,289.417 353.5,297C 367.492,307.834 377.992,321.334 385,337.5C 393.663,369.337 384.829,395.17 358.5,415C 350.664,420.755 342.331,425.755 333.5,430C 331.5,430.667 329.5,430.667 327.5,430C 326.941,429.275 326.608,428.442 326.5,427.5C 330.495,421.322 334.328,414.988 338,408.5C 344.736,390.278 342.07,373.612 330,358.5C 321.679,348.837 312.179,340.67 301.5,334C 274.167,318.667 246.833,303.333 219.5,288C 195.099,274.611 173.266,257.778 154,237.5C 122.194,199.715 120.861,161.048 150,121.5C 167.006,102.652 187.84,90.3184 212.5,84.5 Z M 270.5,92.5 C 281.441,95.1515 292.441,97.6515 303.5,100C 316.532,100.173 329.532,100.84 342.5,102C 354.175,104.507 364.842,109.174 374.5,116C 379.416,120.076 382.416,125.243 383.5,131.5C 382.759,136.043 380.092,137.876 375.5,137C 369.491,134.078 363.325,131.578 357,129.5C 351.814,131.214 350.48,134.547 353,139.5C 354.5,141 356,142.5 357.5,144C 364.952,147.262 372.619,149.929 380.5,152C 395.26,158.026 399.76,168.526 394,183.5C 390.598,190.237 385.765,195.737 379.5,200C 371.239,202.632 364.405,200.465 359,193.5C 354.811,187.123 351.145,180.456 348,173.5C 345.5,168.333 341.667,164.5 336.5,162C 328.184,159.981 323.517,163.148 322.5,171.5C 324.004,179.843 327.171,187.51 332,194.5C 334.103,207.107 328.936,215.274 316.5,219C 303.794,221.065 293.627,216.898 286,206.5C 277.952,191.809 275.285,176.142 278,159.5C 278.948,152.427 280.281,145.427 282,138.5C 283.895,128.161 282.228,118.494 277,109.5C 273.615,105.783 270.615,101.783 268,97.5C 267.294,95.0448 268.127,93.3781 270.5,92.5 Z M 111.5,318.5 C 115.503,318.971 118.669,320.971 121,324.5C 127.559,334.448 134.726,343.948 142.5,353C 144.87,355.37 147.704,356.87 151,357.5C 152.711,357.561 154.044,356.894 155,355.5C 158.906,346.682 163.573,338.348 169,330.5C 174.42,323.559 178.753,324.226 182,332.5C 185.301,344.64 187.635,356.974 189,369.5C 191.184,376.494 195.684,378.327 202.5,375C 214.864,369.934 227.53,365.768 240.5,362.5C 244.113,362.628 245.78,364.461 245.5,368C 241.584,380.999 235.417,392.832 227,403.5C 226.333,405.5 226.333,407.5 227,409.5C 231.892,414.7 237.725,418.534 244.5,421C 253.423,424.53 262.423,427.863 271.5,431C 274.11,435.466 272.777,438.466 267.5,440C 227.727,443.641 191.394,434.308 158.5,412C 130.981,390.476 114.314,362.476 108.5,328C 108.109,324.329 109.109,321.162 111.5,318.5 Z"/></g>
</svg>
