<?xml version="1.0" encoding="UTF-8"?>
<!DOCTYPE svg PUBLIC "-//W3C//DTD SVG 1.1//EN" "http://www.w3.org/Graphics/SVG/1.1/DTD/svg11.dtd">
<svg xmlns="http://www.w3.org/2000/svg" version="1.1" width="7051px" height="1080px" style="shape-rendering:geometricPrecision; text-rendering:geometricPrecision; image-rendering:optimizeQuality; fill-rule:evenodd; clip-rule:evenodd" xmlns:xlink="http://www.w3.org/1999/xlink">
<g><path style="opacity:0.997" fill="#1327a0" d="M 325.5,-0.5 C 351.5,-0.5 377.5,-0.5 403.5,-0.5C 452.582,1.738 500.582,10.5713 547.5,26C 646.777,62.3056 698.944,133.472 704,239.5C 704.5,268.165 704.667,296.831 704.5,325.5C 620.167,325.5 535.833,325.5 451.5,325.5C 451.667,299.831 451.5,274.165 451,248.5C 444.054,203.888 418.221,178.388 373.5,172C 346.166,168.399 320.833,173.732 297.5,188C 279.913,202.327 269.413,220.827 266,243.5C 259.535,281.11 270.369,312.61 298.5,338C 322.925,358.719 349.258,376.719 377.5,392C 416.167,412.667 454.833,433.333 493.5,454C 543.752,480.286 590.752,511.286 634.5,547C 666.159,573.981 690.992,606.147 709,643.5C 719.463,669.479 725.463,696.479 727,724.5C 730.399,771.453 728.065,818.119 720,864.5C 704.966,938.79 664.466,994.29 598.5,1031C 549.423,1055.94 497.423,1070.94 442.5,1076C 429.68,1077.18 417.014,1078.34 404.5,1079.5C 378.833,1079.5 353.167,1079.5 327.5,1079.5C 269.641,1076.96 213.641,1065.13 159.5,1044C 60.1876,999.81 6.85428,923.31 -0.5,814.5C -0.5,779.167 -0.5,743.833 -0.5,708.5C 89.8333,708.5 180.167,708.5 270.5,708.5C 270.333,742.835 270.5,777.168 271,811.5C 275.68,859.517 301.847,887.683 349.5,896C 433.654,905.507 474.821,868.007 473,783.5C 470.966,761.106 462.633,741.439 448,724.5C 431.623,705.782 413.123,689.615 392.5,676C 375.001,664.75 357.335,653.75 339.5,643C 283.518,612.679 228.184,581.346 173.5,549C 131.187,523.033 93.3539,491.533 60,454.5C 25.8712,412.807 7.87121,364.807 6,310.5C 2.86079,258.471 10.5275,208.138 29,159.5C 57.427,98.7402 102.927,56.2402 165.5,32C 217.218,12.6619 270.552,1.82861 325.5,-0.5 Z"/></g>
<g><path style="opacity:0.996" fill="#1327a0" d="M 3621.5,4.5 C 3678.22,2.88386 3734.22,8.38386 3789.5,21C 3832.57,31.5362 3871.24,50.5362 3905.5,78C 3942.46,111.068 3964.96,152.235 3973,201.5C 3974.91,212.431 3976.24,223.431 3977,234.5C 3977.5,265.498 3977.67,296.498 3977.5,327.5C 3894.5,327.5 3811.5,327.5 3728.5,327.5C 3728.67,304.831 3728.5,282.164 3728,259.5C 3724.59,212.433 3699.76,184.599 3653.5,176C 3628.19,172.376 3604.19,176.376 3581.5,188C 3561.38,201.496 3549.22,220.33 3545,244.5C 3538.07,279.806 3547.07,310.14 3572,335.5C 3597.47,358.324 3625.3,377.824 3655.5,394C 3706.09,420.931 3756.42,448.265 3806.5,476C 3854.53,502.685 3898.03,535.518 3937,574.5C 3961.04,600.228 3978.71,629.895 3990,663.5C 3998.55,696.433 4002.72,729.933 4002.5,764C 4001.97,792.627 3999.8,821.127 3996,849.5C 3984.04,926.722 3944.54,984.889 3877.5,1024C 3823.96,1051.97 3766.96,1067.97 3706.5,1072C 3631.49,1079.09 3557.49,1073.43 3484.5,1055C 3435.75,1041.8 3392.75,1018.47 3355.5,985C 3313.2,941.888 3289.03,890.055 3283,829.5C 3282.1,821.854 3281.43,814.188 3281,806.5C 3280.5,773.168 3280.33,739.835 3280.5,706.5C 3369.83,706.5 3459.17,706.5 3548.5,706.5C 3548.33,739.502 3548.5,772.502 3549,805.5C 3551.82,854.322 3577.32,883.155 3625.5,892C 3716.24,901.258 3757.08,860.425 3748,769.5C 3746.25,759.597 3742.92,750.264 3738,741.5C 3727.35,724.845 3714.52,710.012 3699.5,697C 3675.71,678.269 3650.71,661.269 3624.5,646C 3583.66,623.08 3542.66,600.413 3501.5,578C 3453.33,551.589 3408.67,520.256 3367.5,484C 3306.22,425.867 3279.39,354.367 3287,269.5C 3294.29,138.882 3361.12,56.7152 3487.5,23C 3531.63,11.9019 3576.3,5.73525 3621.5,4.5 Z"/></g>
<g><path style="opacity:0.997" fill="#1327a0" d="M 7050.5,473.5 C 7050.5,575.833 7050.5,678.167 7050.5,780.5C 7046.56,914.212 6980.56,1000.38 6852.5,1039C 6787.98,1056.63 6722.32,1063.29 6655.5,1059C 6597.23,1056.75 6541.23,1044.41 6487.5,1022C 6400.92,982.384 6351.42,915.217 6339,820.5C 6336.1,795.916 6334.43,771.249 6334,746.5C 6333.33,603.833 6333.33,461.167 6334,318.5C 6332.55,140.78 6419.38,38.2801 6594.5,11C 6649.35,3.95799 6704.35,2.62465 6759.5,7C 6970.64,26.3568 7067.31,141.857 7049.5,353.5C 6964.5,353.5 6879.5,353.5 6794.5,353.5C 6794.67,329.831 6794.5,306.164 6794,282.5C 6794.29,246.895 6779.79,219.395 6750.5,200C 6715.24,182.951 6679.24,181.285 6642.5,195C 6612.82,209.355 6595.32,232.855 6590,265.5C 6588.2,276.759 6587.2,288.092 6587,299.5C 6586.33,457.833 6586.33,616.167 6587,774.5C 6585.52,827.78 6610.36,861.28 6661.5,875C 6697.23,882.803 6730.56,877.136 6761.5,858C 6786.14,838.218 6797.97,812.385 6797,780.5C 6797.5,727.501 6797.67,674.501 6797.5,621.5C 6762.83,621.5 6728.17,621.5 6693.5,621.5C 6693.5,572.167 6693.5,522.833 6693.5,473.5C 6812.5,473.5 6931.5,473.5 7050.5,473.5 Z"/></g>
<g><path style="opacity:0.996" fill="#1327a0" d="M 1078.5,31.5 C 1228.17,31.5 1377.83,31.5 1527.5,31.5C 1589.39,367.854 1651.39,704.188 1713.5,1040.5C 1622.83,1040.5 1532.17,1040.5 1441.5,1040.5C 1396.33,730.462 1350.83,420.462 1305,110.5C 1258.33,419.833 1211.67,729.167 1165,1038.5C 1074.05,1040.5 982.879,1041.16 891.5,1040.5C 953.454,704.064 1015.79,367.731 1078.5,31.5 Z"/></g>
<g><path style="opacity:0.996" fill="#1427a0" d="M 1935.5,31.5 C 2072.83,31.1667 2210.17,31.5 2347.5,32.5C 2389.88,293.448 2432.05,554.448 2474,815.5C 2516.49,554.213 2558.66,292.88 2600.5,31.5C 2737.83,31.5 2875.17,31.5 3012.5,31.5C 3020.03,367.84 3027.7,704.173 3035.5,1040.5C 2950.83,1040.5 2866.17,1040.5 2781.5,1040.5C 2779.62,732.491 2777.12,424.491 2774,116.5C 2716.51,424.454 2659.34,732.454 2602.5,1040.5C 2516.83,1040.5 2431.17,1040.5 2345.5,1040.5C 2288.44,732.492 2231.28,424.492 2174,116.5C 2170.93,424.492 2168.43,732.492 2166.5,1040.5C 2082.17,1040.5 1997.83,1040.5 1913.5,1040.5C 1920.72,704.163 1928.05,367.83 1935.5,31.5 Z"/></g>
<g><path style="opacity:0.997" fill="#1327a0" d="M 4235.5,31.5 C 4320.83,31.5 4406.17,31.5 4491.5,31.5C 4491.01,290.853 4491.51,550.186 4493,809.5C 4504.17,861.149 4536.34,887.482 4589.5,888.5C 4642.74,888.069 4675.24,862.069 4687,810.5C 4688.49,550.851 4688.99,291.184 4688.5,31.5C 4773.83,31.5 4859.17,31.5 4944.5,31.5C 4944.67,285.834 4944.5,540.167 4944,794.5C 4938.27,939.568 4864.43,1027.4 4722.5,1058C 4661.35,1069.95 4599.68,1073.62 4537.5,1069C 4495.19,1066.5 4453.86,1058.84 4413.5,1046C 4313.59,1012.08 4255.76,942.918 4240,838.5C 4237.56,818.911 4236.23,799.245 4236,779.5C 4235.5,530.167 4235.33,280.834 4235.5,31.5 Z"/></g>
<g><path style="opacity:0.996" fill="#1327a0" d="M 5222.5,31.5 C 5347.83,31.5 5473.17,31.5 5598.5,31.5C 5676.84,300.526 5755.34,569.526 5834,838.5C 5829.7,569.508 5825.2,300.508 5820.5,31.5C 5903.83,31.5 5987.17,31.5 6070.5,31.5C 6070.5,364.167 6070.5,696.833 6070.5,1029.5C 5950.5,1029.5 5830.5,1029.5 5710.5,1029.5C 5626.64,752.428 5542.48,475.428 5458,198.5C 5461.74,475.51 5466.24,752.51 5471.5,1029.5C 5388.5,1029.5 5305.5,1029.5 5222.5,1029.5C 5222.5,696.833 5222.5,364.167 5222.5,31.5 Z"/></g>
</svg>
