<svg width="24" height="24" viewBox="0 0 24 24" fill="none" xmlns="http://www.w3.org/2000/svg">
<g clip-path="url(#clip0_3018_6358)">
<path d="M24 12.0015C24 18.6289 18.6258 24.003 12.0049 24.003C5.38397 24.003 0 18.6289 0 12.0015C0 5.37415 5.36769 0 12.0049 0C18.6421 0 24 5.3709 24 12.0015Z" fill="white"/>
<path d="M11.9984 23.4005C18.3133 23.4005 23.4336 18.277 23.4336 11.9621C23.4336 5.64727 18.3133 0.520508 11.9919 0.520508C5.67044 0.520508 0.556641 5.64076 0.556641 11.9621C0.556641 18.2835 5.68346 23.4005 11.9984 23.4005Z" fill="#007BC7"/>
<mask id="mask0_3018_6358" style="mask-type:luminance" maskUnits="userSpaceOnUse" x="0" y="0" width="24" height="24">
<path d="M12.0042 23.396C18.3159 23.396 23.4395 18.2757 23.4395 11.9641C23.4395 5.65248 18.3159 0.532227 11.988 0.532227C5.66002 0.532227 0.552734 5.65248 0.552734 11.9641C0.552734 18.2757 5.67629 23.396 12.0042 23.396Z" fill="white"/>
</mask>
<g mask="url(#mask0_3018_6358)">
<path d="M12.0446 17.4803C17.077 17.4803 21.3868 18.88 23.2292 20.8721C23.8477 19.4496 24.1829 17.8872 24.1829 16.2401C24.1829 9.67786 18.7469 4.3623 12.0413 4.3623C5.33579 4.3623 -0.09375 9.67787 -0.09375 16.2434C-0.09375 17.8872 0.244783 19.4496 0.86651 20.8721C2.70565 18.88 7.01869 17.4803 12.0413 17.4803H12.0446Z" fill="#007BC7"/>
<path d="M12.0448 4.46647C5.36533 4.46647 -0.0544436 9.74948 -0.064209 16.2564L-0.0576987 16.6828C-0.00236171 18.1606 0.326405 19.5668 0.886286 20.8526C2.72543 18.88 7.0287 17.4933 12.0416 17.4933C17.0545 17.4933 21.3545 18.8833 23.1936 20.8526C23.76 19.5668 24.0888 18.1574 24.1441 16.6828L24.1506 16.2499C24.1441 9.74297 18.7211 4.45996 12.0416 4.45996L12.0448 4.46647Z" fill="#007DC8"/>
<path d="M12.042 4.56445C5.38853 4.56445 -0.0214846 9.82142 -0.03125 16.2665V16.6962C0.024087 18.1642 0.352854 19.5639 0.919245 20.8464C2.74862 18.8836 7.04538 17.5067 12.042 17.5067C17.0386 17.5067 21.3288 18.8836 23.168 20.8464C23.7376 19.5639 24.0664 18.161 24.1185 16.6962L24.125 16.2665C24.1055 9.81491 18.702 4.56445 12.042 4.56445Z" fill="#007ECA"/>
<path d="M12.042 4.66504C5.40806 4.66504 0.0143225 9.88295 -0.00195312 16.2792L0.00455712 16.7024C0.0533839 18.1671 0.385406 19.5571 0.942032 20.8298C2.77141 18.8865 7.04864 17.5194 12.0387 17.5194C17.0288 17.5194 21.3028 18.8833 23.1387 20.8298C23.6986 19.5571 24.0306 18.1671 24.0794 16.7024L24.0859 16.2759C24.0632 9.88295 18.6759 4.66829 12.0387 4.66829L12.042 4.66504Z" fill="#0080CB"/>
<path d="M12.0413 4.76953C5.42694 4.76953 0.0592438 9.95489 0.0234375 16.2893L0.0332029 16.7157C0.0787745 18.1675 0.410797 19.5509 0.973933 20.8171C2.80006 18.8869 7.06426 17.536 12.0413 17.536C17.0184 17.536 21.2761 18.8869 23.1087 20.8171C23.6784 19.5509 24.0007 18.1675 24.0527 16.7125V16.286C24.0267 9.95163 18.6557 4.76953 12.0413 4.76953Z" fill="#0082CC"/>
<path d="M12.0342 4.86719C5.44582 4.86719 0.0944001 10.02 0.0585938 16.2991V16.719C0.110676 18.1642 0.432932 19.5379 0.996068 20.8008C2.82219 18.8869 7.07663 17.5425 12.0342 17.5425C16.9917 17.5425 21.2494 18.8869 23.069 20.8008C23.6387 19.5379 23.9642 18.1642 24.0163 16.719V16.2991C23.9805 10.02 18.6291 4.86719 12.0342 4.86719Z" fill="#0084CD"/>
<path d="M12.0348 4.97168C5.466 4.97168 0.127603 10.0919 0.0820312 16.3092V16.7323C0.130858 18.1646 0.459625 19.5349 1.02602 20.7882C2.84237 18.8904 7.08705 17.5624 12.0348 17.5624C16.9826 17.5624 21.2305 18.8904 23.0436 20.7882C23.61 19.5382 23.9421 18.1678 23.9811 16.7291V16.3059C23.9421 10.0887 18.6004 4.97168 12.0348 4.97168Z" fill="#0086CF"/>
<path d="M12.0355 5.07617C5.48293 5.07617 0.170571 10.1574 0.115234 16.3225V16.7392C0.164061 18.1714 0.492828 19.532 1.05596 20.7722C2.86256 18.8908 7.10072 17.5725 12.0387 17.5725C16.9768 17.5725 21.2084 18.8908 23.0183 20.7722C23.5879 19.532 23.9134 18.1681 23.9557 16.7392V16.3193C23.9069 10.1574 18.5848 5.07292 12.042 5.07617H12.0355Z" fill="#0088D0"/>
<path d="M12.0322 5.17383C5.50897 5.17383 0.206379 10.229 0.144531 16.3355V16.7489C0.186848 18.1714 0.515615 19.519 1.08201 20.7559C2.88534 18.8908 7.10723 17.5855 12.0322 17.5855C16.9572 17.5855 21.1759 18.8908 22.9857 20.7559C23.5521 19.519 23.8711 18.1649 23.9134 16.7457L23.9199 16.329C23.8548 10.2225 18.5587 5.17383 12.0322 5.17383Z" fill="#008AD1"/>
<path d="M12.0329 5.27441C5.53566 5.27441 0.246092 10.2938 0.177734 16.345V16.7584C0.220051 18.1711 0.545563 19.5187 1.11846 20.7426C2.90878 18.897 7.12416 17.5982 12.0361 17.5982C16.9481 17.5982 21.157 18.897 22.9571 20.7426C23.5267 19.5187 23.8555 18.1678 23.8945 16.7584V16.3417C23.8262 10.297 18.5399 5.27441 12.0361 5.27441H12.0329Z" fill="#008CD3"/>
<path d="M12.0329 5.37793C5.55194 5.37793 0.278644 10.3615 0.207031 16.3541V16.7675C0.246093 18.1704 0.57486 19.505 1.138 20.7289C2.93482 18.8963 7.13718 17.6106 12.0329 17.6106C16.9286 17.6106 21.1277 18.8963 22.9245 20.7289C23.4876 19.505 23.8164 18.1672 23.8555 16.7642V16.3508C23.7774 10.3615 18.5073 5.37467 12.0329 5.38118V5.37793Z" fill="#008ED4"/>
<path d="M12.0296 5.48242C5.57147 5.48242 0.320961 10.4302 0.236328 16.3642V16.7743C0.278645 18.1708 0.597646 19.5021 1.16729 20.7162C2.95435 18.8966 7.15346 17.6206 12.0329 17.6206C16.9123 17.6206 21.1049 18.8966 22.8985 20.7162C23.4681 19.4988 23.7904 18.1708 23.8294 16.7711V16.3609C23.7448 10.4302 18.4878 5.48242 12.0329 5.48242H12.0296Z" fill="#0090D5"/>
<path d="M12.0221 5.58325C5.58994 5.58325 0.352455 10.4984 0.267822 16.3771V16.7808C0.297118 18.1707 0.62263 19.4922 1.19228 20.6966C2.97934 18.8966 7.15566 17.6368 12.0253 17.6368C16.895 17.6368 21.0811 18.8966 22.8681 20.6966C23.4313 19.4922 23.76 18.1707 23.7926 16.7808V16.3706C23.7014 10.4952 18.4737 5.58325 12.0286 5.58325H12.0221Z" fill="#0092D7"/>
<path d="M12.0231 5.68066C5.61379 5.68066 0.38932 10.5666 0.294922 16.3899V16.7935C0.327473 18.1704 0.64973 19.4888 1.21938 20.6834C2.99993 18.8996 7.16648 17.6464 12.0231 17.6464C16.8798 17.6464 21.0528 18.8996 22.8301 20.6834C23.3998 19.4822 23.7253 18.1704 23.7578 16.7935V16.3867C23.6569 10.5666 18.4422 5.68392 12.0231 5.68392V5.68066Z" fill="#0094D8"/>
<path d="M12.0218 5.78125C5.63527 5.78125 0.430336 10.6313 0.326172 16.3994V16.7965C0.352213 18.1701 0.677725 19.4754 1.24737 20.67C3.02467 18.8993 7.18471 17.6591 12.0251 17.6591C16.8654 17.6591 21.0287 18.8993 22.806 20.67C23.3757 19.4754 23.6947 18.1669 23.7305 16.7965V16.3928C23.6198 10.6313 18.4246 5.78125 12.0251 5.78125H12.0218Z" fill="#0097D9"/>
<path d="M12.0231 5.88281C5.65285 5.88281 0.467445 10.7036 0.353516 16.413V16.8069C0.386067 18.1708 0.708324 19.4696 1.27797 20.6544C3.04224 18.8999 7.19578 17.6727 12.0231 17.6727C16.8505 17.6727 20.9975 18.8999 22.7715 20.6544C23.3412 19.4696 23.6634 18.1708 23.6927 16.8069V16.4033C23.5723 10.7003 18.3934 5.88281 12.0231 5.88281Z" fill="#0099DB"/>
<path d="M12.0192 5.98633C5.67499 5.98633 0.505856 10.7713 0.388672 16.4221V16.816C0.411458 18.1701 0.730459 19.4624 1.30336 20.6407C3.06438 18.8993 7.20164 17.6851 12.0225 17.6851C16.8433 17.6851 20.9806 18.9025 22.7448 20.6407C23.3112 19.4624 23.6367 18.1701 23.6628 16.8095V16.4156C23.5391 10.7681 18.3765 5.98633 12.0225 5.98633H12.0192Z" fill="#009BDC"/>
<path d="M12.0199 6.09082C5.69842 6.09082 0.542314 10.84 0.412109 16.4322V16.8196C0.441405 18.1705 0.757152 19.4562 1.33005 20.6248C3.08782 18.9029 7.21531 17.6952 12.0231 17.6952C16.8309 17.6952 20.9519 18.9029 22.7162 20.6248C23.2858 19.453 23.6016 18.1705 23.6341 16.8196V16.4257C23.4974 10.8367 18.3543 6.08757 12.0264 6.09082H12.0199Z" fill="#009DDD"/>
<path d="M12.0166 6.18555C5.70819 6.18555 0.578121 10.9087 0.441406 16.4456V16.8297C0.460937 18.1675 0.783194 19.4468 1.34958 20.6088C3.10735 18.9032 7.22182 17.7086 12.0166 17.7086C16.8114 17.7086 20.9259 18.9032 22.6771 20.6088C23.25 19.4468 23.569 18.1675 23.5918 16.8297V16.4391C23.4486 10.9054 18.325 6.18555 12.0166 6.18555Z" fill="#009FDF"/>
<path d="M12.0108 6.29004C5.73163 6.29004 0.617835 10.9774 0.474609 16.4557V16.843C0.490885 18.1711 0.813142 19.4439 1.38279 20.5994C3.13404 18.9133 7.242 17.7219 12.014 17.7219C16.786 17.7219 20.9037 18.91 22.6517 20.5994C23.2214 19.4439 23.5436 18.1711 23.5664 16.843L23.5599 16.4524C23.4167 10.9741 18.3029 6.29329 12.0173 6.29329L12.0108 6.29004Z" fill="#00A2E0"/>
<path d="M12.014 6.39453C5.75767 6.39453 0.656897 11.0428 0.503906 16.469V16.8531C0.516927 18.1714 0.839184 19.4377 1.40557 20.5835C3.15032 18.9103 7.25502 17.7385 12.0108 17.7385C16.7665 17.7385 20.8712 18.9103 22.6257 20.5835C23.1953 19.4377 23.5078 18.1714 23.5339 16.8499V16.4625C23.3744 11.0461 18.2769 6.39453 12.014 6.39779V6.39453Z" fill="#00A4E1"/>
<path d="M12.0108 6.49121C5.77395 6.49121 0.695959 11.1134 0.533203 16.4746V16.8554C0.549479 18.1705 0.86848 19.4237 1.43487 20.563C3.17311 18.9094 7.25503 17.7506 12.0108 17.7506C16.7665 17.7506 20.8484 18.9126 22.5899 20.563C23.1628 19.4269 23.4785 18.1705 23.4916 16.8554V16.4681C23.3288 11.1102 18.2541 6.49121 12.0108 6.49121Z" fill="#00A6E3"/>
<path d="M12.0114 6.5957C5.79413 6.5957 0.725907 11.1821 0.563151 16.4879L0.556641 16.8688C0.576171 18.1708 0.888663 19.4208 1.45831 20.5503C3.1998 18.9097 7.2687 17.7639 12.0114 17.7639C16.7541 17.7639 20.823 18.913 22.5612 20.5503C23.1341 19.4175 23.4466 18.1708 23.4629 16.8655V16.4814C23.2904 11.1789 18.2287 6.5957 12.0114 6.59896V6.5957Z" fill="#00A9E4"/>
<path d="M12.0075 6.69727C5.81952 6.69727 0.761063 11.2511 0.591797 16.4951V16.8727C0.595052 18.1682 0.920564 19.4149 1.48695 20.5346C3.21217 18.9104 7.27781 17.7711 12.0042 17.7711C16.7307 17.7711 20.7963 18.9104 22.5215 20.5346C23.0944 19.4084 23.4167 18.1682 23.42 16.8727V16.4886C23.2474 11.2479 18.1987 6.69727 12.001 6.69727H12.0075Z" fill="#00ABE5"/>
<path d="M12.0075 6.79785C5.83254 6.79785 0.803381 11.3159 0.621094 16.511V16.8854C0.630859 18.1711 0.940095 19.4048 1.51625 20.5213C3.24147 18.9133 7.29409 17.787 12.0075 17.787C16.7209 17.787 20.7735 18.9133 22.5053 20.5213C23.0684 19.4048 23.3842 18.1711 23.3939 16.8854V16.5013C23.2051 11.3192 18.1825 6.79785 12.0075 6.79785Z" fill="#00ADE7"/>
<path d="M12.0088 6.89746C5.85663 6.89746 0.837234 11.383 0.648438 16.5162V16.8906C0.654948 18.1698 0.97395 19.397 1.5436 20.507C3.26555 18.912 7.3019 17.7988 12.0056 17.7988C16.7092 17.7988 20.7456 18.9152 22.4643 20.507C23.0372 19.397 23.3562 18.1698 23.3594 16.8906V16.513C23.1576 11.383 18.1512 6.89746 12.0023 6.89746H12.0088Z" fill="#00B0E8"/>
<path d="M12.0088 6.99805C5.87616 6.99805 0.879552 11.4543 0.6875 16.5289L0.677734 16.9C0.690755 18.1695 0.999991 19.3934 1.56964 20.4904C3.28834 18.9149 7.31167 17.8115 12.0088 17.8115C16.7059 17.8115 20.7163 18.9149 22.4447 20.4904C23.0111 19.3902 23.3269 18.1695 23.3334 16.9L23.3269 16.5224C23.1316 11.451 18.1382 6.99805 12.0088 6.99805Z" fill="#00B2EA"/>
<path d="M12.0043 7.09961C5.9009 7.09961 0.917312 11.5233 0.708984 16.5426V16.9104C0.708984 18.1734 1.02473 19.3876 1.59763 20.478C3.31308 18.9156 7.32664 17.8251 12.0043 17.8251C16.6819 17.8251 20.6922 18.9156 22.4076 20.478C22.9838 19.3811 23.293 18.1734 23.3028 16.9104L23.293 16.5394C23.0912 11.5233 18.1109 7.10286 12.0043 7.10286V7.09961Z" fill="#0FB5EB"/>
<path d="M12.0049 7.2002C5.91457 7.2002 0.950515 11.5881 0.742187 16.5488L0.732422 16.9134C0.742187 18.1698 1.05468 19.3742 1.62758 20.4614C3.33326 18.9153 7.34357 17.8346 12.0049 17.8346C16.6662 17.8346 20.6733 18.912 22.3757 20.4614C22.9519 19.371 23.2644 18.1698 23.2676 16.9134V16.5456C23.0463 11.5848 18.092 7.2002 12.0049 7.2002Z" fill="#1DB7EC"/>
<path d="M12.0069 7.30306C5.93606 7.30306 0.99153 11.6584 0.773437 16.5638L0.763672 16.9251C0.766927 18.1718 1.08267 19.3697 1.65557 20.4471C3.36126 18.9172 7.35203 17.8495 12.0069 17.8495C16.6617 17.8495 20.6492 18.9172 22.3549 20.4471C22.9213 19.3697 23.2338 18.1751 23.237 16.9251L23.2305 16.554C23.0092 11.6519 18.0679 7.2998 12.0069 7.2998V7.30306Z" fill="#27BAEE"/>
<path d="M11.999 7.40234C5.96405 7.40234 1.02929 11.7284 0.804687 16.5719L0.794922 16.9332C0.794922 18.1767 1.11392 19.3615 1.67706 20.4357C3.37623 18.9188 7.3605 17.8609 11.9958 17.8609C16.6311 17.8609 20.6186 18.9188 22.3145 20.4357C22.8907 19.3615 23.1901 18.1734 23.1999 16.9332L23.1901 16.5687C22.959 11.7284 18.0405 7.4056 11.9925 7.4056L11.999 7.40234Z" fill="#2FBCEF"/>
<path d="M11.9925 17.8743C16.6246 17.8743 20.6023 18.9192 22.2917 20.423C22.8614 19.3521 23.1706 18.1738 23.1706 16.9433C23.1706 12.0086 18.174 7.50684 11.9925 7.50684C5.81106 7.50684 0.824219 12.0119 0.824219 16.9401C0.824219 18.1738 1.13671 19.3521 1.70636 20.423C3.40553 18.9192 7.36701 17.8743 11.9925 17.8743Z" fill="#37BEF0"/>
<path d="M11.9932 17.9072C16.6155 17.9072 20.59 18.939 22.2729 20.4331C22.849 19.372 23.1615 18.2034 23.1615 16.9795C23.1615 12.0773 18.1649 7.60156 11.9932 7.60156C5.82148 7.60156 0.837891 12.0806 0.837891 16.9795C0.837891 18.2034 1.15038 19.3752 1.72003 20.4331C3.40944 18.939 7.38394 17.9072 11.9932 17.9072Z" fill="#45C0F0"/>
<path d="M11.9925 17.9368C16.6116 17.9368 20.5698 18.9687 22.2624 20.4497C22.8321 19.3983 23.1446 18.233 23.1446 17.0156C23.1446 12.1493 18.1545 7.69629 11.9925 7.69629C5.83059 7.69629 0.853516 12.146 0.853516 17.0124C0.853516 18.2298 1.16601 19.3918 1.7324 20.4465C3.42506 18.9654 7.38654 17.9335 11.9925 17.9335V17.9368Z" fill="#50C2F1"/>
<path d="M11.9932 17.9632C16.6057 17.9632 20.5607 18.9885 22.2501 20.4598C22.8197 19.4149 23.1355 18.2626 23.1355 17.0517C23.1355 12.2147 18.1519 7.79102 11.9932 7.79102C5.8345 7.79102 0.867188 12.2147 0.867188 17.0517C0.867188 18.2561 1.18293 19.4149 1.74933 20.4631C3.43548 18.9918 7.3937 17.9632 11.9899 17.9632H11.9932Z" fill="#5BC4F1"/>
<path d="M11.9938 17.988C16.6031 17.988 20.5483 19.0101 22.2312 20.4684C22.8008 19.4267 23.1133 18.281 23.1133 17.0831C23.1133 12.2818 18.1395 7.87769 11.9906 7.87769C5.84166 7.87769 0.880859 12.2818 0.880859 17.0831C0.880859 18.281 1.19661 19.4333 1.75974 20.4684C3.44264 19.0068 7.39761 17.988 11.9906 17.988H11.9938Z" fill="#64C7F2"/>
<path d="M11.9925 18.0214C16.5855 18.0214 20.5405 19.0337 22.2201 20.4822C22.7865 19.4503 23.0958 18.3111 23.0958 17.1197C23.0958 12.3445 18.1284 7.9729 11.9925 7.9729C5.85664 7.9729 0.902344 12.3445 0.902344 17.1197C0.902344 18.3078 1.20507 19.4536 1.77146 20.4822C3.46087 19.0304 7.40607 18.0214 11.9925 18.0214Z" fill="#6DC9F3"/>
<path d="M11.9925 18.0465C16.5855 18.0465 20.5307 19.0523 22.2071 20.4943C22.7735 19.469 23.086 18.3362 23.086 17.1514C23.086 12.412 18.1187 8.06641 11.9925 8.06641C5.8664 8.06641 0.912109 12.412 0.912109 17.1546C0.912109 18.3362 1.22786 19.4722 1.78448 20.4976C3.47063 19.0556 7.41584 18.0498 11.9925 18.0498V18.0465Z" fill="#75CBF3"/>
<path d="M11.9938 18.0722C16.5803 18.0722 20.519 19.0748 22.1954 20.507C22.7585 19.4882 23.0678 18.3652 23.0678 17.1868C23.0678 12.4832 18.1167 8.15723 11.9938 8.15723C5.87096 8.15723 0.929688 12.4832 0.929688 17.1868C0.929688 18.3652 1.24218 19.4914 1.80531 20.507C3.4817 19.0781 7.4204 18.0787 11.9938 18.0722Z" fill="#7DCDF4"/>
<path d="M11.9945 18.1093C16.5777 18.1093 20.5066 19.1021 22.1798 20.5181C22.7462 19.509 23.0521 18.3958 23.0521 17.224C23.0521 12.5496 18.1044 8.25293 11.9945 8.25293C5.88463 8.25293 0.943359 12.5496 0.943359 17.224C0.943359 18.3958 1.2526 19.5123 1.81573 20.5214C3.49212 19.0989 7.42105 18.1093 11.9945 18.1093Z" fill="#84D0F4"/>
<path d="M11.9912 18.1347C16.5647 18.1347 20.4904 19.121 22.1602 20.5337C22.7234 19.5312 23.0359 18.4179 23.0359 17.2624C23.0359 12.6174 18.0946 8.34668 11.9912 8.34668C5.88789 8.34668 0.962891 12.6174 0.962891 17.2591C0.962891 18.4244 1.26562 19.5312 1.82875 20.5337C3.49863 19.1243 7.42756 18.1347 11.9912 18.1347Z" fill="#8BD2F5"/>
<path d="M11.9932 18.1635C16.5634 18.1635 20.4825 19.1432 22.1459 20.5429C22.7123 19.5469 23.028 18.4467 23.028 17.2944C23.028 12.6819 18.09 8.43726 11.9932 8.43726C5.89635 8.43726 0.974609 12.6851 0.974609 17.2976C0.974609 18.4467 1.28385 19.5501 1.84698 20.5462C3.52011 19.1465 7.43928 18.17 11.9932 18.1667V18.1635Z" fill="#92D4F5"/>
<path d="M11.9938 18.1937C16.5608 18.1937 20.4637 19.1702 22.1401 20.5569C22.6967 19.5673 23.0092 18.4768 23.0092 17.3343C23.0092 12.7511 18.0777 8.53906 11.9938 8.53906C5.91002 8.53906 0.988281 12.7511 0.988281 17.3343C0.988281 18.4768 1.30077 19.5706 1.86065 20.5634C3.53053 19.1702 7.44969 18.2002 11.9938 18.1937Z" fill="#99D6F6"/>
<path d="M11.9906 18.2256C16.5478 18.2256 20.4539 19.1923 22.1205 20.5725C22.6804 19.5862 22.9864 18.5022 22.9864 17.3662C22.9864 12.8221 18.0712 8.62305 11.9906 8.62305C5.91002 8.62305 0.998047 12.8221 0.998047 17.3662C0.998047 18.5055 1.30728 19.5927 1.87042 20.5725C3.5403 19.1891 7.4497 18.2256 11.9906 18.2256Z" fill="#9FD9F7"/>
<path d="M11.9932 18.2529C16.5438 18.2529 20.4435 19.2132 22.1101 20.5868C22.6732 19.6103 22.9792 18.5328 22.9792 17.4001C22.9792 12.8885 18.064 8.71875 11.9932 8.71875C5.92239 8.71875 1.02344 12.8885 1.02344 17.4001C1.02344 18.5328 1.32616 19.6103 1.8893 20.5868C3.55267 19.2132 7.4523 18.2529 11.9899 18.2529H11.9932Z" fill="#A5DBF7"/>
<path d="M11.9919 18.2816C16.5328 18.2816 20.4292 19.2353 22.0893 20.5959C22.6492 19.6259 22.9584 18.5582 22.9584 17.4352C22.9584 12.9562 18.0529 8.8125 11.9919 8.8125C5.93086 8.8125 1.03516 12.9562 1.03516 17.4352C1.03516 18.5582 1.34439 19.6259 1.89776 20.5959C3.56764 19.2353 7.46076 18.2816 11.9919 18.2816Z" fill="#ABDDF8"/>
<path d="M11.9919 18.3105C16.5295 18.3105 20.4161 19.2578 22.0828 20.6119C22.6361 19.6484 22.9486 18.5872 22.9486 17.4707C22.9486 13.0243 18.0432 8.90332 11.9919 8.90332C5.94062 8.90332 1.04492 13.0243 1.04492 17.4707C1.04492 18.5872 1.35741 19.6484 1.91404 20.6119C3.57741 19.2578 7.47053 18.3105 11.9919 18.3105Z" fill="#B1DFF8"/>
<path d="M11.9925 18.3398C16.5204 18.3398 20.4038 19.2805 22.0704 20.6216C22.627 19.6646 22.9297 18.6133 22.9297 17.5065C22.9297 13.0926 18.0373 9.00098 11.9925 9.00098C5.94778 9.00098 1.06836 13.0894 1.06836 17.5065C1.06836 18.6133 1.3776 19.6712 1.92771 20.6216C3.58782 19.2805 7.47769 18.3398 11.9925 18.3398Z" fill="#B7E1F9"/>
<path d="M11.9991 18.3721C16.5172 18.3721 20.3973 19.303 22.0509 20.6343C22.6107 19.6839 22.9167 18.6357 22.9167 17.542C22.9167 13.1541 18.0308 9.0918 11.9991 9.0918C5.96732 9.0918 1.07812 13.1574 1.07812 17.542C1.07812 18.6357 1.38736 19.6871 1.94073 20.6343C3.59759 19.303 7.47769 18.3721 11.9991 18.3721Z" fill="#BCE4F9"/>
<path d="M11.9991 18.3984C16.5107 18.3984 20.3908 19.3229 22.0411 20.6477C22.5945 19.707 22.9037 18.6653 22.9037 17.5781C22.9037 13.2228 18.0178 9.18652 11.9991 9.18652C5.98034 9.18652 1.09766 13.2228 1.09766 17.5749C1.09766 18.6686 1.39713 19.707 1.9505 20.6477C3.61386 19.3229 7.4842 18.4017 11.9991 18.3984Z" fill="#C1E6FA"/>
<path d="M11.9991 18.4284C16.5009 18.4284 20.3712 19.3463 22.0248 20.6581C22.5782 19.7239 22.8842 18.6953 22.8842 17.6113C22.8842 13.2886 18.0113 9.27832 11.9991 9.27832C5.98685 9.27832 1.11719 13.2886 1.11719 17.6113C1.11719 18.6953 1.41666 19.7239 1.96677 20.6581C3.62688 19.3463 7.49722 18.4284 12.0023 18.4284H11.9991Z" fill="#C7E8FA"/>
<path d="M11.9978 18.4557C16.4963 18.4557 20.3569 19.3671 22.0105 20.6724C22.5639 19.7447 22.8699 18.7194 22.8699 17.6485C22.8699 13.3583 18.0067 9.37402 11.9978 9.37402C5.9888 9.37402 1.11914 13.355 1.11914 17.6485C1.11914 18.7226 1.43163 19.7447 1.98175 20.6724C3.63209 19.3671 7.49918 18.4557 11.9978 18.4557Z" fill="#CCEAFB"/>
<path d="M12.001 18.4827C16.4963 18.4827 20.3471 19.3942 21.9942 20.6832C22.5509 19.762 22.8568 18.7464 22.8568 17.682C22.8568 13.4243 17.9969 9.46289 12.001 9.46289C6.00508 9.46289 1.13867 13.4243 1.13867 17.6852C1.13867 18.7529 1.44465 19.7652 1.99477 20.6864C3.64837 19.3942 7.50894 18.486 12.001 18.486V18.4827Z" fill="#D1ECFB"/>
<path d="M11.9971 18.515C16.4859 18.515 20.3367 19.4134 21.9806 20.6959C22.5274 19.7812 22.8399 18.7754 22.8399 17.7175C22.8399 13.4924 17.9833 9.55371 11.9971 9.55371C6.01094 9.55371 1.1543 13.4924 1.1543 17.7175C1.1543 18.7754 1.45702 19.7845 2.00388 20.6959C3.65097 19.4134 7.51155 18.515 11.9971 18.515Z" fill="#D6EEFB"/>
<path d="M11.9997 18.5446C16.4788 18.5446 20.3296 19.4365 21.9701 20.7092C22.5203 19.8011 22.8295 18.805 22.8295 17.7536C22.8295 13.5611 17.9794 9.64844 12.003 9.64844C6.02656 9.64844 1.16992 13.5611 1.16992 17.7536C1.16992 18.8017 1.4759 19.8011 2.02276 20.7092C3.66985 19.4365 7.52066 18.5446 11.9997 18.5446Z" fill="#DBF0FC"/>
<path d="M11.9997 18.57C16.4722 18.57 20.3165 19.4554 21.9506 20.7216C22.5072 19.8265 22.81 18.8304 22.81 17.7888C22.81 13.6255 17.9663 9.74219 11.9997 9.74219C6.03307 9.74219 1.18945 13.6288 1.18945 17.7888C1.18945 18.8304 1.49218 19.8265 2.03904 20.7281C3.67962 19.4586 7.53043 18.5732 12.003 18.5732L11.9997 18.57Z" fill="#E0F2FC"/>
<path d="M11.9984 18.6038C16.4677 18.6038 20.299 19.4795 21.9428 20.7359C22.4831 19.8408 22.7924 18.861 22.7924 17.8259C22.7924 13.6952 17.9585 9.83789 11.9984 9.83789C6.03828 9.83789 1.20117 13.6952 1.20117 17.8226C1.20117 18.861 1.5039 19.844 2.0475 20.7359C3.69134 19.4795 7.52913 18.6038 11.9984 18.6038Z" fill="#E5F4FD"/>
<path d="M11.9997 18.6328C16.4625 18.6328 20.284 19.5019 21.9311 20.7486C22.4682 19.8665 22.7807 18.8867 22.7807 17.8614C22.7807 13.7665 17.9533 9.92871 11.9997 9.92871C6.04609 9.92871 1.21875 13.7632 1.21875 17.8581C1.21875 18.8867 1.51822 19.8632 2.06183 20.7454C3.70566 19.5019 7.53694 18.6296 11.9997 18.6296V18.6328Z" fill="#E9F6FD"/>
<path d="M12.0004 18.6615C16.4599 18.6615 20.2814 19.5241 21.9155 20.761C22.4623 19.8821 22.7683 18.9154 22.7683 17.8933C22.7683 13.8277 17.941 10.0225 12.0004 10.0225C6.05977 10.0225 1.23242 13.8309 1.23242 17.89C1.23242 18.9121 1.52864 19.8821 2.07875 20.7577C3.72259 19.5208 7.5441 18.6582 12.0004 18.6582V18.6615Z" fill="#EEF8FE"/>
<path d="M11.9991 18.6908C16.4456 18.6908 20.2638 19.5469 21.9011 20.774C22.448 19.8984 22.7507 18.9382 22.7507 17.9258C22.7507 13.896 17.9397 10.1201 12.0023 10.1201C6.06497 10.1201 1.24414 13.8993 1.24414 17.9258C1.24414 18.9414 1.54687 19.8984 2.09047 20.774C3.7278 19.5501 7.54931 18.6908 11.9991 18.6908Z" fill="#F2FAFE"/>
<path d="M11.9978 18.7168C16.4443 18.7168 20.2527 19.5696 21.8803 20.7838C22.4272 19.9212 22.7331 18.9642 22.7331 17.9649C22.7331 13.9644 17.9253 10.208 11.9978 10.208C6.07018 10.208 1.25586 13.9676 1.25586 17.9649C1.25586 18.9675 1.56184 19.9212 2.10545 20.7838C3.73952 19.5664 7.56103 18.7136 12.001 18.7136L11.9978 18.7168Z" fill="#F7FCFE"/>
<path d="M11.9997 18.7471C16.4429 18.7471 20.2449 19.5902 21.8725 20.801C22.4096 19.9384 22.7221 18.9945 22.7221 18.0017C22.7221 14.0305 17.9175 10.3066 11.9997 10.3066C6.0819 10.3066 1.27734 14.0305 1.27734 17.9984C1.27734 18.9912 1.58007 19.9384 2.12042 20.801C3.74798 19.5902 7.56298 18.7503 11.9997 18.7471Z" fill="#FBFDFF"/>
<path d="M11.9993 18.7765C16.4263 18.7765 20.2315 19.6163 21.8591 20.8142C22.4027 19.9613 22.7021 19.0239 22.7021 18.0376C22.7021 14.0989 17.9106 10.4011 11.9993 10.4011C6.088 10.4011 1.29321 14.1022 1.29321 18.0343C1.29321 19.0239 1.59268 19.9581 2.13303 20.8109C3.76385 19.613 7.57234 18.7765 11.9993 18.7732V18.7765Z" fill="white"/>
</g>
<path d="M11.9921 14.8464C8.12181 14.8464 4.5249 15.5007 1.55298 16.6139C3.33353 20.6145 7.34384 23.4008 11.9987 23.4008C16.6535 23.4008 20.6638 20.6145 22.4509 16.6139C19.4789 15.5007 15.8723 14.8464 11.9921 14.8464Z" fill="#007BC7"/>
</g>
<defs>
<clipPath id="clip0_3018_6358">
<rect width="24" height="24" fill="white"/>
</clipPath>
</defs>
</svg>
